<?xml version="1.0" encoding="UTF-8" standalone="no"?>
<!-- Created with Inkscape (http://www.inkscape.org/) -->

<svg
   width="400"
   height="200"
   viewBox="0 0 105.83333 52.916666"
   version="1.1"
   id="svg160088"
   inkscape:export-filename="Bear.svg"
   inkscape:export-xdpi="96"
   inkscape:export-ydpi="96"
   sodipodi:docname="bear.svg"
   inkscape:version="1.2.2 (732a01da63, 2022-12-09)"
   xmlns:inkscape="http://www.inkscape.org/namespaces/inkscape"
   xmlns:sodipodi="http://sodipodi.sourceforge.net/DTD/sodipodi-0.dtd"
   xmlns="http://www.w3.org/2000/svg"
   xmlns:svg="http://www.w3.org/2000/svg">
  <sodipodi:namedview
     id="namedview160090"
     pagecolor="#ffffff"
     bordercolor="#eeeeee"
     borderopacity="1"
     inkscape:showpageshadow="0"
     inkscape:pageopacity="0"
     inkscape:pagecheckerboard="0"
     inkscape:deskcolor="#ffffff"
     inkscape:document-units="px"
     showgrid="false"
     inkscape:zoom="3.337544"
     inkscape:cx="213.92976"
     inkscape:cy="16.479183"
     inkscape:window-width="3840"
     inkscape:window-height="2054"
     inkscape:window-x="-11"
     inkscape:window-y="-11"
     inkscape:window-maximized="1"
     inkscape:current-layer="layer1" />
  <defs
     id="defs160085" />
  <g
     inkscape:label="Layer 1"
     inkscape:groupmode="layer"
     id="layer1">
    <path
       d="m 22.703059,50.653287 c -0.131861,-0.04991 -0.234641,-0.03703 -0.376557,-0.07234 -0.155371,-0.0036 -0.287077,-0.0092 -0.43439,-0.01081 -0.06034,-0.01915 -0.153734,-0.0364 -0.207583,-0.03826 -0.128764,-0.04517 -0.233441,-0.140266 -0.35915,-0.216319 -0.08255,-0.06265 -0.176123,-0.1045 -0.264724,-0.151254 -0.151947,0.03769 -0.297279,0.01058 -0.452945,0.0169 -0.294256,0.01004 -0.574887,0.0942 -0.875202,0.109529 -0.05882,0.07942 -0.155714,0.148461 -0.236859,0.217379 -0.05074,0.0092 -0.09682,0.0036 -0.112459,-0.0094 -0.0379,-0.03464 -0.0289,-0.151356 0.01624,-0.210147 0.02038,-0.07083 0.07455,-0.116123 0.112252,-0.174696 0.04253,-0.10668 0.115636,-0.146745 0.182533,-0.237778 0.0094,-0.03411 0.03834,-0.08928 0.06447,-0.122714 0.08956,-0.114812 0.04011,-0.243835 -0.08028,-0.209683 -0.03102,0.0092 -0.08574,0.0349 -0.121593,0.05785 -0.255183,0.02674 -0.438088,0.112037 -0.703677,0.167077 -0.140306,0.01893 -0.285079,0.07343 -0.41296,0.11005 -0.2685,0.179785 -0.594958,0.263754 -0.9093,0.349796 -0.108581,-0.02661 -0.09889,-0.08095 0.02625,-0.147948 0.06093,-0.03253 0.117622,-0.07893 0.12597,-0.102912 0.0084,-0.02391 0.05688,-0.06298 0.107846,-0.08681 0.166194,-0.219368 0.374986,-0.390231 0.566619,-0.583487 0.17121,-0.145221 0.198183,-0.191058 0.142397,-0.241978 -0.366576,0.05852 -0.711826,0.224011 -1.08443,0.309202 -0.106864,0.08407 -0.226393,0.140098 -0.34454,0.209136 -0.159872,0.06804 -0.298691,0.157144 -0.439858,0.255184 -0.06437,0.07344 -0.139415,0.06771 -0.139208,-0.01058 1.86e-4,-0.07605 0.05436,-0.15128 0.190092,-0.264229 0.05149,-0.05549 0.10586,-0.106723 0.155136,-0.156382 0.07985,-0.02277 0.03168,-0.120521 0.04696,-0.17876 0.0022,-0.01231 0.0036,-0.105698 0.0036,-0.207508 l 4.4e-4,-0.185106 0.126329,-0.09595 c 0.06952,-0.05279 0.168727,-0.115663 0.22052,-0.139782 0.07699,-0.0521 0.152652,-0.100656 0.229896,-0.151584 0.02281,-0.03416 0.324301,-0.12752 0.411697,-0.12752 0.0893,0 0.171538,-0.118941 0.222877,-0.322461 0.03142,-0.124456 0.05688,-0.179745 0.0861,-0.186729 0.02285,-0.0058 0.06538,-0.03923 0.09444,-0.07529 0.185693,-0.03799 0.30046,-0.177204 0.430804,-0.303245 0.01986,-0.02608 0.07001,-0.05363 0.111272,-0.06113 0.119494,-0.07976 0.292316,-0.215693 0.363845,-0.278914 0.198269,-0.04466 0.351335,-0.199734 0.507954,-0.318371 0.05386,-0.0092 0.123122,-0.109349 0.237808,-0.171441 0.114698,-0.06214 0.322625,-0.161702 0.471906,-0.254195 0.187939,-0.121867 0.333456,-0.134278 0.538179,-0.148086 0.0563,-0.0094 0.154091,-0.01482 0.217185,-0.01191 0.21572,-0.03147 0.422424,-0.09583 0.638055,-0.132872 0.08555,-0.02387 0.216368,-0.04329 0.29063,-0.04303 0.07422,2.34e-4 0.383595,-0.0076 0.687398,-0.01668 0.255794,0.02141 0.503746,-0.03614 0.743867,-0.08356 0.240901,-0.072 0.45027,-0.208205 0.6555,-0.348627 0.249335,-0.144886 0.391653,-0.402695 0.589202,-0.607649 0.03967,-0.122978 0.111481,-0.230469 0.171374,-0.343772 0.06462,-0.138877 0.15823,-0.266643 0.239433,-0.392499 0.02974,0 0.215167,-0.406795 0.206827,-0.453752 0.0882,-0.08187 0.134054,-0.202958 0.196919,-0.313703 0.06976,-0.112392 0.101034,-0.230451 0.163105,-0.35287 0.09075,-0.135443 0.194138,-0.265946 0.302212,-0.380903 0.04706,-0.05935 0.124276,-0.123733 0.180711,-0.187294 0.03675,-0.142809 0.148156,-0.25508 0.22724,-0.36565 0.0552,-0.01778 0.250741,-0.211188 0.251258,-0.248636 0.104164,-0.08874 0.192293,-0.206074 0.280988,-0.316605 0.217739,-0.349566 0.53997,-0.613407 0.799942,-0.92098 0.02811,-0.0613 0.05511,-0.10166 0.08498,-0.156642 0.02004,0 0.05588,-0.02763 0.07978,-0.0613 0.02387,-0.03362 0.07943,-0.0902 0.123315,-0.125548 0.03053,-0.06341 0.09792,-0.09139 0.135034,-0.125979 0.15488,-0.02008 0.246,-0.23134 0.373075,-0.355589 0.0084,-0.02405 0.03724,-0.04906 0.06395,-0.05532 0.119599,-0.07959 0.118819,-0.208572 0.157339,-0.327545 0.03433,-0.17775 0.09731,-0.18717 0.232088,-0.29201 l 0.140294,-0.158967 c 0.03207,-0.01103 0.05822,-0.036 0.05822,-0.05523 0.130511,-0.225087 0.264696,-0.302212 0.380351,-0.502813 0.01504,-0.08136 0.02387,-0.09094 0.07884,-0.08554 0.277171,-0.262733 0.230439,-0.395777 0.298117,-0.542831 0.220498,-0.09814 0.182374,-0.349799 0.198939,-0.582096 0.134477,-0.150548 0.200673,-0.332084 0.258917,-0.515808 0.04042,-0.04981 0.06134,-0.105396 0.06134,-0.161752 0.112231,-0.120252 0.115985,-0.260073 0.156818,-0.398407 0.04293,0 0.216518,-0.392159 0.277671,-0.627369 0.1018,-0.0991 0.126221,-0.248583 0.12837,-0.371686 0.0014,-0.123101 0.05318,-0.295252 0.09066,-0.448408 0.06328,-0.153707 0.07734,-0.307419 0.09188,-0.473476 0.05865,-0.142927 0.09532,-0.293325 0.1399,-0.433618 0.109354,-0.171472 0.124109,-0.361581 0.13987,-0.561205 0.02709,-0.199768 0.08875,-0.337299 0.07019,-0.485565 0.04267,-0.0058 0.0546,-0.02687 0.06655,-0.119181 0.0084,-0.06189 0.0092,-0.139446 0.0014,-0.172476 -0.01142,-0.05304 0.03508,-0.176052 0.111538,-0.295329 0.06858,-0.17989 0.122123,-0.370336 0.172963,-0.553398 0.15334,-0.239027 0.205341,-0.51133 0.292046,-0.829321 0.04558,-0.03967 0.08094,-0.223817 0.07909,-0.41213 0.01901,-0.09744 0.09656,-0.172438 0.16172,-0.254329 0.02339,0.01389 0.04329,-0.03309 0.06488,-0.04951 -0.05234,-0.01739 -0.177577,-0.141687 -0.179034,-0.177715 -4.41e-4,-0.01345 0.03769,-0.06095 0.08491,-0.105319 0.124885,-0.107112 0.02657,-0.110222 0.04864,-0.202967 0.01099,-0.178977 0.08281,-0.210133 0.137143,-0.342202 0.03044,-0.05203 0.02903,-0.06172 -0.01452,-0.09477 -0.01664,-0.09995 -0.102091,-0.138356 -0.152877,-0.207177 -0.129029,-0.06931 -0.281196,-0.09571 -0.423343,-0.132038 -0.02965,-0.01452 -0.06655,-0.0036 -0.129967,0.03468 -0.100808,0.06248 -0.183055,0.06974 -0.252145,0.02197 -0.06774,-0.04667 -0.15195,-0.04192 -0.182682,0.01047 -0.0764,0.06399 -0.159109,0.128465 -0.241025,0.19045 -0.03676,0.0737 -0.08984,0.07108 -0.124925,-0.0068 -0.03822,-0.08406 -0.244352,-0.19848 -0.296118,-0.164254 -0.111048,0.03023 -0.144927,0.131898 -0.214334,0.209604 -0.02136,0.04364 -0.04329,0.05042 -0.16196,0.05042 -0.121641,0 -0.146686,0.0084 -0.219619,0.07286 -0.05158,0.04562 -0.10708,0.07285 -0.148672,0.07285 -0.05132,-0.06602 -0.14948,-0.117874 -0.213041,-0.179251 -0.147251,0.0618 -0.246492,0.181999 -0.344307,0.302485 -0.06497,0.06314 -0.150332,0.07243 -0.205178,0.02241 -0.04919,-0.04489 -0.136247,-0.04275 -0.155843,0.003 -0.04126,0.0983 -0.09906,0.121192 -0.266193,0.105557 -0.135862,-0.01275 -0.157533,-0.02057 -0.146105,-0.05346 0.02771,-0.07951 -0.169115,-0.191425 -0.246023,-0.139962 -0.04139,0.02775 -0.08536,0.13742 -0.08581,0.213874 -2.08e-4,0.03953 -0.0092,0.08389 -0.01915,0.09877 -0.02065,0.02956 -0.164338,0.02118 -0.210143,-0.01245 -0.01536,-0.01139 -0.0632,-0.02745 -0.106162,-0.03587 -0.09405,0.0364 -0.182383,0.03468 -0.286098,0.0623 -0.146007,-0.01231 -0.159584,-0.0094 -0.239017,0.05312 -0.04629,0.03649 -0.12101,0.08574 -0.166004,0.1093 -0.07522,0.03958 -0.08061,0.04957 -0.0674,0.126333 0.01249,0.07175 0.0068,0.08845 -0.04643,0.11985 -0.03353,0.02008 -0.102189,0.0379 -0.152556,0.0398 -0.08582,0.02171 -0.129777,0.07209 -0.201489,0.111929 -0.09991,-0.07395 -0.08983,-0.05877 -0.178765,-0.116894 -0.03147,0.0158 -0.07641,0.02608 -0.09996,0.02277 -0.125498,0.128482 -0.287751,0.209428 -0.438264,0.287228 -0.157026,8.82e-4 -0.188579,0.02277 -0.263352,0.181987 -0.06016,0.12815 -0.161874,0.176784 -0.284804,0.136216 -0.129972,-0.04293 -0.186007,-0.03433 -0.186007,0.02867 0.04981,0.0979 0.03835,0.201775 0.04809,0.31356 0.02612,0.102902 -0.0022,0.169504 -0.07271,0.169504 -0.06353,0 -0.0982,-0.06568 -0.0982,-0.186188 0,-0.05472 -0.0076,-0.131 -0.01526,-0.169508 -0.01364,-0.06198 -0.02488,-0.06999 -0.09879,-0.06999 -0.06312,0 -0.0893,0.01218 -0.10736,0.05043 -0.01306,0.02775 -0.03703,0.0671 -0.05309,0.08763 0.0158,0.152414 -0.01611,0.290929 -0.03203,0.439504 -0.0068,0.125116 -0.03274,0.160857 -0.120442,0.161509 -0.04329,2.38e-4 -0.04558,-0.0135 -0.03243,-0.199743 l 0.01415,-0.200008 c -0.310921,-0.06914 -0.321004,0.0195 -0.27902,0.301139 0.03367,0.06062 0.06134,0.137955 0.06134,0.171829 8.8e-5,0.05346 -0.0096,0.06155 -0.07271,0.06155 -0.04763,0 -0.08188,-0.01544 -0.09908,-0.04483 -0.01434,-0.02458 -0.04677,-0.04484 -0.07178,-0.04484 -0.03508,0 -0.04921,0.02311 -0.06192,0.10031 -0.02057,0.125158 -0.04856,0.141736 -0.137738,0.08161 -0.08629,-0.05816 -0.18703,-0.06231 -0.204225,-0.0084 -0.0068,0.02153 -0.01986,0.09689 -0.02894,0.167371 -0.01805,0.140894 -0.03526,0.161602 -0.150023,0.181413 -0.0954,0.01646 -0.141781,-0.02233 -0.09557,-0.08002 0.01729,-0.02153 0.02608,-0.06442 0.01964,-0.09529 -0.0068,-0.03084 4.41e-4,-0.06964 0.01536,-0.086 0.01501,-0.01646 0.03208,-0.107684 0.0379,-0.202737 l 0.01081,-0.17283 -0.06572,0.0036 c -0.128751,0.04725 -0.156023,-0.07126 -0.251624,-0.115001 -0.09084,-0.04236 -0.112079,-0.04395 -0.234344,-0.01905 -0.152714,0.03124 -0.184232,0.05817 -0.118972,0.101682 0.126892,-0.01368 0.153994,0.0084 0.265707,0.01355 0.01004,0.0349 -2.42e-4,0.06086 -0.03357,0.08398 -0.04329,0.03023 -0.0453,0.04266 -0.01911,0.123229 0.01606,0.0493 0.05276,0.124917 0.08171,0.168044 0.06741,0.100494 0.103118,0.392132 0.05042,0.410612 -0.07001,0.02454 -0.109776,-0.03759 -0.121267,-0.18951 -0.0068,-0.0817 -0.024,-0.170522 -0.0398,-0.197314 -0.03089,-0.05261 -0.117341,-0.09153 -0.165842,-0.07462 -0.05588,0.01938 -0.06025,0.147304 -0.0099,0.294137 0.05428,0.158345 0.04931,0.194404 -0.02916,0.213545 -0.07094,0.01734 -0.114922,-0.03873 -0.114922,-0.146224 0,-0.06914 -0.01478,-0.09443 -0.08205,-0.141362 -0.04611,-0.03213 -0.114605,-0.05716 -0.15613,-0.05716 -0.07043,0 -0.07372,-0.003 -0.06723,-0.08398 0.003,-0.04619 0.01389,-0.100365 0.02251,-0.120345 -0.01275,-0.121624 -0.140496,-0.140143 -0.204313,-0.187489 -0.01611,0.01482 -0.04794,0.233409 -0.05082,0.35025 -0.0022,0.09286 0.04511,0.12429 0.121748,0.08061 0.07422,-0.04231 0.133003,0.003 0.138567,0.109168 0.0022,0.04781 0.01526,0.132311 0.02855,0.187599 0.01306,0.05523 0.01482,0.11594 0.003,0.134795 -0.01103,0.01888 -0.0068,0.05674 0.01364,0.08994 0.0368,0.06062 0.04839,0.290903 0.01469,0.290903 -0.01152,0 -0.0547,-0.01081 -0.09595,-0.02384 -0.08638,-0.02748 -0.112217,-0.09011 -0.08985,-0.217524 0.02215,-0.125843 -0.02661,-0.262928 -0.113147,-0.3192 -0.07294,-0.08481 -0.09573,0.02736 -0.162215,0.04643 -0.08801,0.03049 -0.07767,0.149992 0.02793,0.322231 0.07219,0.117922 0.0859,0.162178 0.0859,0.278124 0,0.130246 -0.0022,0.137881 -0.05831,0.137881 -0.08086,0 -0.122648,-0.05346 -0.10492,-0.134245 -0.04479,-0.09297 -0.171114,-0.301824 -0.204958,-0.345904 0,-0.03549 -0.108108,-0.192042 -0.132598,-0.192042 -0.07337,0 -0.09923,0.06485 -0.06825,0.170881 0.02078,0.071 0.02175,0.11294 0.003,0.143995 -0.03234,0.05514 0.0058,0.193674 0.07438,0.273905 l 0.210222,0.293339 -0.04633,0.08553 c -0.0255,0.04706 -0.05562,0.08554 -0.06689,0.08554 -0.02947,0 -0.09703,-0.09329 -0.09703,-0.134063 0,-0.05066 -0.117132,-0.157224 -0.172848,-0.157224 -0.04143,0 -0.04815,0.0158 -0.04815,0.114406 0.02144,0.158578 0.04434,0.31841 0.06884,0.475956 l -0.0076,0.09303 -0.09882,-0.0077 c -0.09841,-0.0076 -0.09895,-0.0068 -0.128799,0.09522 -0.01641,0.05623 -0.04076,0.102253 -0.05394,0.102253 -0.01323,0 -0.04223,-0.03221 -0.06453,-0.07158 -0.0342,-0.06029 -0.03623,-0.08892 -0.01285,-0.180954 0.06024,-0.238417 0.0267,-0.331722 -0.10329,-0.286627 -0.134786,0.04677 -0.164054,0.182551 -0.07396,0.343402 0.05334,0.09516 0.07313,0.40263 0.02807,0.436693 -0.02828,0.02141 -0.04534,0.02078 -0.08078,-0.0022 -0.03469,-0.02311 -0.04566,-0.06256 -0.04815,-0.173271 -0.0022,-0.119664 -0.02793,-0.25611 -0.07759,-0.418854 -0.0068,-0.02048 -0.0342,-0.0248 -0.0947,-0.01434 -0.07355,-0.08443 -0.246607,-0.04382 -0.247842,-0.04395 0.0092,0.03313 0.003,0.07176 -0.01271,0.08964 -0.003,0.02657 0.08187,0.06619 0.130352,0.105266 -0.05553,0.06485 -0.05232,0.135236 0.0092,0.20189 0.04566,0.04956 0.05949,0.08737 0.05393,0.14754 -0.0068,0.07023 -0.01554,0.08061 -0.06883,0.07876 -0.03376,-8.83e-4 -0.08068,-0.0098 -0.104337,-0.0192 -0.04095,0.01994 -0.08162,0.214073 -0.09159,0.256644 -0.05973,0 -0.08956,0.08864 -0.05167,0.153284 0.03014,0.05144 0.03645,0.286671 0.0084,0.302662 -0.01026,0.0058 -0.0482,0.0058 -0.08455,-8.83e-4 -0.0637,-0.01121 -0.06556,-0.01558 -0.05377,-0.131597 l 0.01209,-0.120066 -0.09021,-0.03437 c -0.164667,-0.06272 -0.244355,-0.02797 -0.181448,0.07926 0.03901,0.06671 0.06218,0.468919 0.02691,0.468919 -0.01426,0 -0.0379,-0.02017 -0.05242,-0.04484 -0.06042,-0.103042 -0.152846,-0.0259 -0.171493,0.143073 -0.01058,0.09581 -0.02078,0.1146 -0.06176,0.1146 -0.0552,-0.06112 -0.08315,-0.266595 -0.09821,-0.341712 -0.02701,-0.0022 -0.07397,0.01205 -0.104304,0.03363 -0.01611,0.133039 -0.07792,0.308932 -0.110545,0.404786 -0.05017,-0.0068 -0.05588,-0.02108 -0.06244,-0.158396 -0.0058,-0.110842 -0.01632,-0.151245 -0.04116,-0.151245 -0.03759,0 -0.04991,0.02944 -0.07547,0.178884 -0.01831,0.106605 -0.116774,0.246827 -0.173448,0.246827 -0.05141,0 -0.04205,-0.13424 0.018,-0.258119 0.04395,-0.11369 0.0471,-0.241179 0.0584,-0.361059 0.0487,-0.106432 0.02378,-0.160878 -0.08229,-0.180178 -0.07118,-0.0022 -0.139829,-0.0192 -0.209356,-0.02877 -0.09384,-0.0493 -0.07699,-0.165798 -0.09897,-0.260379 0.04192,-0.10986 -0.1093,-0.07083 -0.170514,-0.110421 -0.09723,-0.132165 -0.195589,0.04956 -0.221425,0.05616 -0.01231,0.06974 -0.02657,0.08964 -0.06455,0.08964 -0.0435,0 -0.04879,-0.01518 -0.04879,-0.140643 0,-0.155671 -0.03892,-0.229345 -0.140001,-0.264389 -0.03587,-0.01245 -0.05621,-0.03362 -0.04879,-0.05101 0.02162,-0.05176 -0.0248,-0.09585 -0.0743,-0.07032 -0.02396,0.01258 -0.09341,0.02228 -0.154188,0.02184 -0.109614,-4.4e-4 -0.110407,-8.82e-4 -0.10248,-0.07302 0.0068,-0.06062 -2.38e-4,-0.07226 -0.04324,-0.07226 -0.10207,0.0624 -0.166803,0.0084 -0.262796,0.012 -0.09057,0.02334 -0.21796,0.01778 -0.27947,-0.01231 -0.12162,-0.08423 -0.116418,0.08527 -0.160802,0.117799 -0.01624,0.01488 -0.157313,-0.05379 -0.157551,-0.07665 -2.38e-4,-0.03181 -0.07936,-0.08562 -0.125489,-0.08562 -0.02652,0 -0.08062,0.03027 -0.120163,0.06719 -0.08455,0.07891 -0.194109,0.09131 -0.213377,0.024 -0.0084,-0.0297 -0.04267,-0.0479 -0.109543,-0.05819 -0.0807,-0.01239 -0.112716,-0.0058 -0.189187,0.04319 -0.110081,0.03306 -0.23325,0.08636 -0.329675,0.116017 -0.02944,0.0511 -0.05006,0.05842 -0.178765,0.06307 -0.220856,0.0084 -0.314143,0.07337 -0.426162,0.299065 -0.02355,0.04739 -0.035,0.04941 -0.20622,0.03627 -0.216116,-0.0222 -0.312862,0.160265 -0.521726,0.238515 -0.12315,0.01108 -0.189082,0.107306 -0.255801,0.165947 0,0.07056 -0.0084,0.07892 -0.111868,0.111109 -0.15481,0.04815 -0.328074,0.152239 -0.329141,0.197762 -8.84e-4,0.05277 -0.01258,0.05665 -0.259857,0.08709 -0.157158,0.0014 -0.287876,0.07504 -0.421878,0.13267 -0.04466,0.04753 -0.19791,0.06265 -0.241024,0.02378 -0.01448,-0.01315 -0.08756,-0.0036 -0.194641,0.02241 -0.212644,0.05397 -0.29768,0.05507 -0.329631,0.0036 -0.09595,0.01266 -0.238646,-0.0084 -0.348746,-0.01545 -0.04364,-0.03349 -0.116297,-0.05977 -0.18766,-0.06779 l -0.29295,-0.0364 c -0.09699,-0.01279 -0.223653,-0.02378 -0.281513,-0.02454 -0.253319,-0.0068 -0.440294,-0.07766 -0.6473,-0.219973 -0.215877,-0.0092 -0.152802,-0.097 -0.239435,-0.232478 l -0.140699,-0.0848 v -0.16325 c 0,-0.120111 -0.01125,-0.177393 -0.04302,-0.21684 -0.08912,-0.111141 -0.104337,-0.157935 -0.104337,-0.320352 0,-0.165382 4.42e-4,-0.166931 0.06749,-0.173951 0.06252,-0.0068 0.06908,-0.01716 0.08855,-0.141542 0.02458,-0.157003 0.02467,-0.179194 0.0014,-0.268867 -0.09172,-0.113633 -0.184339,-0.232385 -0.283795,-0.339117 -0.06521,-0.0634 -0.04489,-0.120213 0.04293,-0.120213 0.04466,0 0.09435,0.02767 0.154196,0.08581 0.04856,0.0472 0.10763,0.09226 0.131258,0.100117 0.04086,0.118306 0.167235,0.08213 0.238681,0.117273 0.04192,-0.171523 0.02771,-0.359635 0.01527,-0.533229 0.05445,-0.04967 0.231475,0.172715 0.298236,0.374659 0.04046,0.12227 0.325537,0.237142 0.493253,0.198728 0.04895,-0.01116 0.05579,-0.02378 0.04521,-0.08305 -0.0076,-0.03843 -0.02714,-0.107673 -0.04511,-0.153888 -0.02877,-0.07394 -0.04228,-0.08405 -0.113175,-0.08405 -0.0653,0 -0.08537,-0.01173 -0.106172,-0.06155 -0.05579,-0.05673 -0.06294,-0.142614 -0.09012,-0.204199 -0.03834,-0.02185 -0.04253,-0.225545 -0.0076,-0.344854 0.02801,-0.09619 0.11262,-0.147992 0.168277,-0.221102 0.0036,-0.0364 0.0304,-0.06797 0.06825,-0.08373 0.139244,-0.148602 0.281513,-0.273981 0.412425,-0.405427 0.09612,-0.03759 0.11348,-0.05244 0.09067,-0.07749 l -0.119643,-0.03786 c 0.248998,-0.207816 0.399048,-0.427578 0.452981,-0.737203 0.0084,-0.105136 0.0014,-0.157748 -0.02383,-0.189204 -0.08893,-0.04926 -0.236577,0.02691 -0.344929,0.05303 -0.197289,0.0881 -0.329427,0.230995 -0.531071,0.32704 -0.08086,0.06071 -0.173052,0.126032 -0.2586,0.181722 -0.157549,0.161773 -0.364095,0.263907 -0.541851,0.398522 -0.07961,0.03592 -0.171069,0.0839 -0.203284,0.106432 -0.209154,0.07032 -0.4168297,0.134944 -0.6317936,0.185599 -0.077165,0.02017 -0.1366316,0.110082 -0.1712556,0.137977 0.00842,0.02944 0.021407,0.08135 0.029741,0.115182 0.041648,0.06559 0.063282,0.137527 0.095377,0.207349 0.010256,0.05506 0.033574,0.139163 0.052001,0.186853 0.018395,0.04763 0.027399,0.09571 0.020036,0.106712 -0.022368,0.03296 -0.1093042,0.02255 -0.1250751,-0.01496 -0.1464047,-0.05337 -0.2669652,-0.161076 -0.3875344,-0.270726 -0.038788,-0.0715 -0.1255124,-0.10125 -0.1854591,-0.149612 0,-0.03667 -0.1335873,-0.148478 -0.2455072,-0.205363 -0.047295,-0.02396 -0.1411538,-0.05084 -0.2086724,-0.0597 -0.067579,-0.0092 -0.1545552,-0.0233 -0.1934109,-0.03199 -0.038917,-0.0092 -0.1638295,-0.0022 -0.2777002,0.01349 -0.2004797,0.02846 -0.212998,0.02763 -0.3957863,-0.02811 -0.1037325,-0.0316 -0.2549681,-0.07019 -0.3359755,-0.08577 C 7.2271316,31.811836 7.0947231,31.774948 6.949099,31.73333 6.6128415,31.67347 6.3323132,31.546079 6.0618352,31.343249 6.005451,31.290471 5.9159466,31.227115 5.8630331,31.202479 c -0.05293,-0.02458 -0.1129941,-0.06819 -0.133542,-0.09682 -0.04819,-0.0671 -0.091545,-0.252373 -0.067395,-0.288022 0.033574,-0.04956 0.097256,-0.0036 0.097256,0.06939 0,0.05918 0.00842,0.06848 0.054948,0.06231 0.083394,-0.0108 0.085467,-0.0859 0.00302,-0.145166 l -0.069339,-0.05041 0.060076,-0.0203 c 0.037859,-0.01271 0.074974,-0.01182 0.1001055,0.0022 0.057043,0.03252 0.1160653,0.0036 0.1348137,-0.0634 0.024667,-0.08966 -0.015362,-0.108891 -0.1529089,-0.07344 -0.083977,0.02167 -0.1217038,0.04373 -0.1278539,0.07487 -0.014919,0.07546 -0.049702,0.08856 -0.074963,0.02807 -0.021353,-0.05134 -0.03936,-0.05793 -0.1814442,-0.06611 C 5.3543321,30.628051 5.2265225,30.548381 5.094983,30.479747 4.996939,30.408667 4.8972971,30.332221 4.8080334,30.245764 4.6957238,30.176454 4.604396,30.005318 4.604396,29.864227 c 0,-0.08094 0.015221,-0.112314 0.091027,-0.187592 0.079357,-0.06466 0.1561464,-0.125793 0.2373708,-0.188604 0.090757,-0.02938 0.1644685,-0.107973 0.2362416,-0.155102 0,-0.01747 0.097191,-0.06551 0.2290227,-0.113113 0.2547696,-0.09203 0.3524127,-0.17441 0.3249838,-0.274165 0.066489,-0.145806 0.2045345,-0.252176 0.3158423,-0.358387 0.137451,-0.131729 0.2574998,-0.287833 0.3699207,-0.449429 0.1071872,-0.03927 0.1728749,-0.217652 0.2577652,-0.334758 0.219933,-0.161698 0.3228884,-0.352862 0.5188838,-0.542804 0.06176,-0.0993 0.1468105,-0.177644 0.2176303,-0.264962 0.054517,-0.120477 0.1434478,-0.229424 0.2204048,-0.335194 8.83e-4,-0.03909 0.085737,-0.0987 0.1406291,-0.0987 0.063703,0 0.1008504,-0.04072 0.1209978,-0.132721 0.080609,-0.115483 0.1991854,-0.22909 0.2840197,-0.337808 0.032688,0 0.059666,-0.02683 0.084377,-0.08434 0.1372005,-0.154091 0.2369519,-0.34218 0.3678987,-0.491663 0.100343,-0.11457 0.1974441,-0.224122 0.2915085,-0.342613 0.099652,-0.114688 0.1635995,-0.215684 0.2452071,-0.336104 0.01968,-0.03084 0.052757,-0.08873 0.073538,-0.128834 0.1047151,-0.08855 0.1376237,-0.205058 0.1995956,-0.324297 0.099242,-0.191004 0.1386125,-0.304629 0.1346539,-0.43664 0.046431,-0.08655 0.045027,-0.185755 0.059839,-0.246655 -0.035517,-0.01818 -0.1191226,-0.402219 -0.095258,-0.437612 0.047197,-0.0311 0.066661,0.0453 0.1071116,0.07285 0.1177106,-0.04604 -0.047294,-0.173108 -0.061274,-0.224057 -0.05402,0 -0.046193,-0.02956 0.023879,-0.08965 0.072707,-0.06231 0.07615,-0.09121 0.018395,-0.15316 -0.028813,-0.03084 -0.079422,-0.04855 -0.1534249,-0.05352 -0.1266329,-0.01081 -0.1744856,-0.129245 -0.2463158,-0.221252 -0.075147,-0.08321 -0.1332592,-0.207059 -0.1850748,-0.28169 0.00939,-0.0349 0.023512,-0.09363 0.031469,-0.130586 0.0068,-0.145712 0.084269,-0.263731 0.1320803,-0.38157 0.092149,-0.09154 0.1578251,-0.223578 0.218725,-0.343508 0,-0.01747 0.060843,-0.11422 0.1350296,-0.215041 0.084906,-0.09422 0.1267959,-0.210732 0.1867912,-0.318576 0.014919,-0.130834 0.08591,-0.208126 0.1320814,-0.327115 0.050069,-0.153889 0.099933,-0.217917 0.169689,-0.217917 0.186951,-0.398284 0.411896,-0.774863 0.603514,-1.176558 0.12872,-0.240896 0.22022,-0.32576 0.316504,-0.471843 0.09628,-0.146082 0.157264,-0.20295 0.224002,-0.363182 0.02678,-0.07799 0.08629,-0.140603 0.129297,-0.21072 0.09665,-0.02691 0.161813,-0.106799 0.245698,-0.156982 0.0371,-0.0036 0.05747,-0.0282 0.06874,-0.07842 0.136176,-0.259053 0.396752,-0.432964 0.557206,-0.659191 0.06925,-0.06643 0.146965,-0.153081 0.219284,-0.223741 0.04011,-0.234305 -0.03759,-0.459519 -0.105244,-0.681054 -0.03181,-0.04429 -0.0372,-0.08321 -0.024,-0.174287 0.0094,-0.06451 0.02064,-0.151151 0.02514,-0.19258 0.0036,-0.04139 0.02841,-0.109238 0.05285,-0.150697 -4.41e-4,-0.176494 0.03257,-0.322404 0.0588,-0.456824 0.04156,-0.142522 0.09472,-0.282909 0.154298,-0.429744 0.02188,-0.0199 0.04192,-0.107749 0.05302,-0.232761 0.01385,-0.155489 0.02917,-0.211788 0.06782,-0.249959 0.04587,-0.08086 0.07953,-0.169297 0.11737,-0.258605 0.119176,-0.177018 0.307476,-0.35265 0.433222,-0.56915 0.06344,-0.08745 0.153618,-0.140818 0.230783,-0.211646 0.09919,-0.06146 0.222783,-0.133671 0.360045,-0.129946 0.137266,0.003 0.332278,0.07808 0.486845,0.103398 0.06109,0.06222 0.157111,0.19259 0.173718,0.235764 0.125852,0.05287 0.263285,0.117399 0.387505,0.184216 0.163052,0.103031 0.301567,0.235319 0.425866,0.356117 0.273698,0.159806 0.401205,0.230992 0.644135,0.303819 0.128826,0.02674 0.216536,-0.05202 0.321697,-0.110346 0.03088,0 0.148125,-0.02727 0.260465,-0.0607 0.119472,-0.04408 0.299724,-0.03636 0.375217,-0.03922 0.159297,-0.04395 0.225074,-0.172645 0.306077,-0.249496 0.01782,-0.058 0.07355,-0.06762 0.11061,-0.101725 0.06773,-0.02153 0.07219,-0.03014 0.06748,-0.128989 -0.0022,-0.114555 0.07557,-0.206647 0.130088,-0.301033 0.03226,-0.115848 0.08544,-0.228048 0.131816,-0.339974 0.03317,-0.1123 0.113003,-0.173554 0.17779,-0.252615 0.09075,-0.14588 0.186434,-0.278417 0.260731,-0.431386 0.04373,-0.04285 0.09076,-0.09755 0.104543,-0.12166 0.168599,-0.134531 0.26689,-0.250472 0.488941,-0.354605 0.165577,-0.06534 0.296146,-0.182662 0.429652,-0.295386 0.174613,-0.01725 0.382116,0.05665 0.581907,0.07698 0.04658,0.03742 0.105104,0.06796 0.12992,0.06796 0.191944,0.07935 0.356537,0.197991 0.4766,0.299561 l 0.113257,-0.01416 c 8e-5,0.174511 0.105147,0.173827 0.21242,0.271663 0.03945,0.01668 0.06126,0.06383 0.09452,0.204516 0.03807,0.161385 0.05242,0.18808 0.120618,0.226967 0.119511,0.06813 0.377418,0.0184 0.516996,-0.09962 0.06176,-0.05211 0.201688,-0.10845 0.339792,-0.136595 0.0748,-0.04901 0.09232,-0.147667 0.141163,-0.225771 0.119255,-0.08002 0.186072,-0.149195 0.265337,-0.273681 0.06185,-0.07024 0.08683,-0.09103 0.144128,-0.151117 -0.09699,-0.01928 -0.07101,-0.05893 0.07364,-0.112209 0.114141,-0.117477 0.207843,-0.03207 0.314801,-0.04241 0.03675,-0.01289 0.03737,-0.04789 0.0022,-0.195951 0.08928,-0.156479 0.241329,-0.17776 0.378471,-0.238898 0.124771,0 0.219863,-0.04628 0.219863,-0.107069 0,-0.01526 0.01672,-0.03357 0.03724,-0.04077 0.2069,-0.167667 0.413397,-0.336964 0.6144,-0.514048 0.01289,-0.02687 0.04002,-0.05076 0.06034,-0.05321 0.02029,-0.0022 0.12244,-0.0109 0.227073,-0.01889 0.189985,-0.01443 0.227641,-0.03676 0.149696,-0.08874 -0.05831,-0.03896 -0.02185,-0.07496 0.105503,-0.104251 0.0627,-0.01443 0.116312,-0.04126 0.123076,-0.06154 0.166516,-0.169071 0.38457,-0.275018 0.579705,-0.4061518 0.295466,-0.137967 0.563905,-0.1737785 0.812506,-0.3832281 0.11519,-0.046528 0.244025,-0.1301749 0.334201,-0.1879118 0.0653,0.018935 0.226411,0.020079 0.288547,0.0014 0.101898,-0.067957 0.177922,-0.1725478 0.258017,-0.2653945 0.02347,-0.097309 0.118504,-0.1224055 0.167887,-0.1734222 0.01686,0.1080778 0.159882,0.082801 0.215002,0.1112905 0.01026,-0.027571 0.052,-0.064416 0.136264,-0.1200315 0.05385,-0.061717 0.108175,-0.1177765 0.162484,-0.1768984 0.0036,-0.076982 0.118848,-0.042005 0.132584,-0.046765 0.0076,0.016992 0.04544,0.030842 0.0851,0.030842 0.0561,0 0.09414,-0.023955 0.171529,-0.1083475 l 0.09942,-0.1083607 0.134013,0.010148 c 0.126029,0.0095 0.134531,0.00756 0.142252,-0.042933 0.005,-0.034372 0.02701,-0.055391 0.06176,-0.060033 0.03653,-0.00356 0.05874,-0.027971 0.06951,-0.073095 0.03287,-0.1367331 0.282229,-0.2423259 0.313601,-0.1328273 0.0076,0.024581 0.03089,0.044833 0.05292,0.044833 0.03936,0 0.173039,-0.076053 0.221976,-0.1263144 0.03067,-0.031587 0.224611,-0.056751 0.408635,-0.053124 0.122662,0.00227 0.144177,-0.00302 0.190256,-0.057507 0.02864,-0.033131 0.05192,-0.079584 0.05192,-0.1032253 0.142795,-0.1222112 0.365649,-0.1814702 0.55015,-0.2499463 0.08356,-0.04112 0.181116,-0.081613 0.216898,-0.089731 0.229035,-0.137941 0.426095,-0.3266919 0.626097,-0.496659 0.01298,-0.021313 0.104045,-0.047527 0.244842,-0.070655 0.177021,-0.028993 0.226543,-0.045433 0.235914,-0.078162 0.0068,-0.02356 0.03397,-0.04139 0.06286,-0.04139 0.03367,0 0.05604,-0.018796 0.06622,-0.055567 0.01968,-0.071493 0.129161,-0.1236006 0.199622,-0.094894 0.07194,0.029254 0.249475,-0.043638 0.267725,-0.1099896 0.01729,-0.062732 0.250427,-0.1741184 0.294565,-0.1406855 0.145266,0.00759 0.222197,-0.2097404 0.254863,-0.2745061 0.03266,-0.064748 0.02127,-0.077902 0.103894,-0.1335466 0.08271,-0.055646 0.189501,-0.08136 0.328815,-0.1046233 0.220272,-0.010504 0.22705,-0.012576 0.328836,-0.097426 0.05714,-0.047624 0.117732,-0.086731 0.134637,-0.086731 0.106507,0 0.306774,-0.1247747 0.306774,-0.1911377 0,-0.015091 0.01651,-0.039976 0.0368,-0.055314 0.02025,-0.015311 0.03676,-0.046909 0.03676,-0.069977 0,-0.025857 0.01734,-0.04205 0.04475,-0.04205 0.04126,0 0.17622,-0.1559309 0.17622,-0.2036778 0,-0.011208 0.02127,-0.020473 0.0472,-0.020473 0.03213,0 0.05621,-0.02493 0.07557,-0.078413 0.03022,-0.083554 0.03808,-0.087176 0.172291,-0.0801 0.125274,0.00675 0.211171,-0.030755 0.274873,-0.119418 0.36471,-0.2972522 0.726437,-0.4866515 1.124045,-0.6693569 0.06084,-0.061051 0.153187,-0.1358058 0.205399,-0.1662605 0.125741,-0.1439114 0.299163,-0.2007524 0.461558,-0.2681258 0.138351,-0.026299 0.274506,-0.083806 0.407434,-0.1329867 0.106885,-0.055314 0.209913,-0.1260803 0.310525,-0.1963402 0.04192,-0.029164 0.131293,-0.064084 0.19871,-0.077485 0.173647,-0.034768 0.38277,-0.105637 0.403945,-0.1368904 0.0099,-0.01469 0.068,-0.030273 0.129218,-0.034813 0.168281,-0.012579 0.28994,-0.049296 0.40987,-0.1238389 0.09496,-0.059014 0.12267,-0.065674 0.222224,-0.053708 0.09761,0.01183 0.124003,0.00586 0.186129,-0.041346 0.146604,-0.114375 0.31278,-0.1303078 0.489378,-0.1588654 0.02828,0.0353 0.117517,0.052706 0.307233,0.05978 0.112051,0.036401 0.112267,-0.072937 0.182681,-0.1186107 0.07001,-0.024309 0.351225,-0.036004 0.373608,-0.015529 0.03274,0.029958 0.07464,0.014077 0.100613,-0.037944 0.03133,-0.062641 0.12965,-0.085625 0.225519,-0.052607 0.165665,-0.012444 0.336162,-0.1186233 0.499629,-0.1814613 0.08738,-0.052779 0.101314,-0.054971 0.172782,-0.027269 0.112155,0.043286 0.376896,0.021404 0.503524,-0.041653 0.08937,-0.069897 0.23328,-0.023741 0.249351,-0.025329 0,0.1343495 0.0669,0.1441094 0.195585,0.028505 0.06926,-0.050423 0.127145,-0.1149931 0.189656,-0.1715381 0.01095,-0.017605 0.05022,-0.039009 0.08738,-0.047536 0.06243,-0.014258 0.06748,-0.010277 0.06748,0.05194 0,0.049061 0.02351,0.086256 0.08682,0.1368698 0.201304,0.1072088 0.434687,-0.024535 0.670597,-0.014384 0.262187,0.03124 0.517931,0.034641 0.779363,0.093636 0.183544,0.064509 0.241131,-0.04223 0.38277,-0.1160335 0.165744,0.025023 0.101714,-0.028948 0.256252,-0.072856 0.132267,0.051344 0.226261,0.056325 0.346773,0.09694 0.203303,-0.065844 0.223874,0.040642 0.370887,0.1073589 0.07178,0.02153 0.09648,0.018137 0.181951,-0.025727 0.14385,-0.048249 0.2999,-0.028857 0.456824,-0.047536 0.05563,0.015177 0.120486,0.046056 0.144141,0.068552 0.06369,0.060457 0.305212,0.077494 0.416052,0.029209 l 0.08591,-0.037465 c 0.06446,0.1128573 0.16803,0.1370899 0.26576,0.2053239 0.166296,0.091126 0.162037,-0.028857 0.280353,-0.060449 0.105967,0 0.121928,0.023913 0.114423,0.1717095 4.41e-4,0.1899334 0.08238,0.1411054 0.250401,0.1839103 0.274378,-0.023118 0.523465,0.061558 0.79448,0.035345 0.05258,0.012047 0.0589,0.024797 0.05411,0.1095114 -0.04104,0.1103729 0.01231,0.173802 0.01598,0.2257758 0.03989,0.00918 0.118007,-0.00677 0.220185,-0.043593 0.111485,-0.040723 0.193048,-0.05582 0.275702,-0.05092 l 0.13972,0.1123446 c 0.0267,0.126147 0.09224,0.1575859 0.284937,0.1367588 0.110486,-0.011956 0.128583,-0.00766 0.182701,0.045912 0.06337,0.062397 0.194182,0.080354 0.280163,0.038341 0.05091,-0.024841 0.0716,-0.013102 0.144362,0.081528 0.07236,0.1088061 0.0058,0.070663 0.01218,0.1676192 0.0184,0.021181 0.08957,0.040991 0.177989,0.049808 0.203964,0.013766 0.386576,0.1246334 0.552581,0.2036866 0.0861,0.1640013 0.266039,0.209864 0.425341,0.268373 0.03769,0.1018392 0.132184,0.017385 0.173735,0.022769 0.01954,-0.070913 0.05881,-0.070913 0.142765,1.897e-4 0.05898,0.050011 0.07151,0.1230495 0.02101,0.1230495 -0.0095,0 -0.04055,0.019723 -0.06891,0.043859 -0.126236,0.09728 0.05571,0.1374162 0.08095,0.1999493 -0.0409,0.06053 0.275115,0.1204285 0.375846,0.071234 0.07827,-0.038257 0.157679,-0.00953 0.141543,0.051011 -0.02228,0.083814 0.05923,0.1447631 0.226794,0.1693801 0.19454,0.020209 0.279034,0.1699623 0.438481,0.2820293 0.263537,0.075458 0.480417,0.1686785 0.735124,0.222819 0.213169,0.015753 0.427937,0.095595 0.605511,0.1477679 0.02743,0.049256 0.04431,0.054634 0.152254,0.049053 0.06677,-0.00309 0.178756,-0.022327 0.248842,-0.041786 0.12198,-0.034108 0.131924,-0.033491 0.233212,0.011781 0.150883,0.1047778 0.292913,0.1188179 0.468728,0.1371472 0.139883,1.014e-4 0.247641,0.0124 0.306872,0.035211 0.390817,0.020165 0.779109,0.061307 1.172606,0.065017 0.112722,0.034902 0.126961,0.034152 0.396259,-0.023076 0.223991,-0.054887 0.446864,-0.035387 0.66887,-0.01059 0.03447,0.016856 0.115275,0.010943 0.296414,-0.021532 0.197687,-0.033931 0.397679,-0.049406 0.596847,-0.070228 0.111937,-0.020473 0.204762,-0.018091 0.480493,0.013104 0.252641,0.028504 0.354742,0.032254 0.391576,0.014252 0.02743,-0.013281 0.08085,-0.024709 0.118948,-0.02515 0.135064,-0.028152 0.267792,-0.071503 0.400654,-0.1048576 0.112676,-0.031726 0.230352,-0.059608 0.346503,-0.084349 0.153102,-0.056995 0.343752,-0.081873 0.602041,-0.07866 0.151965,-0.019062 0.3042,-0.0817 0.446601,-0.134663 0.05459,0 0.172999,-0.015664 0.263126,-0.034682 0.09014,-0.019061 0.239268,-0.034903 0.331362,-0.035211 0.13279,-4.412e-4 0.254291,-0.046718 0.380576,-0.083889 0.251268,-0.065008 0.464747,-0.02899 0.714591,-0.1250659 0.205366,-0.052442 0.411436,-0.070237 0.622171,-0.1273076 0.162397,-0.051604 0.334945,-0.064756 0.503278,-0.087913 0.05405,-0.014517 0.175535,-0.033622 0.270056,-0.042712 0.211594,-0.020165 0.80406,-0.1541174 0.826727,-0.1870164 L 65.61116,4.681263 c 0.06687,-0.031548 0.123793,-0.036579 0.304516,-0.027048 l 0.438066,-0.086723 c 0.118713,-0.054131 0.240666,-0.098529 0.271004,-0.098529 0.06768,0 0.293814,-0.071071 0.341828,-0.1074474 0.07444,-0.023828 0.161783,-0.024312 0.243446,-0.036492 0.09897,-0.01968 0.356727,-0.044658 0.572777,-0.055729 0.214905,-0.036976 0.433698,-0.028593 0.643585,-0.035078 0.169967,0.047147 0.256205,0.041124 0.517341,-0.035123 0.21526,-0.062983 0.243414,-0.066271 0.367517,-0.042756 0.146407,0.027755 0.702056,-0.00975 0.760124,-0.051343 0.01641,-0.011825 0.208146,-0.025593 0.425953,-0.030445 0.263396,-0.00675 0.476583,-0.024004 0.636754,-0.053801 0.202932,-0.034241 0.298492,-0.025548 0.471618,-0.0067 0.05808,0.048047 0.722599,0.088924 0.839566,0.051687 0.03994,-0.012664 0.109714,-0.016679 0.155378,-0.00922 0.04566,0.00839 0.148998,0.00133 0.229628,-0.014165 0.132265,-0.025636 0.156123,-0.024181 0.243879,0.014076 0.09208,0.110827 0.184708,0.077059 0.301612,0.1186149 0.391181,-0.016458 0.746985,0.1661236 1.144104,0.2205775 0.07783,0.029784 0.154006,0.039756 0.431588,0.05632 0.04048,0.0022 0.125485,-0.00309 0.188843,-0.01306 0.09953,-0.015091 0.127861,-0.010061 0.208664,0.037374 0.136,0.079764 0.257804,0.094285 0.314134,0.037505 0.06898,-0.069642 0.161219,-0.057419 0.243047,0.032166 0.243058,0.076471 0.440721,0.060451 0.678792,0.073524 0.182247,0.0022 0.356754,0.07622 0.53762,0.1177942 0.142974,-0.018311 0.24091,0.023828 0.37624,0.089925 0.05614,0.027313 0.138516,0.044843 0.212809,0.044843 0.165655,0.012752 0.293559,0.1515978 0.419077,0.2360958 0,0.050588 0.09748,0.083558 0.21228,0.07175 0.133431,0.029564 0.244515,0.069729 0.405712,0.094069 0.06682,0.058769 0.132221,0.093045 0.19545,0.102801 0.123909,0.065935 0.224036,0.065512 0.348874,0.093684 0.04383,0.09012 0.149926,0.081789 0.217548,0.1186768 0.157289,0.021797 0.314739,0.067444 0.465421,0.1120184 0.204259,0.090389 0.38683,0.1983872 0.589783,0.2830838 0.120952,0.018444 0.199186,0.099346 0.294671,0.1766738 0.0448,0.00843 0.09781,0.02846 0.118101,0.04386 0.03519,0.026827 0.307819,0.063742 0.445374,0.060287 0.05182,-8.825e-4 0.08625,0.025194 0.171646,0.1322052 l 0.106767,0.13386 c 0.128616,-0.00962 0.256908,-0.023122 0.385297,-0.035343 0.0964,-0.011032 0.164468,0.027755 0.170966,0.097633 l 0.0108,0.1130685 c 0.0032,0.041562 0.01846,0.086175 0.03271,0.099174 0.01414,0.013012 0.111883,0.029471 0.216846,0.036581 0.20739,0.00352 0.33619,0.1239183 0.502503,0.2257135 0.07524,0.06552 0.151341,0.1120361 0.183198,0.1120361 0.0299,0 0.14632,0.026294 0.258549,0.058517 0.159329,0.045623 0.21934,0.075121 0.273835,0.1342926 0.299172,0.1688242 0.590593,0.2243501 0.875408,0.4375544 0.06574,0.065096 0.129242,0.1226969 0.372515,0.1658234 0.307474,-0.012264 0.132697,0.1228329 0.241892,0.2239489 0.03131,0.030443 0.08161,0.055326 0.111473,0.055326 0.215552,0.093348 0.416605,0.2226373 0.618014,0.3210921 0.03746,0.075125 0.176472,0.1682068 0.278456,0.1865719 0.124017,0.022325 0.243457,0.07193 0.243457,0.1010878 0.15772,0.2294028 0.384833,0.3375378 0.64362,0.4166355 L 87.26395,9.409502 c 0.09824,0.3200256 0.404967,0.4828392 0.613857,0.744766 0.05948,0.02775 0.13369,0.05041 0.164716,0.05041 0.12107,0.0058 0.176472,0.113964 0.249114,0.167778 0.07503,0.101369 0.144258,0.215494 0.216749,0.314487 0.0086,0.04553 0.04912,0.129594 0.0909,0.186787 0.06045,0.0827 0.100721,0.11141 0.196152,0.140298 0.126425,0.02378 0.208469,0.12308 0.298211,0.186227 0.05354,0.116937 0.125982,0.177626 0.335855,0.281434 0.126835,0.14069 0.254285,0.274404 0.379403,0.411102 0.06736,0.05969 0.09446,0.14263 0.14387,0.21735 0.03422,0.04223 0.07395,0.112875 0.08831,0.156907 0.230136,0.158786 0.372592,0.458058 0.460013,0.665496 0.06574,0.02753 0.133387,0.06534 0.150315,0.08389 0.172412,0.01818 0.173093,0.117208 0.269074,0.221924 0.03714,0.179127 0.168591,0.249439 0.296376,0.358982 0.292209,0.09111 0.32913,0.349871 0.462474,0.602315 0.02062,0.02219 0.07956,0.06189 0.130991,0.0882 0.133668,0.06484 0.189221,0.2061 0.265188,0.320003 0.106227,0.214859 0.328601,0.344729 0.463402,0.584881 0.05527,0.0233 0.106875,0.05987 0.114755,0.08144 0.09943,0.03998 0.151729,0.133375 0.232014,0.206502 0,0.05236 0.100397,0.191218 0.138213,0.191218 0.05571,0.02877 0.102664,0.08102 0.154817,0.122237 0.107846,0.08086 0.132491,0.241307 0.16735,0.364057 0.165903,0.09402 0.272669,0.242595 0.397626,0.382839 0.192427,0.164897 0.169033,0.410759 0.276523,0.637756 0.0516,0.09319 0.116406,0.187392 0.169336,0.281116 0.03724,0.0974 0.09727,0.150023 0.145619,0.224645 0.08885,0.100008 0.186458,0.203789 0.269042,0.300235 1.1e-5,0.02797 0.03476,0.116498 0.07697,0.196614 0.04243,0.0801 0.09824,0.221253 0.124201,0.313675 l 0.07913,0.280088 c 0.01749,0.06163 0.06078,0.162439 0.09608,0.224068 0.07514,0.165233 0.170804,0.32337 0.252709,0.480945 0.053,0.05751 0.06186,0.08454 0.04977,0.15242 -0.156997,0.140765 -0.02116,0.174551 -0.02343,0.299784 0.03368,0.241347 0.0204,0.433902 -0.04264,0.608779 -0.06305,0.174875 -0.176095,0.332057 -0.342009,0.50263 -0.02224,0.09093 -0.113783,0.08516 -0.173103,0.129623 -0.04264,0.04691 0.0076,0.248473 0.08809,0.357584 0.03293,0.04428 0.05991,0.09111 0.05991,0.104024 0.07341,0.111701 0.123801,0.236401 0.174108,0.360073 0.01188,0.146219 0.07384,0.271572 0.120498,0.405153 0.09198,0.08809 0.05743,0.213298 0.07233,0.319121 -0.03746,0.02104 -0.02634,0.100602 0.03627,0.262565 0.03444,0.113427 0.06834,0.208435 0.102988,0.321552 0.107414,0.283716 0.127515,0.542716 0.26901,0.811438 0.05117,0.08348 0.05776,0.118002 0.04804,0.252148 -0.0097,0.120609 -4.42e-4,0.17805 0.03616,0.256203 0.07125,0.08728 0.110199,0.175385 0.171808,0.26772 0,0.04065 0.215227,0.377991 0.260849,0.408852 0.0271,0.143725 0.03325,0.310749 0.06218,0.467717 -0.119375,0.117808 -0.04005,0.210835 -0.05247,0.323912 0.103527,0.130132 0.132664,0.287894 0.183758,0.437061 0.04372,0.19514 0.08453,0.386908 0.11034,0.584779 0.02936,0.136283 0.0394,0.272635 0.06693,0.406098 -0.01274,0.144394 0.03552,0.313535 0.09943,0.349655 0.02731,0.01548 0.0706,0.162144 0.09154,0.310851 0.04933,0.172906 0.158066,0.326798 0.243285,0.485827 0.05074,0.164508 0.0109,0.337669 0.02386,0.517124 0.05171,0.09351 0.05549,0.126063 0.05052,0.448131 -0.03876,0.313864 -0.0557,0.549854 0.06229,0.833649 0.0475,0.07589 0.05948,0.224491 0.02019,0.250865 -0.07611,0.05127 -0.09727,0.120017 -0.06779,0.22078 0.09111,0.190373 0.03584,0.35047 0.06186,0.550076 0.01511,0.153918 0.04048,0.312042 0.06434,0.466288 0.06736,0.09635 0.06175,0.217227 0.07082,0.336465 0.01781,0.04763 0.03357,0.163393 0.03541,0.257196 0.03422,0.207018 0.05139,0.416065 0.04944,0.61845 0.01479,0.221461 0.0076,0.426895 0.04653,0.641092 0.05754,0.09076 0.02526,0.278588 0.0231,0.3644 0.04804,0.07766 0.09014,0.180685 0.125939,0.2714 0.04728,0.07849 0.08593,0.150376 0.08593,0.159796 0,0.0094 -0.03768,0.02956 -0.08356,0.04475 -0.124126,0.04095 -0.150132,0.07867 -0.11211,0.162409 0.104283,0.08103 0.112822,0.192968 0.167824,0.298946 0.01177,0.0068 0.02699,0.05859 0.03411,0.115681 0.0076,0.05699 0.03433,0.130348 0.06067,0.162951 0.02623,0.03257 0.05549,0.08782 0.06499,0.122617 0.01393,0.05169 0.0054,0.0715 -0.04502,0.108043 -0.09079,0.0651 -0.07179,0.246902 0.02936,0.281549 0.09629,0.03301 0.130138,0.126681 0.07492,0.207423 0.02299,0.12793 0.105686,0.295505 0.15256,0.440847 0.08485,0.086 0.04977,0.188632 0.07287,0.297724 0.01296,0.0222 0.02882,0.08453 0.03487,0.138564 0.03109,0.272635 0.04858,0.369612 0.07147,0.396015 -0.03627,0.07555 0.01727,0.141039 0.02602,0.212976 0.07017,0.05995 0.123574,0.19956 0.106874,0.279338 -0.0065,0.03225 0.0097,0.118504 0.03433,0.191706 -0.0097,0.111568 0.08172,0.172896 0.119786,0.253578 0.07039,0.05404 0.140188,0.21139 0.112164,0.252761 9.06e-4,0.06037 0.04005,0.115853 0.06002,0.173073 0.109022,0.09583 0.161315,0.236026 0.221078,0.368368 1.1e-5,0.0195 0.05894,0.07252 0.130872,0.117751 0.0719,0.0453 0.152615,0.104898 0.179214,0.132557 0.06995,0.07277 0.15296,0.282246 0.153187,0.386401 2.37e-4,0.135908 0.110512,0.344717 0.196389,0.372035 0.08172,0.05253 0.159966,0.11527 0.236689,0.177649 0.01695,0.04905 0.124459,0.156111 0.156554,0.156111 0.03498,0.07116 0.08561,0.140267 0.126662,0.207509 0.03627,0.02069 0.04793,0.05244 0.04793,0.130511 0.0208,0.121699 0.0949,0.226688 0.1615,0.332149 0.0463,0.05027 0.0621,0.09121 0.059,0.152957 -0.01,0.18034 8.8e-4,0.224677 0.0692,0.295708 0.0378,0.03958 0.12671,0.176974 0.1976,0.305517 0.0709,0.128547 0.13666,0.234035 0.14612,0.234436 0.16034,0.09039 0.14147,0.274905 0.16643,0.447408 0.009,0.06778 0.0222,0.133318 0.0307,0.145636 0.009,0.0124 0.0221,0.09307 0.0299,0.179446 0.0121,0.132566 0.0285,0.175689 0.10482,0.276977 0.0498,0.06594 0.0904,0.126676 0.0904,0.134891 0,0.0084 -0.0233,0.03323 -0.0519,0.05555 -0.0465,0.0364 -0.0502,0.05507 -0.035,0.178621 0.002,0.08599 0.0527,0.162289 0.0766,0.23595 -0.009,0.01223 0.002,0.141479 0.025,0.287091 0.0222,0.1456 0.0435,0.365551 0.0476,0.488782 0.008,0.221098 0.0392,0.561406 0.0734,0.788894 0.0146,0.09729 0.01,0.130115 -0.0344,0.197236 -0.0287,0.04428 -0.0594,0.137989 -0.0684,0.2082 -0.009,0.07014 -0.0302,0.13773 -0.0472,0.15005 -0.0376,0.02718 -0.0525,0.258978 -0.0243,0.377756 0.0266,0.111922 -0.01,0.133 -0.14652,0.08655 l -0.10428,-0.0353 -0.16836,0.158403 c -0.12074,0.113593 -0.20654,0.172667 -0.30337,0.208818 -0.0742,0.02775 -0.17164,0.08424 -0.21637,0.125613 -0.087,0.07327 -0.185238,0.119141 -0.280918,0.173532 -0.208815,0.108794 -0.410483,0.255286 -0.600017,0.394607 -0.01393,0 -0.0651,0.02894 -0.113784,0.06424 -0.07762,0.04841 -0.161326,0.09526 -0.237368,0.140161 0,0.03676 -0.294358,0.288568 -0.337582,0.288808 -0.02364,1.27e-4 -0.114766,0.06635 -0.202532,0.147092 -0.09327,0.0858 -0.188077,0.152145 -0.22816,0.159602 -0.131218,0.09602 -0.264141,0.187073 -0.410289,0.271536 -0.06024,0.09514 -0.157235,0.188341 -0.196929,0.235876 -0.12133,0.02167 -0.22232,0.03742 -0.324963,0.06307 -0.06423,0.05844 -0.138968,0.103334 -0.208091,0.154762 -0.01835,0.02351 -0.07978,0.0453 -0.154082,0.05462 -0.132773,0.01668 -0.196012,0.05658 -0.196012,0.12346 0,0.02312 -0.0108,0.04763 -0.02278,0.0548 -0.07989,-0.0058 -0.04696,-0.131487 -0.06736,-0.188945 -0.02774,4.41e-4 -0.106227,0.148293 -0.106227,0.199424 0,0.02657 -0.02245,0.04521 -0.06337,0.05236 -0.07416,0.01298 -0.100181,-0.02608 -0.06132,-0.09221 0.01457,-0.0248 0.02656,-0.06416 0.02656,-0.08737 0,-0.03795 -0.0176,-0.04175 -0.169854,-0.03675 -0.09176,0.02171 -0.265512,0.03164 -0.312083,0.03807 -0.01188,-0.04139 -0.04048,-0.04576 -0.388461,-0.05894 -0.20658,-0.0084 -0.405798,-0.02458 -0.442686,-0.03747 -0.09619,-0.03336 -0.855889,-0.003 -0.982357,0.03834 -0.05409,0.01795 -0.179473,0.03587 -0.278801,0.0398 -0.09932,0.003 -0.192687,0.01827 -0.207455,0.03164 -0.01738,0.01592 -0.179462,0.02454 -0.460833,0.02454 -0.34733,0 -0.439835,-0.0068 -0.463261,-0.03221 -0.01609,-0.01765 -0.09208,-0.03843 -0.168721,-0.04591 -0.292803,-0.02894 -0.31624,-0.03507 -0.343315,-0.08919 -0.03109,-0.06231 -0.279254,-0.129672 -0.495809,-0.134641 -0.144356,-0.003 -0.180056,-0.0124 -0.328093,-0.08373 -0.110858,-0.05346 -0.413323,-0.06778 -0.508808,-0.02418 -0.0326,0.01496 -0.191747,0.05835 -0.353775,0.09658 -0.438486,0.103495 -0.483395,0.117009 -0.575533,0.173497 -0.117465,0.07199 -0.162719,0.05928 -0.153057,-0.04311 0.123315,-0.168029 0.298168,-0.268823 0.461027,-0.388691 0.07935,-0.05513 0.157083,-0.168493 0.157083,-0.228762 0,-0.01739 -0.01166,-0.05152 -0.0258,-0.07563 -0.02559,-0.04359 -0.02645,-0.04359 -0.09586,0.0014 -0.03865,0.02501 -0.10601,0.04544 -0.149861,0.04544 -0.04728,0 -0.112563,0.02285 -0.160236,0.05598 -0.186727,0.04662 -0.282827,0.120106 -0.43854,0.202403 -0.05085,0.02598 -0.104391,0.06661 -0.118889,0.0902 -0.07384,0.120287 -0.194922,0.136873 -0.171161,0.02347 0.0774,-0.207742 0.02774,-0.267808 0.189783,-0.40725 0.02904,-0.06349 0.09079,-0.08331 0.138483,-0.127237 0.02515,-0.04386 0.07837,-0.104359 0.260805,-0.296193 0.0272,-0.02877 0.0421,-0.08356 0.04275,-0.15684 l 4.42e-4,-0.112724 c -0.28069,-0.02042 -0.460109,0.177785 -0.650593,0.325192 0,0.04466 -0.0394,0.07656 -0.09597,0.07749 -0.01889,2.43e-4 -0.05776,0.03587 -0.08593,0.079 -0.06855,0.104618 -0.189999,0.224058 -0.227837,0.224058 -0.0312,-0.186685 0.06564,-0.411079 0.181751,-0.600716 0.02893,-0.003 0.0936,-0.05421 0.143665,-0.112023 0.153618,-0.16893 0.361645,-0.366718 0.484442,-0.500917 0.168851,-0.105612 0.297067,-0.152789 0.419746,-0.283239 0.06099,-0.03279 0.08625,-0.06533 0.09899,-0.127056 0.02936,-0.142384 0.08723,-0.147252 0.160452,-0.213151 2.077278,-1.869079 0.135784,-0.05818 0.192503,-0.102545 0.05678,-0.04438 0.142402,-0.09049 0.190333,-0.102545 0.04793,-0.01205 0.09403,-0.03822 0.10234,-0.0581 0.03832,-0.09111 0.169919,-0.17055 0.343012,-0.207023 0.07017,-0.01488 0.14061,-0.04112 0.156436,-0.05851 0.141085,-0.0484 0.27512,-0.120437 0.409177,-0.189346 0.05031,-0.04956 0.123996,-0.05716 0.187613,-0.08645 0.119904,-0.05691 0.25395,-0.06997 0.38343,-0.09291 0.06078,-0.01266 0.193334,-0.03194 0.294605,-0.04311 0.101261,-0.01116 0.218747,-0.03159 0.261054,-0.04539 0.04232,-0.01381 0.18594,-0.02846 0.319165,-0.03257 0.24498,-0.0076 0.315095,-0.01315 0.647291,-0.05269 0.231625,-0.02763 0.263353,-0.0398 0.308413,-0.119324 0.0326,-0.05758 0.04923,-0.0645 0.15487,-0.0645 0.114604,0 0.199574,-0.04438 0.199574,-0.104121 0,-0.04438 0.158973,-0.20956 0.201658,-0.20956 0.02688,0 0.04372,-0.01668 0.04372,-0.04311 0.09478,-0.086 0.100397,-0.193437 0.130991,-0.316905 l 4.42e-4,-0.397979 c -0.08939,-0.08161 -0.09025,-0.08179 -0.114636,-0.03173 -0.05236,0.114865 -0.07524,-0.02246 -0.131282,-0.03927 -0.07816,-0.05227 -0.04124,-0.1543 -0.05387,-0.201662 -0.02494,0 -0.0651,-0.01994 -0.08917,-0.04429 -0.02407,-0.02435 -0.05246,-0.03958 -0.06283,-0.03362 -0.01792,0.01004 -0.112067,-0.112292 -0.151189,-0.196548 -0.0097,-0.02153 -0.03109,-0.03918 -0.04707,-0.03918 -0.01576,0 -0.04091,-0.01482 -0.05603,-0.03261 -0.258592,-0.177891 -0.509952,-0.158388 -0.757964,-0.272753 -0.05711,-0.0084 -0.134867,-0.02877 -0.172597,-0.04615 -0.05592,-0.02582 -0.08388,-0.02661 -0.151837,-0.0036 -0.08971,0.02948 -0.160095,0.0022 -0.160095,-0.06164 0,-0.03813 -0.223551,-0.04319 -0.298255,-0.0068 -0.03757,0.01839 -0.05937,0.01646 -0.09047,-0.0076 -0.02245,-0.01756 -0.05937,-0.0379 -0.08204,-0.0453 -0.04426,-0.01426 -0.194608,0.01531 -0.283864,0.05598 -0.04113,0.01867 -0.08852,0.01761 -0.18921,-0.0036 -0.08939,-0.01959 -0.213695,-0.02506 -0.371329,-0.01646 -0.219772,0.012 -0.23794,0.0098 -0.249405,-0.03027 -0.0624,-0.05287 -0.175749,-0.06796 -0.262004,-0.08966 -0.07514,-0.03675 -0.119289,-0.04342 -0.210941,-0.03194 -0.202068,-0.06468 -0.32126,-0.133404 -0.566671,-0.104963 -0.01932,-0.01716 -0.08831,-0.04951 -0.153402,-0.072 -0.09781,-0.04462 -0.177541,-0.10193 -0.267218,-0.158142 l -0.423254,-0.06814 -0.03973,-0.09837 c -0.0421,-0.104423 -0.101369,-0.145495 -0.245109,-0.170103 -0.06898,-0.01183 -0.09532,-0.0058 -0.132189,0.03164 -0.204853,0.09383 -0.370001,-0.03103 -0.556642,-0.1131 -0.07114,-0.06948 -0.07557,-0.08355 -0.06315,-0.19424 0.0108,-0.09351 0.0065,-0.122145 -0.02343,-0.132267 -0.05365,-0.01879 -0.09489,0.02983 -0.09489,0.111886 0,0.06375 -0.0086,0.07192 -0.0719,0.07394 -0.10763,0.003 -0.265383,-0.03384 -0.314394,-0.07427 -0.02386,-0.01968 -0.04329,-0.05751 -0.04329,-0.08406 0,-0.02665 -0.01565,-0.06788 -0.03487,-0.09176 -0.03422,-0.04267 -0.03616,-0.04232 -0.09835,0.01095 -0.06078,0.0521 -0.06693,0.05295 -0.143255,0.01972 -0.104175,-0.02202 -0.19885,-0.07436 -0.295264,-0.110491 -0.02418,-0.0233 -0.05279,-0.04215 -0.06348,-0.04215 -0.0108,0 -0.04037,-0.05556 -0.06564,-0.123454 -0.07125,-0.191266 -0.27838,-0.303563 -0.330251,-0.179035 -0.01414,0.03433 -0.04264,0.05598 -0.07298,0.05598 -0.06682,-0.02181 -0.05851,-0.130829 -0.08777,-0.196045 -0.02094,-0.02153 -0.05754,-0.06324 -0.0814,-0.09247 -0.170707,-0.03137 -0.199617,-0.16387 -0.282396,-0.266798 -0.126316,0.01474 -0.367658,-0.04855 -0.413959,-0.05269 -0.02526,-0.09295 -0.06866,-0.177833 -0.107198,-0.267312 -0.03001,-0.05818 -0.111398,-0.111145 -0.139196,-0.138877 -0.01662,0.01179 -0.07805,0.01668 -0.13627,0.01121 -0.114862,-0.01102 -0.151793,-0.05571 -0.151793,-0.183504 -0.01457,-0.05624 -0.04826,-0.0969 -0.07373,-0.147886 0,-0.03371 -0.02353,-0.07631 -0.05516,-0.100073 -0.03508,-0.249034 -0.151168,-0.29768 -0.362487,-0.39197 -0.03174,-0.0349 -0.06844,-0.163631 -0.08615,-0.302071 0.01328,-0.107273 0.01166,-0.26336 0.01242,-0.283542 -0.07978,-0.214828 -0.217095,-0.0068 -0.271288,-0.0076 -0.0557,0 -0.08949,-0.06239 -0.106118,-0.196587 0.01101,-0.119188 0.02612,-0.163639 0.03422,-0.21324 -0.04091,-0.06206 -0.08399,-0.124928 -0.124395,-0.184903 -0.06099,-0.01739 -0.08723,-0.04714 -0.137857,-0.155886 -0.03433,-0.07394 -0.07503,-0.158649 -0.09025,-0.188243 -0.03433,-0.06652 -0.02774,-0.248712 0.01306,-0.351526 0.04502,-0.11358 -0.0065,-0.150949 -0.224198,-0.16217 -0.175382,-0.0092 -0.217721,0.0058 -0.252407,0.08964 -0.09133,0.06315 -0.189275,0.130692 -0.267466,0.182613 -0.09467,0.02097 -0.203989,0.07993 -0.290503,0.127334 -0.05354,7.5e-5 -0.111862,0.01928 -0.152852,0.05041 -0.05797,0.04395 -0.0679,0.07134 -0.08032,0.216903 -0.0076,0.09161 -0.01857,0.17081 -0.02429,0.175981 -0.08917,-0.02837 -0.162244,-0.05986 -0.245832,-0.09067 -0.137695,0.0084 -0.258549,0.117278 -0.258549,0.234234 -0.08431,0.104661 -0.173309,0.162637 -0.268244,0.30996 -0.05776,0.180733 -0.246728,0.156787 -0.417424,0.305675 -0.08453,0.09216 -0.167534,0.157864 -0.226876,0.179525 -0.0773,0.0282 -0.09867,0.05032 -0.122527,0.127047 -0.09122,0.206078 -0.296355,0.227138 -0.487044,0.332618 -0.02904,-0.121352 -0.15934,-0.05717 -0.256434,-0.07125 -0.08334,-0.02894 -0.15311,0.02554 -0.173449,0.135414 -0.0097,0.05027 -0.02947,0.09536 -0.04523,0.100278 -0.02915,0.0093 -0.151999,0.02771 -0.206268,0.03093 -0.01684,8.82e-4 -0.06456,0.0699 -0.105794,0.153094 -0.04383,0.147256 -0.147692,0.209568 -0.233299,0.303518 -0.0312,0.129589 -0.07708,0.169654 -0.202942,0.177061 -0.109692,0.0068 -0.115575,0.01026 -0.137015,0.08946 -0.01986,0.07318 -0.02969,0.08154 -0.08593,0.07217 -0.100613,-0.01668 -0.130613,0.01861 -0.146817,0.17279 l -0.0149,0.141883 -0.217375,0.02361 c -0.240316,0.02608 -0.301461,0.06349 -0.274041,0.167787 0.04091,0.155724 0.04113,0.268876 4.43e-4,0.37999 -0.108094,0.124105 -0.239798,0.230762 -0.36945,0.337008 -0.0076,0 -0.05473,-0.02554 -0.106335,-0.05665 -0.105686,0.01588 -0.13926,-0.087 -0.175176,-0.109471 0,-0.06441 -0.01231,-0.08645 -0.05981,-0.106173 -0.0964,-0.04002 -0.144745,-0.0097 -0.126425,0.07951 0.01188,0.05742 0.0065,0.07884 -0.02332,0.0892 0.01403,0.01452 0.08766,0.114556 0.1265,0.165192 -0.0065,0.05851 -0.01123,0.113995 -0.01263,0.123244 -0.0353,0.01416 -0.07784,0.0282 -0.114518,0.04152 -0.144658,-0.07056 -0.307873,0.08664 -0.339708,0.09618 0.0217,0.05168 -0.03714,0.211205 -0.09867,0.267397 -0.03703,0.03371 -0.06359,0.09198 -0.07449,0.16265 -0.0097,0.06054 -0.03174,0.128578 -0.0502,0.151228 -0.10763,0.04165 -0.214817,-0.09662 -0.303663,-0.186822 -0.05074,0 -0.07708,0.04108 -0.07708,0.120693 0,0.06923 -0.144582,0.20637 -0.237206,0.224945 -0.09263,0.01854 -0.161218,0.08245 -0.165083,0.152123 -0.03411,0.07201 -0.114625,0.113003 -0.172543,0.170095 -0.05408,0.09456 -0.164478,0.176907 -0.277894,0.207358 -0.09187,0.02471 -0.105795,0.03737 -0.119839,0.108489 -0.02235,0.113222 -0.06423,0.179916 -0.132546,0.210989 -0.04815,0.02197 -0.06013,0.04668 -0.06639,0.138616 0.01555,0.109134 -0.08669,0.164377 -0.130009,0.246439 -0.04642,0.01338 -0.04923,0.02608 -0.03433,0.147345 0.01241,0.100105 0.0097,0.132633 -0.01468,0.132633 -0.04426,0.06576 -0.108472,0.02587 -0.151751,0.03609 -0.10872,-0.04046 -0.148404,0.105157 -0.200103,0.186764 -0.124049,0.04329 -0.227123,0.225753 -0.254144,0.449839 l -0.01965,0.163965 -0.140102,0.0014 c -0.114442,-0.03084 -0.178858,0.0667 -0.271547,0.101217 -0.08982,0.165939 -0.205878,0.274242 -0.319867,0.407365 -0.1455,0.07386 -0.140696,0.172076 -0.217699,0.275857 -0.05927,0.08347 -0.152614,0.130859 -0.226228,0.193074 -0.04275,0.13063 -0.128918,0.232567 -0.197588,0.347845 -0.06175,0.06847 -0.102016,0.137681 -0.140264,0.189206 -0.144874,0.01425 -0.182809,0.131963 -0.25367,0.249528 -0.0299,0.07495 -0.09079,0.121102 -0.134942,0.179955 -0.10547,0.08946 -0.142304,0.237848 -0.195385,0.365601 -0.177724,0.198154 -0.181298,0.398174 -0.221629,0.488359 -0.22585,0.331101 -0.157893,0.359438 0.121696,0.443238 0,0.06433 -0.053,0.08103 -0.18948,0.05986 -0.119796,-0.01866 -0.129102,-0.0248 -0.143481,-0.09469 -0.02397,-0.117353 -0.132665,-0.124811 -0.169855,-0.01165 0.02882,0.162956 -0.183186,0.112668 -0.200383,0.12324 -0.06758,-0.06163 -0.183705,-0.04183 -0.269421,0.04619 -0.0679,0.06964 -0.09608,0.08145 -0.221585,0.09258 -0.07913,0.0076 -0.160355,0.02564 -0.180618,0.04112 -0.02029,0.01566 -0.119666,0.04072 -0.220938,0.05581 -0.10126,0.01509 -0.233849,0.03675 -0.294605,0.0483 -0.227912,0.04319 -0.275401,0.0453 -0.384639,0.01739 -0.155065,-0.03966 -0.457368,-0.03989 -0.509423,-4.42e-4 -0.116817,-0.01889 -0.21676,0.02587 -0.323224,0.04002 -0.0393,0.0022 -0.148933,0.01359 -0.243458,0.024 -0.09446,0.01058 -0.26929,0.01632 -0.388385,0.01266 -0.239247,-0.06433 -0.337062,-0.07107 -0.55812,-0.05623 -0.141074,-0.0014 -0.345854,0.04395 -0.377779,0.08389 -0.128594,0.0092 -0.283266,0.0092 -0.42896,0.02444 -0.08898,0.0036 -0.222422,0.01368 -0.296694,0.02042 -0.224505,-0.01182 -0.410119,0.06906 -0.613185,0.132736 -0.06389,0.0633 -0.165842,0.07899 -0.245241,0.120913 -0.142445,0.02886 -0.152208,0.02785 -0.279197,-0.02894 -0.07237,-0.03234 -0.144303,-0.05877 -0.159842,-0.05877 0.0212,0.05006 0.0064,0.121805 0.0081,0.16093 -1.388865,-0.505202 -0.17447,-0.04152 -1.749183,-0.04213 -0.177078,-0.143275 -0.348308,-0.02674 -0.551518,0.01566 -0.105762,0.05253 -0.242498,-0.01183 -0.338337,-0.03336 -0.01191,-0.0285 -0.03104,-0.05716 -0.04268,-0.06375 -0.01174,-0.0068 -0.136536,-0.01725 -0.277709,-0.02378 -0.219532,-0.01015 -0.26263,-0.01854 -0.297667,-0.05776 -0.05207,-0.07706 -0.127549,-0.154527 -0.23704,-0.205106 -0.05252,-0.09531 -0.06641,-0.105061 -0.171852,-0.12038 -0.148735,-0.03207 -0.335504,8.82e-4 -0.465506,0.01438 -0.06931,-0.01487 -0.124245,-0.0651 -0.185912,-0.0973 l -0.06145,-0.07176 c -9.02e-4,0.07749 -0.08364,0.104747 -0.126148,0.157929 0,0.05809 -0.01426,0.06964 -0.141165,0.113519 -0.235559,0.08161 -0.25163,0.08339 -0.25163,0.02767 0.04999,-0.100646 0.138764,-0.186575 0.21448,-0.271589 0.04782,-0.07623 0.04855,-0.08435 0.01058,-0.11223 -0.114356,-0.08382 -0.3397,-0.152873 -0.498803,-0.152873 h -0.119083 c -0.106637,0.114705 -0.208669,0.222382 -0.381199,0.291287 -0.136526,0.06688 -0.16366,0.07344 -0.183719,0.04484 0.144927,-0.195091 0.238104,-0.289574 0.286641,-0.526733 -0.02716,-0.153174 -0.159319,-0.164223 -0.234909,-0.242154 -0.155511,0.228734 -0.179685,0.331972 -0.345213,0.4428 -0.02211,0.03636 -0.10424,0.105924 -0.182474,0.154691 -0.11449,0.07133 -0.146506,0.08254 -0.164056,0.05715 -0.03267,-0.0472 -0.02689,-0.08744 0.01254,-0.08744 0.191913,-0.147309 0.26116,-0.373539 0.365931,-0.578161 -0.238906,-0.09809 -0.461255,0.02587 -0.694738,0.206815 -0.04377,0.116934 -0.24165,0.217022 -0.336876,0.297561 -0.04006,-0.178085 0.06921,-0.288114 0.164066,-0.418942 0.07986,-0.07597 0.145486,-0.175174 0.223169,-0.259716 0.05306,-0.04382 0.05803,-0.09518 0.02112,-0.216641 -0.02039,-0.06727 -0.03736,-0.08405 -0.08455,-0.08405 -0.198211,0.0806 -0.28185,0.280176 -0.389537,0.460997 0.01371,0.05294 -0.04764,0.111392 -0.09131,0.08681 -0.04927,-0.02785 -0.0094,-0.250397 0.0619,-0.344188 0.04918,-0.10777 0.101433,-0.212184 0.145992,-0.320774 0.151505,-0.198362 0.160456,-0.274454 0.421669,-0.314183 0.238889,-0.494546 0.766314,-0.508224 1.141945,-0.800914 0.112028,-4.41e-4 0.201406,-0.07176 0.296071,-0.124012 0.105687,-0.02122 0.221563,-0.07867 0.297371,-0.147445 0.203372,-0.251531 0.385683,-0.341059 0.644884,-0.431876 0.171149,-0.101099 0.400607,-0.06636 0.613319,-0.116652 0.03267,-0.01959 0.129082,-0.04104 0.213957,-0.04773 0.08491,-0.0068 0.168153,-0.0222 0.185054,-0.03433 0.417709,-0.02683 0.834027,-0.07891 1.250941,-0.122065 0.226751,-0.0058 0.439906,-0.0092 0.473653,-0.0084 0.762614,0.02197 0.880841,0.01932 0.920418,-0.0207 0.02329,-0.02334 0.05973,-0.03534 0.08744,-0.02886 0.0277,0.0068 0.138791,-8.82e-4 0.250232,-0.01581 0.111449,-0.01488 0.286226,-0.02678 0.388399,-0.02612 0.183629,8.82e-4 0.186236,1.76e-4 0.230551,-0.07066 0.02464,-0.03953 0.07183,-0.09831 0.10492,-0.13096 0.05053,-0.04982 0.05559,-0.06695 0.03213,-0.106949 -0.02219,-0.03777 -0.02012,-0.05472 0.01004,-0.08221 0.02093,-0.01905 0.04476,-0.05945 0.05315,-0.08966 0.05045,-0.05607 0.08581,-0.139962 0.115455,-0.188296 0.04061,0 0.0527,-0.03997 0.101315,-0.335685 0.0259,-0.15725 0.0277,-0.216548 0.0072,-0.228193 -0.03609,-0.02034 -0.06695,-0.0022 -0.06695,0.03873 0,0.04099 -0.07111,0.04209 -0.08861,4.42e-4 0.03023,-0.08077 0.01015,-0.163967 0.01516,-0.247238 -0.02246,-0.09896 -0.02066,-0.134744 0.01083,-0.203317 0.04764,-0.10424 0.05008,-0.09592 -0.02942,-0.104262 -0.0637,-0.0068 -0.06768,-0.01377 -0.07002,-0.124726 0.08933,-0.141661 -0.02066,-0.143153 -0.03429,-0.238016 0,-0.06745 0.01004,-0.08272 0.06227,-0.09468 0.01814,-0.0199 -0.0036,-0.05354 -0.0064,-0.08036 -0.05242,-0.0092 -0.09967,-0.144325 -0.06235,-0.178367 0.02076,-0.06349 -9.03e-4,-0.138926 -0.0018,-0.207699 0.0081,-0.0241 0.0166,-0.170574 0.01832,-0.325394 0.0018,-0.254187 -9.02e-4,-0.285046 -0.04511,-0.318008 -0.03745,-0.02837 -0.05035,-0.07218 -0.05811,-0.196305 -0.0064,-0.09865 4.43e-4,-0.171423 0.01778,-0.190188 0.02671,-0.02926 0.05451,-0.255806 0.05658,-0.459069 -0.03691,-0.15175 -0.101423,-0.270108 -0.142122,-0.403117 -0.06569,-0.02727 -0.07408,-0.09093 -0.03565,-0.272039 0.01182,-0.05549 0.01254,-0.110929 9.02e-4,-0.123243 -0.02599,-0.02978 -0.07877,-0.229284 -0.08293,-0.313693 -9.03e-4,-0.03703 -0.01751,-0.07739 -0.03501,-0.08982 -0.04322,-0.135793 -0.0098,-0.326741 0.0064,-0.45103 -0.03059,-0.04267 -0.03609,-0.07935 -0.02219,-0.149896 0.0314,-0.160395 0.02544,-0.29129 -0.01832,-0.395939 -0.0231,-0.0554 -0.04078,-0.120991 -0.03934,-0.145646 -0.127882,-0.281867 -0.09373,-0.45629 -0.148437,-0.690352 0.01625,-0.02697 0.02662,-0.06677 0.0231,-0.08847 0.04828,-0.04179 0.101023,-0.124871 0.111106,-0.137341 -0.03366,-0.04707 -0.03411,-0.06669 -0.0018,-0.173422 0.01931,-0.06627 0.03528,-0.153421 0.03546,-0.193777 2.17e-4,-0.05751 0.01354,-0.07791 0.06163,-0.09468 0.03384,-0.01173 0.06136,-0.03049 0.06136,-0.04192 0,-0.03332 -0.06533,-0.04638 -0.09522,-0.01915 -0.04575,0.04175 -0.09057,-0.01615 -0.06064,-0.07842 0.01768,-0.259641 0.07507,-0.413245 0.05774,-0.700328 -0.024,-0.09717 -0.01525,-0.12372 0.04006,-0.12372 0.08536,0 0.0081,-0.05691 -0.09138,-0.06778 -0.132628,-0.01429 -0.169877,-0.0341 -0.169877,-0.08956 0,-0.03866 0.04412,-0.148287 0.101185,-0.251199 0.01191,-0.02141 0.02157,-0.06677 0.02166,-0.100829 0.08175,-0.09037 4.42e-4,-0.226044 4.42e-4,-0.252369 -0.02797,0 -0.04981,-0.01478 -0.04981,-0.03357 0.0665,-0.02153 0.124695,-0.08791 0.171852,-0.121167 0,-0.03323 -0.013,-0.07226 -0.02896,-0.0868 -0.02157,-0.01972 -0.02211,-0.03927 -9.02e-4,-0.07732 0.02356,-0.04373 0.04304,-0.130943 0.05902,-0.263735 9.01e-4,-0.01845 0.02147,-0.04544 0.04296,-0.06003 -0.01967,-0.08153 0.04494,-0.341857 0.07399,-0.540783 -0.02265,-0.09171 8.84e-4,-0.145014 0.08861,-0.197196 0.03329,-0.0199 0.06045,-0.04763 0.06045,-0.06154 -9e-6,-0.03966 -0.15192,-0.140545 -0.233466,-0.155159 l -0.183881,-0.03596 c -0.263938,-0.0634 -0.504487,0.06552 -0.56555,0.304061 -0.04629,0.203696 -0.192291,0.368288 -0.235486,0.265566 -0.0072,-0.01818 0.0036,-0.09631 0.0277,-0.173651 0.08997,-0.304829 0.09625,-0.437726 0.0194,-0.410811 -0.01967,0.0068 -0.06786,0.01262 -0.107306,0.01262 -0.07562,0.05117 -0.141525,0.171202 -0.206674,0.268863 -0.02021,0.01526 -0.03673,0.06172 -0.03673,0.103064 0,0.09561 -0.09809,0.167593 -0.16218,0.119029 -0.04322,-0.12019 0.03122,-0.319769 0.0517,-0.393236 -0.03898,-0.06375 -0.114047,-0.07066 -0.175399,-0.108576 -0.227194,-0.08195 -0.17705,0.01668 -0.179234,0.314236 -0.04124,0.08305 -0.07499,0.187771 -0.07499,0.232798 0,0.07159 -0.01058,0.08627 -0.08463,0.116865 -0.103334,0.04275 -0.136662,0.02021 -0.135534,-0.09177 4.33e-4,-0.07597 0.07273,-0.299675 0.106054,-0.330182 0.03348,-0.03049 0.01273,-0.07411 -0.04494,-0.08737 -0.09656,-0.0222 -0.225767,0.10247 -0.246089,0.237328 -0.01958,0.129752 -0.09363,0.246279 -0.156557,0.246279 -0.06587,0 -0.08121,-0.05463 -0.04259,-0.151916 0.05099,-0.128356 0.09084,-0.348038 0.06714,-0.369699 -0.1557,0.01095 -0.276742,0.147931 -0.383463,0.230325 -0.0684,0 -0.07968,-0.04104 -0.03086,-0.112407 0.03853,-0.05632 0.0036,-0.112327 -0.086,-0.139737 -0.07805,-0.02378 -0.182897,0.03044 -0.216952,0.112248 -0.02762,0.06627 -0.07273,0.05607 -0.11672,-0.02643 -0.0241,-0.0453 -0.0259,-0.0689 -0.0064,-0.08682 0.01497,-0.01359 0.02698,-0.03556 0.02698,-0.04879 0,-0.02661 -0.134449,-0.086 -0.201999,-0.08929 -0.02337,-8.83e-4 -0.0573,-0.0207 -0.07553,-0.04346 -0.02869,-0.0356 -0.04124,-0.03747 -0.09261,-0.01323 -0.09564,0.0453 -0.145351,0.09336 -0.145351,0.140674 0,0.03666 -0.01201,0.04201 -0.07093,0.03124 -0.09093,0.04562 -0.167278,0.01845 -0.252144,0.02788 -0.07417,-0.0645 -0.156694,-0.114043 -0.231526,-0.172199 -0.08076,-0.02255 -0.103312,-0.02034 -0.171059,0.01795 -0.125815,0.07099 -0.141579,0.0607 -0.122404,-0.07936 0.01408,-0.102729 0.01015,-0.125662 -0.02329,-0.137381 -0.02563,-0.0092 -0.05351,0.003 -0.0767,0.03362 -0.02021,0.02621 -0.0619,0.04773 -0.09284,0.04773 -0.05838,0 -0.118542,0.04916 -0.145839,0.119144 -0.01118,0.02873 -0.03565,0.03862 -0.08356,0.03357 -0.06028,-0.0068 -0.06678,-0.01504 -0.06001,-0.07992 l 0.0072,-0.07286 H 60.92227 c -0.149574,0 -0.197976,0.0077 -0.197976,0.03023 0,0.05683 -0.07598,0.169124 -0.123676,0.182958 -0.07273,0.02108 -0.09542,-0.0036 -0.08022,-0.09029 0.01137,-0.06382 0.0064,-0.07808 -0.02851,-0.07808 -0.168912,-0.09315 -0.254032,-0.01615 -0.390359,0.02948 -0.01778,0.06484 -0.111919,0.104985 -0.261591,0.111445 -0.08734,0.003 -0.109916,-0.003 -0.117361,-0.03627 -0.0054,-0.02251 0.0081,-0.05842 0.0296,-0.07993 0.03654,-0.03684 0.03149,-0.03807 -0.08997,-0.02241 -0.07074,0.0092 -0.187717,0.01747 -0.259869,0.0184 -0.107554,0.0014 -0.133395,0.0094 -0.143448,0.04438 -0.02517,0.08799 -0.179549,0.0709 -0.179549,-0.01994 0,-0.03411 -0.03998,-0.04086 -0.32529,-0.05556 -0.453584,-0.02334 -0.48689,-0.02299 -0.505638,0.0036 -0.02797,0.04139 -0.184746,-4.41e-4 -0.212133,-0.05674 -0.03122,-0.06417 -0.126203,-0.06652 -0.148031,-0.003 -0.01272,0.03659 -0.0231,0.04064 -0.05053,0.0199 -0.02689,-0.02043 -0.0378,-0.01818 -0.04963,0.0099 -0.0213,0.05066 -0.0591,0.04517 -0.0591,-0.0084 0,-0.06054 -0.03998,-0.05699 -0.05774,0.0051 -0.0092,0.03044 -0.02238,0.04148 -0.03519,0.02797 -0.02004,-0.02118 -0.08465,-0.158676 -0.112956,-0.240478 -0.0072,-0.02153 -0.02942,-0.03918 -0.0489,-0.03918 -0.02428,0 -0.03998,0.03676 -0.05062,0.117626 -0.0081,0.06468 -0.02725,0.180792 -0.04196,0.257973 -0.02544,0.133749 -0.02327,0.146356 0.04376,0.268872 0.03871,0.07074 0.07904,0.134399 0.08969,0.141559 0.02174,0.183341 0.08103,0.348922 0.152317,0.518867 0.0222,0.07074 0.05902,0.138198 0.08167,0.149948 0.03808,0.01968 0.03772,0.02384 -0.0054,0.05286 0.0064,0.07337 0.01254,0.123799 0.02219,0.217567 -0.02031,0.01536 -0.03681,0.04231 -0.03681,0.06011 0,0.0479 0.15395,0.253572 0.189873,0.253572 0.01696,0 0.03104,0.01867 0.03104,0.04179 0.181905,0.194468 0.245855,0.367074 0.315845,0.601568 -0.0054,0.163089 0.02608,0.245301 0.136743,0.354341 0.06262,0.07774 0.09639,0.173885 0.141209,0.262562 0.02617,0.03371 0.04223,0.06931 0.03565,0.079 -0.02174,0.03221 0.085,0.284245 0.154311,0.364004 0.110566,0.127246 0.146786,0.276153 0.08293,0.340636 -0.04214,0.04263 -0.03004,0.201122 0.01652,0.215282 0.0859,0.19244 0.227294,0.359631 0.348661,0.526408 0.06569,0.03675 0.222809,0.256794 0.20357,0.285214 -0.0092,0.01279 9.03e-4,0.04773 0.02327,0.07758 0.03122,0.07623 0.05865,0.152896 0.08807,0.230003 0.06227,0.09317 0.06217,0.153998 -9e-5,0.189508 -0.05594,0.03194 -0.06695,0.129241 -0.0147,0.129241 0.03664,0 0.08834,0.110249 0.08816,0.18819 -2.43e-4,0.116929 0.08943,0.270244 0.238664,0.407889 0.158615,0.146277 0.169569,0.167549 0.186064,0.361237 0.06732,0.137721 0.08238,0.286208 0.116638,0.418154 -0.05892,0.235817 -0.05919,0.228126 0.01101,0.278556 0.04538,0.03257 0.07002,0.07546 0.07914,0.137955 0.01147,0.07766 0.0027,0.09855 -0.05134,0.145358 -0.05035,0.04249 -0.0647,0.07605 -0.06506,0.150968 -4.43e-4,0.127117 -0.05811,0.275481 -0.107285,0.275798 -0.02103,1.37e-4 -0.0572,0.01742 -0.08022,0.03834 -0.03681,0.03357 -0.0379,0.0485 -0.0096,0.126722 -0.0081,0.136317 0.06227,0.228841 0.09921,0.348723 0,0.04352 -0.01552,0.05952 -0.06759,0.06974 -0.03727,0.0076 -0.106194,0.02587 -0.153445,0.04112 -0.08121,0.02647 -0.08536,0.03296 -0.07662,0.116078 -0.0027,0.211289 -0.112053,0.268235 -0.228159,0.427852 0.0027,0.08424 0.0194,0.201476 0.03519,0.260495 0.03194,0.119771 0.0018,0.183791 -0.07372,0.161677 -0.05577,-0.01615 -0.17225,0.0699 -0.17225,0.127359 -0.10193,0.07116 -0.155304,0.187472 -0.221221,0.287039 -0.01147,0 -0.01147,0.02996 3.6e-5,0.06653 0.01967,0.06256 0.03285,0.179158 0.02725,0.241621 -0.06921,0.02621 -0.142274,0.07124 -0.213208,0.106745 -0.0841,0.07235 -0.08915,0.08348 -0.06208,0.137505 0.01805,0.03636 0.023,0.09701 0.0129,0.158693 -0.01362,0.08305 -0.02806,0.103625 -0.085,0.121738 -0.08428,0.02683 -0.101714,0.06045 -0.119715,0.231256 -0.01399,0.132409 -0.01525,0.134333 -0.100062,0.148302 -0.141435,0.02334 -0.270061,0.08398 -0.270061,0.127379 0,0.02175 -0.01859,0.06383 -0.04142,0.09355 -0.03916,0.05101 -0.04565,0.200285 -0.02355,0.538506 -0.167377,0.15425 -0.201215,0.353595 -0.24164,0.560931 0.02346,0.08077 -0.09039,0.08955 -0.143295,0.14189 -0.05747,0.01315 -0.114472,0.09567 -0.114923,0.166468 -1.26e-4,0.02096 -0.02752,0.09149 -0.06072,0.156677 -0.04638,0.09103 -0.08058,0.12619 -0.147057,0.15154 -0.07408,0.07276 -0.162721,0.06956 -0.254661,0.108881 -0.08789,0.04267 -0.430955,0.147614 -0.482543,0.147614 -0.04917,0.04648 -0.110149,0.07631 -0.168143,0.116453 -0.07517,0.273918 -0.166962,0.09721 -0.256874,0.159703 -0.09656,0.03332 -0.208235,-0.03274 -0.304896,-0.06796 -0.06578,-0.09038 -0.07093,0.05117 -0.09212,0.06636 -0.02211,0.04604 -0.107673,0.01526 -0.17401,0.0248 -0.2348,-0.05902 -0.187085,0.119582 -0.29617,0.174856 0.01026,0.06721 -0.04764,0.06923 -0.120347,0.0036 -0.03917,-0.03512 -0.07174,-0.08271 -0.07201,-0.105806 -4.42e-4,-0.0349 -0.0072,-0.03729 -0.0378,-0.01389 -0.02066,0.01575 -0.09918,0.02757 -0.177999,0.02687 -0.09824,-8.82e-4 -0.154572,0.01004 -0.186074,0.03596 -0.04214,0.03464 -0.04728,0.03455 -0.07633,-0.0014 -0.02608,-0.03247 -0.072,-0.03887 -0.278078,-0.03887 -0.113687,-0.0022 -0.228792,0.0199 -0.321093,0.02797 -0.07643,-0.04112 -0.344969,-0.03703 -0.362917,0.005 -0.02329,0.05548 -0.124317,0.03826 -0.248183,-0.04209 -0.133649,-0.08673 -0.213298,-0.114145 -0.257618,-0.08864 -0.04329,0.02484 -0.318546,0.0084 -0.3585,-0.02153 -0.02528,-0.01888 -0.04338,-0.01205 -0.07741,0.02907 -0.04329,0.05253 -0.05242,0.05371 -0.378215,0.05002 -0.183562,-0.0014 -0.333761,0.003 -0.333761,0.01266 -0.14892,0.08463 -0.329953,0.121608 -0.4968,0.163045 -0.158768,-8.82e-4 -0.287898,0.01368 -0.447707,0.03521 -0.211669,0.103582 -0.250464,0.110775 -0.491149,0.02034 -0.189849,0.02608 -0.361104,-0.0099 -0.552118,-0.03477 -0.143916,-0.06745 -0.36775,0.0109 -0.435234,0.02153 -0.373984,-0.175217 -0.7269,-0.04275 -1.048062,0.06981 -0.05563,0.0859 -0.133074,0.125207 -0.153067,0.07766 -0.09573,-0.114679 -0.09309,0.08305 -0.130758,0.116666 -0.01783,0.08315 -0.0364,0.157991 -0.04153,0.166242 -0.0095,0.01526 -0.156143,-0.04329 -0.156143,-0.0624 0,-0.0058 0.02092,-0.03773 0.04653,-0.07116 0.02568,-0.03336 0.05292,-0.09348 0.06083,-0.133525 0.01328,-0.06812 0.0097,-0.07285 -0.05578,-0.07285 -0.193268,0.07199 -0.390615,0.136564 -0.594929,0.18755 -0.0851,0.01805 -0.134102,-0.03097 -0.09601,-0.09598 0.21309,-0.133604 0.466262,-0.246135 0.70201,-0.383206 0.08445,-0.0255 0.133278,-0.102923 0.09787,-0.155217 -0.02325,-0.03416 -0.118645,-0.02908 -0.174163,0.0092 -0.332922,0.03976 -0.505907,0.04916 -0.818383,0.295902 -0.104985,0.01129 -0.125348,0.0076 -0.125348,-0.02251 0,-0.0199 0.03169,-0.05742 0.07043,-0.08356 0.106518,-0.136203 0.223736,-0.238126 0.358179,-0.34598 0.201586,-0.133802 0.335319,-0.32854 0.504381,-0.502817 0,-0.05042 -0.03866,-0.07977 -0.06117,-0.04648 -0.0084,0.01258 -0.03552,0.02281 -0.06,0.02281 -0.192342,0.02748 -0.33316,0.103408 -0.49072,0.20786 -0.04055,0.01403 -0.09388,0.06062 -0.122568,0.107252 -0.05765,0.09353 -0.183333,0.136216 -0.232544,0.07892 0.07692,-0.145289 0.164429,-0.267328 0.259631,-0.40526 0.160027,-0.197748 0.295175,-0.415572 0.44458,-0.615212 0.283057,-0.233453 0.467037,-0.520059 0.717532,-0.765204 0.012,-0.0498 0.03596,-0.06963 0.108224,-0.08938 0.07387,-0.02021 0.103527,-0.04544 0.145124,-0.123623 0.04165,-0.07817 0.06564,-0.09825 0.112606,-0.09825 0.12739,-0.05143 0.24083,-0.15499 0.357688,-0.235914 0.06084,-0.04324 0.168484,-0.104403 0.239357,-0.135873 0.111079,-0.0932 0.220785,-0.145099 0.352359,-0.209453 0.05125,-0.02598 0.32434,-0.08461 0.458977,-0.09849 0.06564,-0.0068 0.153729,-0.04077 0.233232,-0.0902 0.08179,-0.05278 0.178894,-0.08663 0.26273,-0.127267 0,-0.03027 0.152868,-0.06712 0.319165,-0.07697 0.241814,-0.02867 0.491036,-0.01968 0.665853,-0.01324 0.17479,0.01015 0.324402,-0.02493 0.507796,-0.03207 h 0.311619 c 0.180036,-0.285114 0.205024,-0.554012 0.121364,-0.862639 -0.02171,0 -0.05973,-0.04443 -0.08846,-0.103668 -0.05276,-0.108841 -0.255503,-0.405771 -0.342296,-0.501306 -0.05957,-0.09925 -0.172389,-0.111797 -0.268223,-0.154019 -0.199106,-0.101866 -0.366593,-0.234027 -0.5333,-0.385091 -0.134922,-0.0715 0.01725,-0.09635 0.0184,-0.102826 0.188154,0.01867 -0.122886,-0.109922 -0.176511,-0.134072 -0.235721,-0.278817 -0.501376,-0.443241 -0.69502,-0.735632 -0.02533,-0.159099 -0.172685,-0.223295 -0.290218,-0.31146 -0.06564,-0.01504 -0.188637,-0.111727 -0.231154,-0.181717 -0.185804,-0.103506 -0.350439,-0.237362 -0.51171,-0.361237 -0.07069,-0.08471 -0.189686,-0.07647 -0.281809,-0.100807 -0.06951,-0.03058 -0.131812,-0.08535 -0.19003,-0.123054 -0.003,-0.02351 -0.02952,-0.09897 -0.05663,-0.167588 -0.06093,-0.174071 -0.203249,-0.176224 -0.349694,-0.231953 -0.04814,0.01681 -0.114212,-0.05042 -0.114212,-0.116135 -0.01787,-0.09769 -0.05352,-0.192797 -0.08406,-0.287599 -0.01756,-0.08572 -0.158858,-0.236625 -0.221478,-0.236638 L 48.215053,38.49255 h -0.168918 c -0.225537,-0.0349 -0.277638,-0.141652 -0.383749,-0.324892 -0.02241,-0.03084 -0.06673,-0.0927 -0.09845,-0.13753 -0.139107,-0.09349 -0.285851,-0.164002 -0.429913,-0.288517 -0.06253,-0.01602 -0.116889,-0.04002 -0.120816,-0.05363 -0.04329,-0.148619 -0.07826,-0.219729 -0.126866,-0.258347 -0.0319,-0.0252 -0.0579,-0.0553 -0.0579,-0.06678 0,-0.04076 -0.168519,-0.07453 -0.247299,-0.04951 -0.230783,0.05244 -0.162585,-0.09112 -0.257523,-0.186694 -0.03124,-0.118911 -0.0394,-0.351097 -0.04315,-0.419728 l -0.180203,-0.03619 c -0.06908,0.0068 -0.06959,0.0058 -0.06799,-0.116478 8.82e-4,-0.06778 0.0068,-0.158523 0.01213,-0.201659 -0.02807,-0.109776 -0.182563,-0.154112 -0.283344,-0.234008 -0.109052,-0.01496 -0.156716,-0.04275 -0.114308,-0.06661 0.01218,-0.0076 0.0014,-0.07014 -0.0233,-0.14159 -0.06741,-0.308169 -0.320991,-0.398012 -0.568789,-0.539191 -0.01349,0.03252 -0.05369,0.05978 -0.08036,0.08948 -0.174389,0.181747 -0.334199,0.361245 -0.539376,0.501265 -0.108511,0.01854 -0.159709,0.104392 -0.159709,0.267723 v 0.102556 c -0.09234,-0.08313 -0.158873,0.04696 -0.194442,0.05734 -0.02356,0.133532 -0.08701,0.250929 -0.145977,0.372885 -0.01861,0.07614 -0.04434,0.127823 -0.06363,0.127823 -0.01782,0 -0.06294,0.01461 -0.10031,0.03217 -0.08044,0.03817 -0.131508,0.147872 -0.15729,0.338212 -0.02638,0.19461 -0.05149,0.228055 -0.165471,0.220003 -0.130475,-0.0092 -0.156654,0.01349 -0.171268,0.147981 -0.07134,0.308468 -0.323321,0.548628 -0.519436,0.747985 0.003,0.0753 0.05066,0.136615 0.07657,0.206397 0.0036,0.05793 -0.003,0.06441 -0.117715,0.08683 -0.08482,0.04192 -0.196405,0.114591 -0.281314,0.189007 -0.09093,0.05573 -0.105557,0.07605 -0.112071,0.155891 -0.01004,0.122979 -0.01801,0.130921 -0.14795,0.148713 -0.131892,-0.0233 -0.08564,0.09957 -0.141021,0.163944 -0.04006,0.0405 -0.05167,0.04161 -0.140109,0.01382 -0.179099,-0.05632 -0.210649,0.0058 -0.123829,0.242131 0.02577,0.07016 0.05436,0.173519 0.06352,0.229668 0.01915,0.116652 0.0022,0.124549 -0.144516,0.06855 -0.08306,-0.03164 -0.08957,-0.03106 -0.114621,0.01169 -0.02135,0.04643 -0.0094,0.09476 -0.01422,0.145248 -0.01478,0.05354 -0.02506,0.05767 -0.12965,0.05144 -0.209926,-0.02247 -0.218349,0.06274 -0.386811,0.201917 -0.01703,0.0092 -0.07515,0.07816 -0.1291,0.154399 -0.109353,0.154423 -0.176811,0.181612 -0.385606,0.155499 -0.112416,-0.07176 -0.07296,0.202389 -0.07329,0.297835 -0.02454,0.09323 -0.04604,0.171847 -0.04753,0.174718 -0.0014,0.0022 -0.03619,-0.0068 -0.07667,-0.02021 -0.244223,0.0014 -0.361514,0.168666 -0.521072,0.330638 0.0022,0.08414 -0.07708,0.351097 -0.111723,0.374633 -0.123124,0.01191 -0.251813,0.01095 -0.37556,0.01165 -0.01478,0.0084 -0.03406,0.0656 -0.04279,0.12717 -0.02661,0.185667 -0.03632,0.210469 -0.09271,0.23806 -0.148787,-0.02197 -0.175835,0.09058 -0.266179,0.143453 -0.05032,0.10329 -0.06958,0.122216 -0.124405,0.122414 -0.06842,2.39e-4 -0.09469,0.03509 -0.09469,0.125291 -0.0092,0.05295 -0.06134,0.06778 -0.09693,0.107144 -0.01986,0.04753 -0.04213,0.05464 -0.220058,0.06872 -0.109467,0.0084 -0.206347,0.02785 -0.216685,0.04275 -0.11058,0.01289 -0.110377,0.128979 -0.153742,0.179643 0,0.114494 -0.0036,0.118695 -0.239353,0.226128 -0.09789,0.04475 -0.177984,0.09459 -0.177984,0.110678 -0.0191,0.06434 -0.07557,0.108858 -0.113272,0.163078 -0.02259,0.03411 -0.05512,0.04028 -0.188199,0.03649 -0.175875,-0.0036 -0.219143,0.01739 -0.208243,0.108007 -0.09255,0.252057 -0.213373,0.237393 -0.379647,0.317007 -0.08154,-0.01036 -0.09412,-0.0058 -0.116011,0.04725 -0.01342,0.03239 -0.04126,0.05892 -0.06201,0.05892 -0.04507,0.05304 -0.04351,0.172579 -0.05655,0.250471 -0.01625,0.01496 -0.08454,0.0282 -0.151602,0.02956 -0.137152,-0.01791 -0.1894,0.08874 -0.271974,0.145593 -0.08087,0 -0.202169,0.05674 -0.287771,0.134499 -0.06664,0.06063 -0.07927,0.08799 -0.07598,0.165754 0.02449,0.136074 -0.08948,0.184197 -0.150989,0.271884 0,0.04865 -0.11411,0.04072 -0.171851,-0.012 -0.06362,-0.05809 -0.122759,-0.0575 -0.122759,8.83e-4 -0.02613,0.114602 -0.05326,0.236223 -0.109044,0.312567 -0.0331,0.177459 -0.137575,0.237516 -0.236784,0.356926 -0.110921,0.100775 -0.177089,0.136018 -0.255313,0.136018 -0.167836,0.05506 -0.285974,0.195828 -0.401218,0.309474 -0.118288,0.12808 -0.240953,0.281677 -0.347902,0.4062 0,0.05995 -0.02135,0.06711 -0.139636,0.04739 -0.136613,-0.02277 -0.163145,-0.0022 -0.161107,0.119873 0.0014,0.0869 -0.0051,0.102901 -0.04521,0.102901 -0.06034,-0.03988 -0.131049,-0.02894 -0.203333,-0.04484 h -0.156456 l -0.01201,0.106432 c -0.01562,0.137712 -0.155537,0.344611 -0.227403,0.336223 -0.0233,-0.09351 -0.08445,-0.174018 -0.113078,-0.266021 -0.08718,0.146749 -0.173977,0.322377 -0.242909,0.453774 -0.131878,0.07176 -0.101487,0.196672 -0.120931,0.328951 -0.0014,0.09197 -0.005,0.09637 -0.06924,0.08964 -0.07573,-0.02484 -0.09742,-0.178761 -0.119869,-0.237957 -0.05723,-0.0076 -0.176289,0.107176 -0.241491,0.232591 -0.03596,0.06914 -0.03887,0.07015 -0.135366,0.04663 -0.08239,-0.0331 -0.129094,-0.07758 -0.193753,-0.116476 -0.09104,0.111678 -0.122194,0.307882 -0.17491,0.455667 0,0.05859 -0.07018,0.08161 -0.121055,0.03958 -0.07347,-0.06062 -0.212052,-0.102944 -0.2435,-0.0742 -0.02448,0.0431 -0.05916,0.0763 -0.08966,0.115606 -0.06597,0.0602 -0.07682,0.130211 -0.0353,0.229574 0.02158,0.05176 0.0184,0.06746 -0.0184,0.09216 -0.03892,0.02598 -0.05126,0.02207 -0.09839,-0.03186 -0.16367,-0.195083 -0.07372,-0.228512 -0.292552,-0.05819 0.0076,0.02153 0.02042,0.06855 0.02987,0.104294 0.01624,0.06231 0.01399,0.0645 -0.05401,0.05194 -0.03913,-0.0076 -0.08876,-0.01932 -0.110359,-0.02697 -0.05132,-0.01818 -0.248037,0.130316 -0.277304,0.209264 -0.01201,0.03257 -0.04293,0.08645 -0.0685,0.119851 -0.03993,0.05211 -0.05528,0.05768 -0.108572,0.03918 -0.129973,-0.04516 -0.185124,-0.01368 -0.204177,0.116625 l -0.01421,0.09713 h -0.294014 c -0.286813,0 -0.297041,0.0014 -0.386984,0.0645 -0.09207,0.06434 -0.111568,0.09934 -0.126085,0.226799 -0.08155,0.07765 -0.280635,0.172207 -0.359233,0.216844 -4.41e-4,0.08135 -0.04744,0.122837 -0.195635,0.174088 -0.104423,0.134469 -0.230946,0.148113 -0.346953,0.225237 -0.09316,0.0084 -0.22056,0.136662 -0.258759,0.170734 -0.196812,-0.119832 -0.47577,-0.114903 -0.638999,-0.119087 l -0.927973,-0.01805 c -0.131443,-0.02435 -0.262549,0.01845 -0.384201,0.03424 -0.299692,0.072 -0.583266,0.03433 -0.891196,0.111397 -0.215855,-0.189501 -0.382403,-0.150384 -0.649134,-0.09523 -0.07531,0.133384 -0.142465,0.187422 -0.212754,0.171317 -0.166654,0.05202 -0.303757,0.02034 -0.42604,0.0375 -0.139753,-0.106324 -0.208521,0.02374 -0.321299,0.122797 -0.09011,0.07192 -0.252272,0.08507 -0.37112,0.101552 -0.08162,0.05303 -0.242984,0.07419 -0.340834,0.04466 z"
       fill="#584528"
       id="path51211"
       style="opacity:0.576;fill:#964b00;fill-opacity:1;stroke-width:0.241804"
       inkscape:label="bear" />
  </g>
</svg>
