<?xml version="1.0" encoding="UTF-8" standalone="no"?>
<!-- Created with Inkscape (http://www.inkscape.org/) -->

<svg
   width="200"
   height="100"
   viewBox="0 0 200 100"
   version="1.1"
   id="svg152859"
   inkscape:version="1.2 (dc2aedaf03, 2022-05-15)"
   sodipodi:docname="brands template.svg"
   xml:space="preserve"
   inkscape:export-filename="brands\Ascend_logo.svg"
   inkscape:export-xdpi="96"
   inkscape:export-ydpi="96"
   xmlns:inkscape="http://www.inkscape.org/namespaces/inkscape"
   xmlns:sodipodi="http://sodipodi.sourceforge.net/DTD/sodipodi-0.dtd"
   xmlns="http://www.w3.org/2000/svg"
   xmlns:svg="http://www.w3.org/2000/svg"><sodipodi:namedview
     id="namedview152861"
     pagecolor="#ffffff"
     bordercolor="#eeeeee"
     borderopacity="1"
     inkscape:showpageshadow="0"
     inkscape:pageopacity="0"
     inkscape:pagecheckerboard="0"
     inkscape:deskcolor="#ffffff"
     inkscape:document-units="px"
     showgrid="false"
     inkscape:zoom="3.3638608"
     inkscape:cx="129.01842"
     inkscape:cy="54.699053"
     inkscape:window-width="1920"
     inkscape:window-height="1017"
     inkscape:window-x="-8"
     inkscape:window-y="-8"
     inkscape:window-maximized="1"
     inkscape:current-layer="layer1" /><defs
     id="defs152856" /><g
     inkscape:label="Layer 1"
     inkscape:groupmode="layer"
     id="layer1"><g
       clip-path="url(#clipPath153570)"
       id="g3460"
       transform="matrix(2.3464476,0,0,-2.3464476,-1664.9671,775.41836)"><path
         d="m 781.8381,294.2927 v 0.8418 h 0.6181 c 0.4112,0 0.5225,-0.1269 0.5225,-0.373 0,-0.252 -0.1113,-0.4551 -0.5957,-0.4688 z m 0.4336,-0.5137 c 0.1776,-0.0156 0.3486,0 0.4775,-0.1347 0.1475,-0.1563 0.1475,-0.418 0.1846,-0.7012 0.0234,-0.1934 0.0752,-0.4023 0.1123,-0.5879 h 0.6562 c -0.1123,0.2969 -0.1494,0.6406 -0.1943,0.9531 -0.0527,0.3575 -0.1036,0.5586 -0.5586,0.6485 v 0.0156 c 0.4404,0.0898 0.6709,0.3867 0.6709,0.7676 0,0.7441 -0.627,0.9082 -1.2296,0.9082 h -1.0664 v -3.293 h 0.5138 v 1.4238 z m 0.1631,-2.623 c 1.5517,0 2.7948,1.25 2.7948,2.8086 0,1.543 -1.2431,2.7949 -2.7948,2.7949 -1.5577,0 -2.8097,-1.2519 -2.8097,-2.7949 0,-1.5586 1.252,-2.8086 2.8097,-2.8086 z m 0,0.4902 c -1.2814,0 -2.3164,1.0371 -2.3164,2.3184 0,1.2656 1.035,2.3027 2.3164,2.3027 1.2754,0 2.3046,-1.0371 2.3046,-2.3027 0,-1.2813 -1.0292,-2.3184 -2.3046,-2.3184"
         id="path3466"
         style="fill:#ee2722;fill-opacity:1;fill-rule:nonzero;stroke:none" /><path
         d="m 777.6974,319.4397 h -4.5009 v -4.4961 h 4.5009 c 1.0683,0 1.9277,-0.8701 1.9277,-1.9321 0,-1.0694 -0.8594,-1.9287 -1.9277,-1.9287 h -4.5009 v -4.5 h 4.5009 c 3.5518,0 6.4288,2.8798 6.4288,6.4287 0,3.5498 -2.877,6.4282 -6.4288,6.4282 z m -25.6503,-23.7915 c 5.3877,0 10.0311,3.1553 12.2002,7.7217 h 5.7373 v -7.7217 h 3.2119 v 7.7217 h 4.5009 c 5.3292,0 9.6465,4.3173 9.6465,9.6416 0,5.3256 -4.3173,9.6445 -9.6465,9.6445 h -7.7128 v -11.5732 h -4.5773 c -0.9335,6.5405 -6.5595,11.5732 -13.3602,11.5732 h -15.8282 l -15.7446,-27.0078 h 3.7559 l 4.5,7.7217 h 16.1801 v -7.7217 z m 39.7977,17.3633 c 0,-7.8106 -6.3349,-14.1416 -14.1474,-14.1416 v -7.7139 h -12.2119 v 6.0176 c -3.3037,-3.6934 -8.0957,-6.0176 -13.4384,-6.0176 h -11.6377 v 7.7139 h -9.0957 l -4.5,-7.7139 H 712.529 l 20.9971,36 h 18.521 c 5.3427,0 10.1347,-2.3306 13.4384,-6.0244 v 6.0244 h 12.2119 c 7.8125,0 14.1474,-6.336 14.1474,-14.1445 z m -51.4354,6.4282 v -8.3569 h -7.1792 l -2.6221,-4.5 h 14.3022 v 12.8569 z m 21.9267,-10.2837 c 0,-5.6816 -4.6084,-10.2861 -10.289,-10.2861 h -3.923 v 4.5 h 3.923 c 3.1982,0 5.7899,2.5869 5.7899,5.7861 0,3.1924 -2.5917,5.7876 -5.7899,5.7876 h -3.923 v 4.4961 h 3.923 c 5.6806,0 10.289,-4.6045 10.289,-10.2837"
         id="path3468"
         style="fill:#ee2722;fill-opacity:1;fill-rule:nonzero;stroke:none" /><path
         d="m 777.6974,319.4397 h -4.5009 v -4.4961 h 4.5009 c 1.0683,0 1.9277,-0.8701 1.9277,-1.9321 0,-1.0694 -0.8594,-1.9287 -1.9277,-1.9287 h -4.5009 v -4.5 h 4.5009 c 3.5518,0 6.4288,2.8798 6.4288,6.4287 0,3.5498 -2.877,6.4282 -6.4288,6.4282 z m -25.6503,-23.7915 c 5.3877,0 10.0311,3.1553 12.2002,7.7217 h 5.7373 v -7.7217 h 3.2119 v 7.7217 h 4.5009 c 5.3292,0 9.6465,4.3173 9.6465,9.6416 0,5.3256 -4.3173,9.6445 -9.6465,9.6445 h -7.7128 v -11.5732 h -4.5773 c -0.9335,6.5405 -6.5595,11.5732 -13.3602,11.5732 h -15.8282 l -15.7446,-27.0078 h 3.7559 l 4.5,7.7217 h 16.1801 v -7.7217 z m 39.7977,17.3633 c 0,-7.8106 -6.3349,-14.1416 -14.1474,-14.1416 v -7.7139 h -12.2119 v 6.0176 c -3.3037,-3.6934 -8.0957,-6.0176 -13.4384,-6.0176 h -11.6377 v 7.7139 h -9.0957 l -4.5,-7.7139 H 712.529 l 20.9971,36 h 18.521 c 5.3427,0 10.1347,-2.3306 13.4384,-6.0244 v 6.0244 h 12.2119 c 7.8125,0 14.1474,-6.336 14.1474,-14.1445 z m -51.4354,6.4282 v -8.3569 h -7.1792 l -2.6221,-4.5 h 14.3022 v 12.8569 z m 21.9267,-10.2837 c 0,-5.6816 -4.6084,-10.2861 -10.289,-10.2861 h -3.923 v 4.5 h 3.923 c 3.1982,0 5.7899,2.5869 5.7899,5.7861 0,3.1924 -2.5917,5.7876 -5.7899,5.7876 h -3.923 v 4.4961 h 3.923 c 5.6806,0 10.289,-4.6045 10.289,-10.2837"
         id="path3470"
         style="fill:#ee2722;fill-opacity:1;fill-rule:nonzero;stroke:none" /><path
         d="m 777.6974,319.4397 h -4.5009 v -4.4961 h 4.5009 c 1.0683,0 1.9277,-0.8701 1.9277,-1.9321 0,-1.0694 -0.8594,-1.9287 -1.9277,-1.9287 h -4.5009 v -4.5 h 4.5009 c 3.5518,0 6.4288,2.8798 6.4288,6.4287 0,3.5498 -2.877,6.4282 -6.4288,6.4282 z m -25.6503,-23.7915 c 5.3877,0 10.0311,3.1553 12.2002,7.7217 h 5.7373 v -7.7217 h 3.2119 v 7.7217 h 4.5009 c 5.3292,0 9.6465,4.3173 9.6465,9.6416 0,5.3256 -4.3173,9.6445 -9.6465,9.6445 h -7.7128 v -11.5732 h -4.5773 c -0.9335,6.5405 -6.5595,11.5732 -13.3602,11.5732 h -15.8282 l -15.7446,-27.0078 h 3.7559 l 4.5,7.7217 h 16.1801 v -7.7217 z m 39.7977,17.3633 c 0,-7.8106 -6.3349,-14.1416 -14.1474,-14.1416 v -7.7139 h -12.2119 v 6.0176 c -3.3037,-3.6934 -8.0957,-6.0176 -13.4384,-6.0176 h -11.6377 v 7.7139 h -9.0957 l -4.5,-7.7139 H 712.529 l 20.9971,36 h 18.521 c 5.3427,0 10.1347,-2.3306 13.4384,-6.0244 v 6.0244 h 12.2119 c 7.8125,0 14.1474,-6.336 14.1474,-14.1445 z m -51.4354,6.4282 v -8.3569 h -7.1792 l -2.6221,-4.5 h 14.3022 v 12.8569 z m 21.9267,-10.2837 c 0,-5.6816 -4.6084,-10.2861 -10.289,-10.2861 h -3.923 v 4.5 h 3.923 c 3.1982,0 5.7899,2.5869 5.7899,5.7861 0,3.1924 -2.5917,5.7876 -5.7899,5.7876 h -3.923 v 4.4961 h 3.923 c 5.6806,0 10.289,-4.6045 10.289,-10.2837"
         id="path3472"
         style="fill:#ee2722;fill-opacity:1;fill-rule:nonzero;stroke:none" /></g></g></svg>
