<?xml version="1.0" encoding="UTF-8" standalone="no"?>
<!-- Created with Inkscape (http://www.inkscape.org/) -->

<svg
   width="200"
   height="100"
   viewBox="0 0 200 100"
   version="1.1"
   id="svg152859"
   inkscape:version="1.2 (dc2aedaf03, 2022-05-15)"
   sodipodi:docname="brands template.svg"
   xml:space="preserve"
   inkscape:export-filename="brands\Ascend_logo.svg"
   inkscape:export-xdpi="96"
   inkscape:export-ydpi="96"
   xmlns:inkscape="http://www.inkscape.org/namespaces/inkscape"
   xmlns:sodipodi="http://sodipodi.sourceforge.net/DTD/sodipodi-0.dtd"
   xmlns="http://www.w3.org/2000/svg"
   xmlns:svg="http://www.w3.org/2000/svg"><sodipodi:namedview
     id="namedview152861"
     pagecolor="#ffffff"
     bordercolor="#eeeeee"
     borderopacity="1"
     inkscape:showpageshadow="0"
     inkscape:pageopacity="0"
     inkscape:pagecheckerboard="0"
     inkscape:deskcolor="#ffffff"
     inkscape:document-units="px"
     showgrid="false"
     inkscape:zoom="3.3638608"
     inkscape:cx="129.01842"
     inkscape:cy="54.699053"
     inkscape:window-width="1920"
     inkscape:window-height="1017"
     inkscape:window-x="-8"
     inkscape:window-y="-8"
     inkscape:window-maximized="1"
     inkscape:current-layer="layer1" /><defs
     id="defs152856" /><g
     inkscape:label="Layer 1"
     inkscape:groupmode="layer"
     id="layer1"><g
       id="g130109"
       transform="translate(-1.3182832,-61.698848)"><path
         style="fill:#f4911d;fill-opacity:1;stroke-width:0.128708"
         d="m 6.1386863,140.0364 v -0.38612 h 95.1796037 95.17959 v 0.38612 0.38612 H 101.31829 6.1386863 Z m 77.3535367,-8.113 c -0.713561,-0.0847 -2.944314,-0.57887 -3.035914,-0.67259 -0.01663,-0.017 -0.488176,-1.25189 -1.047888,-2.74417 l -1.01766,-2.71325 1.038411,0.43827 c 2.030518,0.85699 4.508366,1.44869 6.066841,1.44872 1.667879,4e-5 3.162917,-0.63656 3.710709,-1.58007 0.870545,-1.4994 0.358408,-2.97242 -1.327275,-3.81753 -0.395475,-0.19826 -1.603877,-0.62956 -2.685339,-0.95843 -2.526221,-0.76822 -3.741622,-1.35883 -4.665999,-2.26738 -1.134613,-1.11519 -1.669376,-2.53762 -1.669376,-4.44043 0,-1.95038 0.613707,-3.52699 1.857405,-4.77168 1.971827,-1.97339 5.289113,-2.86976 9.354086,-2.52756 0.948017,0.0798 2.021389,0.21393 2.385272,0.29808 l 0.661607,0.15298 0.590333,2.32231 c 0.324682,1.27727 0.568255,2.34439 0.541272,2.37137 -0.02698,0.027 -0.445558,-0.0663 -0.930169,-0.20738 -1.624593,-0.47284 -2.415794,-0.58727 -4.098809,-0.59285 -1.481665,-0.005 -1.746873,0.0284 -2.316745,0.29094 -1.18348,0.54526 -1.73801,1.30185 -1.737077,2.37006 6.33e-4,0.73019 0.356925,1.28464 1.108547,1.72512 0.335681,0.19673 1.712708,0.72446 3.060061,1.17274 1.347352,0.44829 2.800362,1.01116 3.228911,1.25082 2.14259,1.1982 3.176543,2.8565 3.361839,5.39188 0.263515,3.60563 -1.811988,6.38029 -5.675871,7.58786 -1.764564,0.55147 -4.485905,0.74163 -6.757172,0.47217 z m 24.905007,-0.002 c -1.24768,-0.16884 -3.22387,-0.82042 -4.20139,-1.38526 -1.16117,-0.67096 -2.89981,-2.43461 -3.62163,-3.67372 -2.097858,-3.60137 -2.339415,-9.41361 -0.552,-13.28224 1.76414,-3.81824 5.00914,-5.94996 9.59774,-6.30498 1.87486,-0.14505 4.68114,0.36764 4.89612,0.89449 0.16511,0.40465 1.06061,4.33031 1.00133,4.38958 -0.0283,0.0283 -0.51249,-0.0957 -1.076,-0.27549 -0.83737,-0.2672 -1.30674,-0.33052 -2.56906,-0.34659 -2.25464,-0.0287 -3.37886,0.40385 -4.72926,1.81961 -0.8077,0.84678 -1.2279,1.60323 -1.6593,2.98706 -0.25687,0.824 -0.29951,1.2299 -0.29712,2.82833 0.002,1.54662 0.0528,2.04186 0.29462,2.89142 1.26213,4.43373 4.78364,5.92645 10.1819,4.31595 0.4568,-0.13628 0.84926,-0.22907 0.87214,-0.2062 0.0229,0.0229 0.40881,0.97324 0.85764,2.11192 l 0.81605,2.07032 -0.46546,0.18388 c -1.59481,0.63002 -3.68009,0.97184 -6.38604,1.0468 -1.13263,0.0314 -2.46476,0.002 -2.96028,-0.0649 z m 20.91505,9.8e-4 c -4.94821,-0.61481 -8.45565,-3.55053 -9.58773,-8.02493 -0.8493,-3.35676 -0.66442,-6.8606 0.52519,-9.95341 1.15779,-3.0101 3.30699,-5.13781 6.15711,-6.09556 2.94981,-0.99125 6.94974,-0.71574 9.59473,0.66086 3.3359,1.7362 5.12662,5.43718 5.36821,11.09488 l 0.0811,1.89845 h -8.25732 c -7.77904,0 -8.25722,0.013 -8.25543,0.22524 9.8e-4,0.12388 0.0874,0.58782 0.19188,1.03098 1.20865,5.12631 7.02263,6.42153 13.70939,3.05413 l 0.89825,-0.45235 v 2.42949 2.4295 l -0.76952,0.34534 c -2.1786,0.9777 -3.90017,1.34665 -6.63119,1.42115 -1.13263,0.0309 -2.49372,0.002 -3.02464,-0.0638 z m 6.35364,-14.63891 c 0.15445,-0.2499 -0.32471,-2.20788 -0.75177,-3.07199 -0.77585,-1.56981 -2.03648,-2.40775 -3.88156,-2.58005 -2.28122,-0.21302 -4.43113,0.97345 -5.37352,2.9655 -0.29341,0.62023 -0.72286,2.16606 -0.72286,2.602 0,0.15799 0.78075,0.18508 5.33379,0.18508 2.93358,0 5.36174,-0.0452 5.39592,-0.10054 z m 42.59596,14.65263 c -4.07088,-0.65046 -6.75308,-3.46618 -7.77588,-8.16298 -0.33253,-1.52696 -0.46469,-4.94991 -0.25917,-6.7125 0.60223,-5.16496 2.99706,-8.42106 6.96734,-9.47307 1.41004,-0.37362 3.99518,-0.41037 5.27453,-0.075 1.38049,0.36189 2.61955,1.06533 3.71126,2.10695 0.54262,0.51772 1.03003,0.94168 1.08312,0.94213 0.0531,4.9e-4 0.0965,-3.06885 0.0965,-6.82069 v -6.82153 h 2.96028 2.96029 v 17.37559 17.37558 h -2.97963 -2.97964 c 0,0 0.21998,-1.93981 0.0918,-2.83157 -0.0441,0 -0.50528,0.39692 -1.02477,0.88207 -1.02259,0.95498 -2.28523,1.65976 -3.59739,2.008 -0.90144,0.23923 -2.45566,0.50978 -4.52859,0.207 z m 5.53127,-5.00481 c 1.05203,-0.51791 1.90767,-1.42718 2.47656,-2.6318 0.7485,-1.58493 0.89555,-2.35001 0.89623,-4.66309 0,-1.80207 -0.0371,-2.17935 -0.30108,-3.02011 -0.68293,-2.17484 -1.72549,-3.55773 -3.2283,-4.28212 -1.3256,-0.54791 -2.73468,-0.60475 -3.90136,-0.0502 -2.11861,1.01846 -3.30653,3.6161 -3.31299,7.24453 -0.009,5.02699 2.09645,8.00288 5.55551,7.85251 0.79478,-0.0345 1.15154,-0.12294 1.81543,-0.44977 z m -39.0359,-6.84445 V 108.2457 h 2.36856 2.36857 l 0.26042,0.86878 c 0.14324,0.47783 0.35571,1.20181 0.47215,1.60885 0.11645,0.40704 0.28001,0.7387 0.36347,0.73703 0.0835,-10e-4 0.32551,-0.23993 0.53788,-0.52946 0.88708,-1.20936 2.61056,-2.33369 4.31172,-2.81277 0.56398,-0.15883 1.55497,-0.30318 2.38362,-0.34722 3.56865,-0.18965 6.20267,1.16306 7.52485,3.86442 1.08151,2.20961 1.15541,3.01378 1.15819,12.60234 l 0.002,7.69031 h -3.02464 -3.02464 l -10e-4,-7.04677 c 0,-3.87572 -0.059,-7.55282 -0.1299,-8.17134 -0.3147,-2.74663 -1.43451,-4.10826 -3.54033,-4.3049 -2.26421,-0.21144 -4.14716,0.96198 -5.12852,3.19597 -0.77035,1.75365 -0.77113,1.76248 -0.82129,9.34463 l -0.0462,6.98241 h -3.01753 -3.01753 V 120.0864 Z m -134.4911,10.78914 c 0.144356,-0.36624 1.682013,-4.17439 3.417015,-8.46256 1.734997,-4.28817 4.219841,-10.43197 5.521869,-13.65289 1.302023,-3.22092 4.05307,-10.026358 6.113438,-15.123196 5.78997,-14.322941 8.440282,-20.881534 9.543957,-23.617925 0.556758,-1.38039 1.162823,-2.87233 1.346806,-3.315413 l 0.334521,-0.805605 6.431069,0.03337 6.431066,0.03337 2.351095,5.598797 c 1.293102,3.079342 3.642449,8.668488 5.220772,12.420325 1.578322,3.751842 3.927174,9.339135 5.219672,12.41621 1.292497,3.077074 2.416411,5.616817 2.497586,5.643877 0.246112,0.082 2.150182,-0.96432 4.12449,-2.266557 1.026447,-0.67704 4.530523,-3.237119 7.786836,-5.689064 6.405632,-4.823334 8.564815,-6.394697 11.279239,-8.208549 9.719868,-6.495092 18.089739,-10.188102 26.916279,-11.876176 3.0561,-0.584476 10.39177,-1.125814 10.39177,-0.766863 0,0.07079 -0.19976,0.128711 -0.44391,0.128711 -0.61872,0 -3.34882,0.567952 -4.68492,0.974619 -5.56838,1.694835 -13.29145,5.498981 -19.25136,9.482624 -4.40363,2.943412 -8.099872,5.911078 -14.204126,11.404319 -8.843683,7.958456 -12.146658,10.521796 -17.435861,13.531416 -0.902565,0.51357 -1.64102,0.99917 -1.641011,1.07912 9e-6,0.0799 0.495354,1.39059 1.100766,2.91257 4.778894,12.01388 7.393948,18.62881 7.393948,18.7034 0,0.0484 -3.229491,0.088 -7.176644,0.088 h -7.176646 l -0.727768,-2.02715 c -0.400272,-1.11493 -1.635152,-4.54662 -2.744179,-7.62595 -1.109027,-3.07934 -2.22897,-6.19768 -2.488762,-6.92963 l -0.472349,-1.33083 -0.450478,0.0783 c -7.08572,1.23221 -15.462988,-0.97278 -22.161661,-5.83321 -0.402474,-0.29203 -0.763969,-0.47886 -0.803328,-0.41518 -0.06562,0.10618 -4.170462,11.93899 -7.115663,20.51196 l -1.227021,3.57165 H 16.743175 10.003683 Z M 47.260909,105.9348 c 1.875533,-0.25173 4.826552,-0.82947 4.826552,-0.94492 0,-0.11951 -1.895931,-5.421967 -7.809847,-21.842251 -0.675631,-1.875918 -1.287077,-3.574427 -1.358765,-3.774462 -0.07169,-0.200031 -0.177221,-0.31587 -0.234506,-0.257413 -0.05729,0.05845 -1.001174,2.567824 -2.097528,5.576372 -1.09635,3.008552 -2.522793,6.91806 -3.169867,8.687795 -0.647078,1.769735 -1.788857,4.897338 -2.537289,6.950229 -0.748426,2.0529 -1.386471,3.80057 -1.417872,3.88373 -0.12694,0.33616 3.980671,1.43083 6.398409,1.70516 0.6725,0.0763 1.396482,0.16315 1.608849,0.193 0.657333,0.0924 4.706374,-0.0315 5.791864,-0.17724 z"
         id="path128227"
         sodipodi:nodetypes="cccccccccssscsssssssssscsssssssssssscssssssssssssssscssccssssscscsscccsscsssssssssssssssccccccccsssssscscccssccccsscsssscccccsssscccccsssssscccsssssssssssssssssscssscsssscccsssssssssssss" /><text
         xml:space="preserve"
         style="font-style:normal;font-variant:normal;font-weight:bold;font-stretch:normal;font-size:12.8202px;line-height:1.25;font-family:'Leelawadee UI';-inkscape-font-specification:'Leelawadee UI Bold';letter-spacing:5.25445px;fill:#808084;fill-opacity:1;stroke:none;stroke-width:0.320507"
         x="8.2769537"
         y="140.38644"
         id="text128539"
         transform="scale(0.89234006,1.120649)"><tspan
           sodipodi:role="line"
           id="tspan128537"
           style="font-style:normal;font-variant:normal;font-weight:bold;font-stretch:normal;font-family:'Leelawadee UI';-inkscape-font-specification:'Leelawadee UI Bold';fill:#808084;fill-opacity:1;stroke-width:0.320507"
           x="8.2769537"
           y="140.38644">PAN-ASIAN<tspan
   style="letter-spacing:3.89513px;fill:#808084;fill-opacity:1;stroke-width:0.320507"
   id="tspan128593"> </tspan>LEADERS</tspan></text></g></g></svg>
