<?xml version="1.0" encoding="UTF-8" standalone="no"?>
<!-- Created with Inkscape (http://www.inkscape.org/) -->

<svg
   width="200"
   height="100"
   viewBox="0 0 200 100"
   version="1.1"
   id="svg152859"
   inkscape:version="1.2 (dc2aedaf03, 2022-05-15)"
   sodipodi:docname="brands template.svg"
   xml:space="preserve"
   inkscape:export-filename="brands\Ascend_logo.svg"
   inkscape:export-xdpi="96"
   inkscape:export-ydpi="96"
   xmlns:inkscape="http://www.inkscape.org/namespaces/inkscape"
   xmlns:sodipodi="http://sodipodi.sourceforge.net/DTD/sodipodi-0.dtd"
   xmlns="http://www.w3.org/2000/svg"
   xmlns:svg="http://www.w3.org/2000/svg"><sodipodi:namedview
     id="namedview152861"
     pagecolor="#ffffff"
     bordercolor="#eeeeee"
     borderopacity="1"
     inkscape:showpageshadow="0"
     inkscape:pageopacity="0"
     inkscape:pagecheckerboard="0"
     inkscape:deskcolor="#ffffff"
     inkscape:document-units="px"
     showgrid="false"
     inkscape:zoom="3.3638608"
     inkscape:cx="129.01842"
     inkscape:cy="54.699053"
     inkscape:window-width="1920"
     inkscape:window-height="1017"
     inkscape:window-x="-8"
     inkscape:window-y="-8"
     inkscape:window-maximized="1"
     inkscape:current-layer="layer1" /><defs
     id="defs152856"><style
       id="style154050">.cls-1{clip-path:url(#clip-path);}.cls-2{fill:none;}.cls-3{clip-path:url(#clip-path-2);}.cls-4{clip-path:url(#clip-path-3);}.cls-5{clip-path:url(#clip-path-5);}.cls-6{clip-path:url(#clip-path-6);}.cls-7{mask:url(#mask);}.cls-8{fill:url(#radial-gradient);}.cls-9{fill:url(#radial-gradient-2);}.cls-10{fill:url(#linear-gradient);}</style></defs><g
     inkscape:label="Layer 1"
     inkscape:groupmode="layer"
     id="layer1"><g
       style="clip-rule:evenodd;fill-rule:evenodd;stroke-linejoin:round;stroke-miterlimit:2"
       id="g154531"
       transform="matrix(0.53139589,0,0,0.53139589,-48.791016,-56.278843)"><g
         transform="matrix(3.63637,0,0,3.63637,100,142.581)"
         id="g154507"><g
           fill="#76777a"
           id="g154503"><path
             d="M 52.925,2.909 50.797,4.213 C 50.099,3.122 48.88,2.472 47.586,2.501 47.557,2.5 47.528,2.5 47.5,2.5 c -2.107,0 -3.84,1.733 -3.84,3.84 0,0.074 0.002,0.149 0.006,0.223 -0.002,0.046 -0.002,0.092 -0.002,0.139 0,2.152 1.771,3.924 3.924,3.924 1.292,0 2.504,-0.638 3.235,-1.703 l 2.023,1.454 c -1.231,1.651 -3.174,2.626 -5.233,2.626 -3.548,0 -6.48,-2.893 -6.528,-6.44 -0.002,-0.069 -0.003,-0.138 -0.003,-0.206 0,-3.423 2.816,-6.24 6.239,-6.24 0.094,0 0.189,0.003 0.283,0.007 2.14,-0.084 4.17,0.979 5.321,2.785"
             fill-rule="nonzero"
             id="path154477" /><path
             d="m 62.327,8.462 c 0.001,0.26 -0.014,0.521 -0.044,0.78 H 56.19 c 0.15,1.078 1.124,1.864 2.209,1.783 0.797,-0.018 1.565,-0.309 2.173,-0.825 l 1.356,1.49 c -1.007,0.89 -2.32,1.357 -3.663,1.304 -0.073,0.003 -0.145,0.005 -0.218,0.005 -2.332,0 -4.25,-1.919 -4.25,-4.25 0,-0.084 0.002,-0.168 0.007,-0.252 -0.008,-0.105 -0.012,-0.21 -0.012,-0.315 0,-2.324 1.913,-4.237 4.237,-4.237 0.041,0 0.081,0.001 0.121,0.002 2.474,0 4.169,1.836 4.177,4.515 M 56.199,7.663 h 3.805 C 59.907,6.69 59.079,5.941 58.102,5.941 c -0.978,0 -1.806,0.749 -1.903,1.722"
             fill-rule="nonzero"
             id="path154479" /><path
             d="M 70.155,5.073 V 0 h 2.306 v 12.772 h -2.262 v -0.95 c -0.623,0.774 -1.577,1.209 -2.571,1.172 -2.302,-0.048 -4.169,-1.955 -4.169,-4.258 0,-0.089 0.003,-0.177 0.008,-0.266 -0.005,-0.089 -0.008,-0.177 -0.008,-0.266 0,-2.302 1.868,-4.209 4.169,-4.257 0.971,-0.039 1.907,0.378 2.527,1.126 M 65.836,8.47 c -0.003,0.049 -0.004,0.097 -0.004,0.146 0,1.219 1.003,2.222 2.222,2.222 1.219,0 2.222,-1.003 2.222,-2.222 0,-0.049 -10e-4,-0.097 -0.005,-0.146 0.004,-0.049 0.005,-0.097 0.005,-0.146 0,-1.219 -1.003,-2.222 -2.222,-2.222 -1.219,0 -2.222,1.003 -2.222,2.222 0,0.049 0.001,0.097 0.004,0.146"
             fill-rule="nonzero"
             id="path154481" /><path
             d="m 82.908,12.772 h -2.261 v -0.949 c -0.625,0.773 -1.579,1.207 -2.572,1.17 -2.301,-0.048 -4.168,-1.955 -4.168,-4.256 0,-0.089 0.002,-0.178 0.008,-0.267 -0.006,-0.089 -0.008,-0.178 -0.008,-0.267 0,-2.302 1.867,-4.208 4.168,-4.256 0.995,-0.036 1.95,0.402 2.572,1.179 V 4.177 h 2.261 z M 76.283,8.47 c -0.003,0.049 -0.005,0.097 -0.005,0.146 0,1.219 1.003,2.222 2.222,2.222 1.22,0 2.223,-1.003 2.223,-2.222 0,-0.049 -0.002,-0.097 -0.005,-0.146 0.003,-0.049 0.005,-0.097 0.005,-0.146 0,-1.219 -1.003,-2.222 -2.223,-2.222 -1.219,0 -2.222,1.003 -2.222,2.222 0,0.049 0.002,0.097 0.005,0.146"
             fill-rule="nonzero"
             id="path154483" /><path
             d="M 90.761,4.133 90.415,6.43 C 89.97,6.249 89.495,6.156 89.014,6.155 88.98,6.153 88.945,6.152 88.91,6.152 c -0.943,0 -1.719,0.776 -1.719,1.719 0,0.073 0.005,0.145 0.014,0.218 v 4.683 H 84.889 V 4.177 h 2.244 v 0.94 c 0.543,-0.79 1.466,-1.236 2.422,-1.17 0.41,-0.009 0.818,0.054 1.206,0.186"
             fill-rule="nonzero"
             id="path154485" /><path
             d="m 97.998,6.572 c -0.856,-0.42 -1.789,-0.658 -2.741,-0.701 -0.878,0 -1.322,0.311 -1.322,0.781 0,0.497 0.622,0.621 1.402,0.736 l 0.762,0.116 C 97.962,7.787 99,8.621 99,10.076 c 0,1.773 -1.454,2.917 -3.947,2.917 -1.346,0.046 -2.676,-0.305 -3.823,-1.01 l 0.914,-1.757 c 0.865,0.577 1.888,0.871 2.927,0.843 1.073,0 1.587,-0.302 1.587,-0.807 0,-0.417 -0.435,-0.647 -1.428,-0.79 L 94.53,9.374 C 92.543,9.1 91.559,8.231 91.559,6.767 c 0,-1.765 1.365,-2.811 3.627,-2.811 1.245,-0.023 2.478,0.257 3.592,0.816 z"
             fill-rule="nonzero"
             id="path154487" /><path
             d="m 58.973,19.409 c -1.051,-0.675 -2.272,-1.041 -3.521,-1.056 -1.393,0 -2.377,0.55 -2.377,1.491 0,0.913 1.073,1.188 2.564,1.436 l 0.7,0.116 c 2.217,0.364 3.956,1.313 3.956,3.476 0,2.741 -2.413,4.045 -5.082,4.045 -1.874,0.041 -3.711,-0.529 -5.233,-1.623 l 1.286,-1.996 c 1.137,0.865 2.526,1.335 3.955,1.339 1.375,0 2.44,-0.541 2.44,-1.498 0,-0.861 -0.906,-1.18 -2.635,-1.456 L 54.237,23.56 c -2.191,-0.347 -3.787,-1.312 -3.787,-3.557 0,-2.59 2.306,-3.938 4.949,-3.938 1.676,-0.024 3.323,0.435 4.745,1.321 z"
             fill-rule="nonzero"
             id="path154489" /><path
             d="m 64.533,17.289 c -0.008,0.804 -0.672,1.463 -1.477,1.463 -0.81,0 -1.476,-0.667 -1.476,-1.477 0,-0.808 0.663,-1.474 1.472,-1.477 h 0.012 c 0.806,0 1.469,0.664 1.469,1.47 z"
             fill-rule="nonzero"
             id="path154491" /><path
             d="m 61.908,20.101 h 2.314 v 8.594 h -2.314 z"
             id="path154493" /><path
             d="m 74.333,23.222 v 5.473 h -2.315 v -4.728 c 0,-1.242 -0.621,-1.925 -1.676,-1.925 -0.022,-0.001 -0.044,-0.001 -0.066,-0.001 -0.967,0 -1.762,0.796 -1.762,1.763 0,0.06 0.003,0.121 0.009,0.181 v 4.71 H 66.208 V 20.1 h 2.253 v 1.011 c 0.568,-0.825 1.528,-1.296 2.528,-1.241 0.049,-0.002 0.097,-0.003 0.146,-0.003 1.756,0 3.202,1.445 3.202,3.201 0,0.051 -0.002,0.103 -0.004,0.154"
             fill-rule="nonzero"
             id="path154495" /><path
             d="m 84.708,28.694 h -2.262 v -0.948 c -0.624,0.773 -1.578,1.207 -2.571,1.17 -2.302,-0.048 -4.169,-1.955 -4.169,-4.257 0,-0.089 0.002,-0.177 0.008,-0.266 -0.006,-0.088 -0.009,-0.177 -0.009,-0.266 0,-2.302 1.868,-4.209 4.17,-4.258 0.995,-0.036 1.95,0.402 2.571,1.18 V 20.1 h 2.262 z m -6.625,-4.301 c -0.003,0.049 -0.005,0.097 -0.005,0.146 0,1.219 1.003,2.222 2.222,2.222 1.219,0 2.223,-1.003 2.223,-2.222 0,-0.049 -0.002,-0.097 -0.005,-0.146 0.003,-0.048 0.005,-0.097 0.005,-0.146 0,-1.219 -1.004,-2.222 -2.223,-2.222 -1.219,0 -2.222,1.003 -2.222,2.222 0,0.049 0.002,0.098 0.005,0.146"
             fill-rule="nonzero"
             id="path154497" /><path
             d="m 89.319,17.289 c -0.007,0.804 -0.671,1.463 -1.476,1.463 -0.81,0 -1.477,-0.667 -1.477,-1.477 0,-0.808 0.663,-1.474 1.471,-1.477 h 0.013 c 0.806,0 1.469,0.664 1.469,1.47 v 0.02"
             fill-rule="nonzero"
             id="path154499" /><path
             d="m 86.694,20.101 h 2.315 v 8.594 h -2.315 z"
             id="path154501" /></g><path
           d="m 11.892,19.258 c -3.712,0 -6.766,-3.054 -6.766,-6.765 0,-3.712 3.054,-6.766 6.766,-6.766 1.794,0 3.517,0.713 4.785,1.982 l 1.419,1.42 -1.978,1.978 -1.419,-1.42 C 13.955,8.943 12.944,8.524 11.892,8.524 c -2.178,0 -3.97,1.792 -3.97,3.97 0,2.178 1.792,3.97 3.97,3.97 1.052,0 2.063,-0.418 2.807,-1.163 l 1.978,1.978 c -1.268,1.27 -2.991,1.982 -4.785,1.979 m 0,5.128 c 0,0 0,0 -10e-4,0 C 5.368,24.386 0,19.018 0,12.495 0,9.342 1.254,6.316 3.483,4.086 5.712,1.856 8.739,0.602 11.892,0.602 c 3.153,0 6.18,1.254 8.409,3.484 l 1.42,1.419 -1.979,1.978 -1.419,-1.42 c -1.705,-1.705 -4.02,-2.664 -6.431,-2.664 -4.99,0 -9.095,4.106 -9.095,9.095 0,4.99 4.105,9.095 9.095,9.095 2.411,0 4.726,-0.959 6.431,-2.664 l 2.595,-2.595 1.978,1.977 -2.595,2.596 c -2.225,2.237 -5.255,3.492 -8.409,3.483 m 15.223,2.066 c -1.794,0.003 -3.517,-0.71 -4.784,-1.979 l -1.419,-1.419 1.977,-1.978 1.42,1.419 c 0.744,0.745 1.755,1.163 2.807,1.163 2.178,0 3.97,-1.792 3.97,-3.97 0,-2.178 -1.792,-3.97 -3.97,-3.97 -1.052,0 -2.063,0.419 -2.807,1.163 l -1.978,-1.978 c 1.269,-1.27 2.992,-1.985 4.788,-1.985 3.712,0 6.767,3.055 6.767,6.767 0,3.713 -3.055,6.767 -6.767,6.767 -0.001,0 -0.003,0 -0.004,0 m 0.001,5.128 c -3.155,0.009 -6.185,-1.247 -8.409,-3.484 l -1.419,-1.419 1.978,-1.978 1.419,1.42 c 1.705,1.706 4.02,2.665 6.431,2.665 4.99,0 9.095,-4.106 9.095,-9.095 0,-4.989 -4.105,-9.095 -9.095,-9.095 -2.411,0 -4.726,0.959 -6.431,2.664 l -2.595,2.595 -1.978,-1.978 2.595,-2.596 c 2.229,-2.229 5.256,-3.483 8.409,-3.483 6.523,0 11.891,5.369 11.891,11.892 0,6.524 -5.367,11.892 -11.891,11.892"
           fill="#dc1e34"
           fill-rule="nonzero"
           id="path154505" /></g></g></g></svg>
