<?xml version="1.0" encoding="UTF-8" standalone="no"?>
<!-- Created with Inkscape (http://www.inkscape.org/) -->

<svg
   width="200"
   height="100"
   viewBox="0 0 200 100"
   version="1.1"
   id="svg152859"
   inkscape:version="1.2 (dc2aedaf03, 2022-05-15)"
   sodipodi:docname="brands template.svg"
   xml:space="preserve"
   inkscape:export-filename="brands\Ascend_logo.svg"
   inkscape:export-xdpi="96"
   inkscape:export-ydpi="96"
   xmlns:inkscape="http://www.inkscape.org/namespaces/inkscape"
   xmlns:sodipodi="http://sodipodi.sourceforge.net/DTD/sodipodi-0.dtd"
   xmlns="http://www.w3.org/2000/svg"
   xmlns:svg="http://www.w3.org/2000/svg"><sodipodi:namedview
     id="namedview152861"
     pagecolor="#ffffff"
     bordercolor="#eeeeee"
     borderopacity="1"
     inkscape:showpageshadow="0"
     inkscape:pageopacity="0"
     inkscape:pagecheckerboard="0"
     inkscape:deskcolor="#ffffff"
     inkscape:document-units="px"
     showgrid="false"
     inkscape:zoom="3.3638608"
     inkscape:cx="72.238423"
     inkscape:cy="40.132457"
     inkscape:window-width="1920"
     inkscape:window-height="1017"
     inkscape:window-x="-8"
     inkscape:window-y="-8"
     inkscape:window-maximized="1"
     inkscape:current-layer="layer1" /><defs
     id="defs152856"><style
       id="style154050">.cls-1{clip-path:url(#clip-path);}.cls-2{fill:none;}.cls-3{clip-path:url(#clip-path-2);}.cls-4{clip-path:url(#clip-path-3);}.cls-5{clip-path:url(#clip-path-5);}.cls-6{clip-path:url(#clip-path-6);}.cls-7{mask:url(#mask);}.cls-8{fill:url(#radial-gradient);}.cls-9{fill:url(#radial-gradient-2);}.cls-10{fill:url(#linear-gradient);}</style><linearGradient
       id="linearGradient142326"
       inkscape:swatch="gradient"><stop
         style="stop-color:#4170ac;stop-opacity:1;"
         offset="0"
         id="stop142322" /><stop
         style="stop-color:#4170ac;stop-opacity:0;"
         offset="1"
         id="stop142324" /></linearGradient><style
       id="style154050-8">.cls-1{clip-path:url(#clip-path);}.cls-2{fill:none;}.cls-3{clip-path:url(#clip-path-2);}.cls-4{clip-path:url(#clip-path-3);}.cls-5{clip-path:url(#clip-path-5);}.cls-6{clip-path:url(#clip-path-6);}.cls-7{mask:url(#mask);}.cls-8{fill:url(#radial-gradient);}.cls-9{fill:url(#radial-gradient-2);}.cls-10{fill:url(#linear-gradient);}</style><style
       id="style154050-3">.cls-1{clip-path:url(#clip-path);}.cls-2{fill:none;}.cls-3{clip-path:url(#clip-path-2);}.cls-4{clip-path:url(#clip-path-3);}.cls-5{clip-path:url(#clip-path-5);}.cls-6{clip-path:url(#clip-path-6);}.cls-7{mask:url(#mask);}.cls-8{fill:url(#radial-gradient);}.cls-9{fill:url(#radial-gradient-2);}.cls-10{fill:url(#linear-gradient);}</style><style
       id="style154050-6">.cls-1{clip-path:url(#clip-path);}.cls-2{fill:none;}.cls-3{clip-path:url(#clip-path-2);}.cls-4{clip-path:url(#clip-path-3);}.cls-5{clip-path:url(#clip-path-5);}.cls-6{clip-path:url(#clip-path-6);}.cls-7{mask:url(#mask);}.cls-8{fill:url(#radial-gradient);}.cls-9{fill:url(#radial-gradient-2);}.cls-10{fill:url(#linear-gradient);}</style><style
       id="style154050-5">.cls-1{clip-path:url(#clip-path);}.cls-2{fill:none;}.cls-3{clip-path:url(#clip-path-2);}.cls-4{clip-path:url(#clip-path-3);}.cls-5{clip-path:url(#clip-path-5);}.cls-6{clip-path:url(#clip-path-6);}.cls-7{mask:url(#mask);}.cls-8{fill:url(#radial-gradient);}.cls-9{fill:url(#radial-gradient-2);}.cls-10{fill:url(#linear-gradient);}</style><style
       id="style154050-0">.cls-1{clip-path:url(#clip-path);}.cls-2{fill:none;}.cls-3{clip-path:url(#clip-path-2);}.cls-4{clip-path:url(#clip-path-3);}.cls-5{clip-path:url(#clip-path-5);}.cls-6{clip-path:url(#clip-path-6);}.cls-7{mask:url(#mask);}.cls-8{fill:url(#radial-gradient);}.cls-9{fill:url(#radial-gradient-2);}.cls-10{fill:url(#linear-gradient);}</style><style
       id="style154050-7">.cls-1{clip-path:url(#clip-path);}.cls-2{fill:none;}.cls-3{clip-path:url(#clip-path-2);}.cls-4{clip-path:url(#clip-path-3);}.cls-5{clip-path:url(#clip-path-5);}.cls-6{clip-path:url(#clip-path-6);}.cls-7{mask:url(#mask);}.cls-8{fill:url(#radial-gradient);}.cls-9{fill:url(#radial-gradient-2);}.cls-10{fill:url(#linear-gradient);}</style><style
       id="style154050-2">.cls-1{clip-path:url(#clip-path);}.cls-2{fill:none;}.cls-3{clip-path:url(#clip-path-2);}.cls-4{clip-path:url(#clip-path-3);}.cls-5{clip-path:url(#clip-path-5);}.cls-6{clip-path:url(#clip-path-6);}.cls-7{mask:url(#mask);}.cls-8{fill:url(#radial-gradient);}.cls-9{fill:url(#radial-gradient-2);}.cls-10{fill:url(#linear-gradient);}</style><style
       id="style154050-06">.cls-1{clip-path:url(#clip-path);}.cls-2{fill:none;}.cls-3{clip-path:url(#clip-path-2);}.cls-4{clip-path:url(#clip-path-3);}.cls-5{clip-path:url(#clip-path-5);}.cls-6{clip-path:url(#clip-path-6);}.cls-7{mask:url(#mask);}.cls-8{fill:url(#radial-gradient);}.cls-9{fill:url(#radial-gradient-2);}.cls-10{fill:url(#linear-gradient);}</style><style
       id="style154050-1">.cls-1{clip-path:url(#clip-path);}.cls-2{fill:none;}.cls-3{clip-path:url(#clip-path-2);}.cls-4{clip-path:url(#clip-path-3);}.cls-5{clip-path:url(#clip-path-5);}.cls-6{clip-path:url(#clip-path-6);}.cls-7{mask:url(#mask);}.cls-8{fill:url(#radial-gradient);}.cls-9{fill:url(#radial-gradient-2);}.cls-10{fill:url(#linear-gradient);}</style></defs><g
     inkscape:label="Layer 1"
     inkscape:groupmode="layer"
     id="layer1"><g
       id="g158419"
       transform="translate(2.3226095,-1.000391)"><path
         d="m 19.743299,36.240627 c -2.092664,2.212365 -1.232422,6.361154 -0.752712,12.357623 0.801257,10.055056 1.179179,12.556454 -3.235302,15.674714 3.781827,-0.308916 7.356946,0.607164 11.029677,1.980556 4.900455,-4.329678 3.713968,-10.44205 3.11159,-16.721247 -0.980821,-10.417803 -4.56116,-12.397874 -8.44321,-13.032195 -0.571058,-0.09166 -1.140029,-0.172159 -1.710043,-0.259451 M 8.395207,33.533123 C 5.8437134,32.1704 2.5901413,29.539034 1.7747909,25.643391 c 2.6433641,3.173545 9.4793631,4.038705 16.2120071,4.106114 11.777691,0.130453 17.423027,4.287487 18.8157,18.507821 1.319072,13.578254 -5.989851,17.141703 -13.083191,23.69781 -5.497613,-3.800107 -14.4116591,-3.66529 -20.0585614,-2.37434 3.013978,-2.367065 5.784186,-3.82387 8.4118904,-4.615801 1.749715,-2.781702 1.042939,-6.771911 0.159729,-12.717459 -1.427646,-9.595804 0.756366,-12.699031 4.673389,-16.464222 -3.312557,-0.52957 -6.371426,-1.112486 -8.510547,-2.250191 m 48.908501,4.84567 c 2.88609,0.244418 6.1287,1.641088 7.598106,5.673974 l -4.417613,3.048911 c -1.07739,-2.623121 -2.392808,-5.209386 -5.81394,-4.752558 -0.534519,0.811329 -1.060164,3.465003 0.400368,4.972728 1.607211,1.654181 4.120077,2.349607 6.532721,3.610005 1.876037,0.974759 3.74842,2.119738 3.74842,5.854376 0,1.086299 -0.596114,3.651226 -1.979391,4.577975 l -6.879324,4.63229 c -4.069444,-0.680877 -6.03422,-3.306423 -7.22436,-6.066302 1.429212,-1.229846 3.028594,-2.136226 4.525665,-3.321941 0.773069,2.175508 1.872383,5.482416 5.526844,5.272915 0.687463,-1.020345 1.188574,-3.990694 -0.04437,-5.220055 -1.630701,-1.629934 -4.121122,-2.345242 -6.53742,-3.60952 -1.868207,-0.974759 -3.742678,-2.540194 -3.742678,-5.858256 0,-1.07854 0.592983,-3.60467 2.923674,-5.260792 z m 15.653476,6.324298 c 0.01357,0.264301 0.02766,0.530541 0.02766,0.801631 v 13.279037 c 0,1.660486 1.00379,3.020784 2.325994,3.509619 l -4.797101,3.497495 C 67.497155,63.929131 67.132805,61.674575 67.132283,58.783759 V 45.504722 c 0,-1.660001 -1.00379,-3.02127 -2.325472,-3.50768 l 4.790315,-3.498465 c 1.859333,1.150798 2.704959,2.462602 3.083403,3.965477 l 5.485085,-3.965477 c 3.335002,1.053807 5.323789,3.941229 5.323789,7.006145 v 13.278067 c 0,1.661456 1.000658,3.021754 2.328082,3.510589 l -4.797623,3.497495 c -3.018154,-1.861742 -3.37624,-4.116298 -3.37624,-7.007114 V 45.504722 c 0,-1.940305 -1.247037,-2.303051 -2.020628,-2.741936 z m 18.06351,7.720483 4.890537,-3.615824 -3.560503,-6.4048 c -1.529956,1.768146 -1.954335,6.064362 -1.330034,10.020624 m 0.504244,2.313236 c 0.24377,0.875828 0.553833,1.695402 0.919227,2.434958 2.055602,4.155095 7.448816,4.449947 9.776375,3.603216 l -6.536375,4.967879 C 89.289249,65.362173 85.86342,59.883637 85.86342,52.372654 85.86081,44.991639 89.238094,41.510148 92.240588,40.074681 l 3.944167,-1.903933 5.155705,9.30968 -9.815522,7.256382"
         id="path123806"
         style="fill:#253b56;fill-opacity:1;stroke-width:0.503132"
         sodipodi:nodetypes="cccccccccccccccccccccccscccccccscccsscccsccccssccssccccccccccccccc" /><path
         d="m 100.62168,41.997042 4.7971,-3.498465 c 3.01033,1.865622 3.37259,4.116298 3.37259,7.006145 V 58.01753 c 0,1.782694 1.35978,2.804494 2.55984,3.142023 l 2.19811,-1.721105 V 45.504722 c 0,-1.660001 -1.00431,-3.02127 -2.33278,-3.50768 l 4.79814,-3.498465 c 3.01346,1.865622 3.38042,4.116298 3.38042,7.006145 v 13.786785 c 0,2.79916 1.06121,5.428586 1.06121,8.623954 0,3.615339 -4.30695,6.441172 -10.1971,6.441172 -5.25541,0 -10.16213,-2.192967 -10.284798,-5.725864 -0.04855,-1.257973 0.420198,-2.929613 1.881258,-4.250145 l 4.23805,3.534837 c -1.13377,1.309378 -1.22564,4.825302 3.66177,4.825302 3.38198,0 5.7064,-1.770571 5.38956,-4.491653 -0.31633,-2.802555 -1.41721,-5.076024 -1.41721,-6.276287 l -4.93647,3.837448 c -3.42166,-0.578066 -5.84004,-4.397086 -5.84004,-6.518764 V 45.504722 c 0,-1.660001 -1.00223,-3.02127 -2.32965,-3.50768 m 30.78966,20.291486 -4.79919,3.502345 c -3.01345,-1.861742 -3.37833,-4.116298 -3.37833,-7.008084 V 34.471026 c 0,-1.660001 -0.81691,-3.066855 -2.30302,-3.49507 l 4.76526,-3.513984 c 3.02076,1.911208 3.38563,4.114843 3.38563,7.009054 v 24.311763 c 0,1.661456 1.00327,3.021754 2.32965,3.505739 m 11.82624,-16.783806 c 0,-1.408309 -2.05456,-3.02127 -4.25319,-3.101772 -2.04829,4.200195 -2.08118,10.013835 -1.08679,14.043326 0.72975,2.969379 2.69035,3.570723 3.90137,4.155094 1.34987,-1.142069 1.43861,-1.309863 1.43861,-2.498488 z m -4.1822,20.221167 c -5.09046,-1.130915 -7.23532,-6.347091 -6.50819,-14.924004 0.35444,-4.160914 2.21638,-7.954232 4.2939,-9.335383 l 5.1056,-3.141539 c 4.03969,0.847702 7.14397,3.904373 7.14397,7.179759 v 13.786785 c 0,1.2313 1.59678,2.445628 3.37885,2.667252 L 147.9,65.725889 c -2.01384,-0.619772 -3.52031,-2.040205 -4.20359,-4.075076 l -4.64103,4.075076 m 20.32948,-21.022798 c 0.011,0.264301 0.0245,0.530541 0.0245,0.801631 v 13.278067 c 0,1.661456 1.00483,3.021754 2.3333,3.510589 l -4.79345,3.497495 c -3.01606,-1.861742 -3.38511,-4.116298 -3.38511,-7.008084 V 45.504722 c 0,-1.660001 -1.00535,-3.02127 -2.32651,-3.50768 l 4.79292,-3.498465 c 1.85933,1.150798 2.7107,2.462602 3.08079,3.965477 l 5.48196,-3.965477 c 3.33395,1.051868 5.32483,3.941229 5.32692,7.006145 v 13.278067 c 0,1.661456 1.00222,3.021754 2.32651,3.510589 l -4.79344,3.497495 c -3.01607,-1.861742 -3.37781,-4.116298 -3.37781,-7.008084 V 45.504722 c 0,-1.940305 -1.24495,-2.303051 -2.01645,-2.741936 z m 22.50461,-6.164747 -4.75117,2.928158 c -2.0817,1.381151 -3.93947,5.174469 -4.29077,9.335383 -0.73653,8.576913 2.34375,13.793089 7.43107,14.924004 l 4.5643,-4.047434 c 0.61177,1.604716 1.86559,2.96162 4.03342,4.022701 l 4.70367,-3.407778 c -1.32116,-0.488835 -3.38042,-1.56107 -3.38042,-3.510589 V 34.471026 c 0,-2.894211 -0.68224,-5.097846 -3.70092,-7.009054 l -4.76526,3.513984 c 1.47933,0.428215 2.62405,2.083851 2.62405,3.742397 l 0.0167,5.719559 c -0.67076,-0.781262 -1.65785,-1.585318 -2.48468,-1.899568 m 2.46797,19.308967 c 0,1.444196 -0.7287,1.996559 -2.1031,3.057156 -1.20789,-0.588251 -2.92785,-1.738079 -3.65707,-4.710368 -0.99387,-4.032885 -1.04503,-9.468261 0.29388,-13.299405 2.21846,0.016 5.44698,3.066855 5.44698,4.385933 l 0.0193,10.566684 M 48.49667,62.293378 43.699569,65.790873 C 40.680893,63.929131 40.319675,61.674575 40.319675,58.783759 V 45.504722 c 0,-1.660001 -1.004833,-3.02127 -2.330169,-3.50768 l 4.793969,-3.498465 c 3.015022,1.868047 3.385113,4.116298 3.385113,7.006145 v 13.279037 c 0,1.660486 1.003268,3.020784 2.328082,3.509619 m -6.017516,-31.250983 -4.824766,3.522228 c 0.992305,1.194929 2.505558,2.90391 4.756907,2.90391 2.248738,0 4.695834,-1.930121 5.541982,-4.170613 -2.787956,0.923839 -4.304341,-0.867584 -5.474123,-2.255525"
         id="path123808"
         style="fill:#253b56;fill-opacity:1;stroke-width:0.503132" /></g></g></svg>
