<?xml version="1.0" encoding="UTF-8" standalone="no"?>
<!-- Created with Inkscape (http://www.inkscape.org/) -->

<svg
   width="200"
   height="100"
   viewBox="0 0 200 100"
   version="1.1"
   id="svg152859"
   inkscape:version="1.2 (dc2aedaf03, 2022-05-15)"
   sodipodi:docname="brands template.svg"
   xml:space="preserve"
   inkscape:export-filename="brands\Ascend_logo.svg"
   inkscape:export-xdpi="96"
   inkscape:export-ydpi="96"
   xmlns:inkscape="http://www.inkscape.org/namespaces/inkscape"
   xmlns:sodipodi="http://sodipodi.sourceforge.net/DTD/sodipodi-0.dtd"
   xmlns="http://www.w3.org/2000/svg"
   xmlns:svg="http://www.w3.org/2000/svg"><sodipodi:namedview
     id="namedview152861"
     pagecolor="#ffffff"
     bordercolor="#eeeeee"
     borderopacity="1"
     inkscape:showpageshadow="0"
     inkscape:pageopacity="0"
     inkscape:pagecheckerboard="0"
     inkscape:deskcolor="#ffffff"
     inkscape:document-units="px"
     showgrid="false"
     inkscape:zoom="3.3638608"
     inkscape:cx="129.01842"
     inkscape:cy="54.699053"
     inkscape:window-width="1920"
     inkscape:window-height="1017"
     inkscape:window-x="-8"
     inkscape:window-y="-8"
     inkscape:window-maximized="1"
     inkscape:current-layer="layer1" /><defs
     id="defs152856"><style
       id="style154050">.cls-1{clip-path:url(#clip-path);}.cls-2{fill:none;}.cls-3{clip-path:url(#clip-path-2);}.cls-4{clip-path:url(#clip-path-3);}.cls-5{clip-path:url(#clip-path-5);}.cls-6{clip-path:url(#clip-path-6);}.cls-7{mask:url(#mask);}.cls-8{fill:url(#radial-gradient);}.cls-9{fill:url(#radial-gradient-2);}.cls-10{fill:url(#linear-gradient);}</style></defs><g
     inkscape:label="Layer 1"
     inkscape:groupmode="layer"
     id="layer1"><g
       id="g155102"
       transform="matrix(1.0613534,0,0,1.0613534,-6.9600678,29.43711)"><path
         fill="#1e4a6e"
         d="m 99.068911,-24.233784 c -15.875724,0 -27.611702,10.12831 -27.611702,20.9800702 0,5.5866471 3.175145,10.3292684 7.113932,13.5847968 l 0.321533,-0.200959 C 75.757721,7.5176634 72.90411,3.4583011 72.90411,-2.128346 c 0.844026,-11.856553 15.473807,-18.528377 28.37534,-18.528377 9.20391,0 25.7227,2.130161 25.7227,17.4833926 0,8.0383412 -8.56084,18.4479934 -26.56672,18.4479934 -9.16371,0 -16.317834,-4.94358 -16.317834,-12.0173204 0,-6.1091393 4.782813,-10.4900353 11.896745,-10.4900353 1.969394,0 3.818212,0.4823005 5.224919,0.8440258 -2.974183,-0.5626839 -7.556038,0.2411503 -9.96754,2.1301604 V 6.1109537 h 8.76179 V -5.7054079 c 1.64786,0.281342 2.97419,0.9244093 3.85841,1.4870932 V 6.1109537 h 2.29092 c -1.80862,2.049777 -5.14454,3.2555282 -8.07853,2.8134194 v 0.4421088 c 8.35987,0.6430671 11.93694,-3.2957199 11.93694,-7.797191 0,-5.2651135 -4.94358,-8.3196831 -9.96755,-8.9627504 v -7.8373825 h -8.761788 v 7.8775742 c -5.707223,1.1655595 -11.29387,4.5416628 -11.29387,10.1283099 0,8.6412169 12.057512,13.9867139 22.507358,13.9867139 15.9561,0 28.25477,-7.7168078 28.25477,-18.5283767 0,-13.1024963 -17.76474,-22.4671633 -31.711259,-22.4671633 M 111.247,1.8506329 c 0,-3.8182121 -2.61246,-6.8727818 -7.35508,-8.3598749 v -8.7216 h 8.80198 V 6.070762 h -2.77323 c 0.9646,-1.366518 1.32633,-2.8938028 1.32633,-4.2201291"
         id="path155027"
         style="stroke-width:0.401917" /><polyline
         fill="#1e4a6e"
         points="100.7,198.2 100.7,274.3 106.6,275.1 106.6,279.6 77.3,279.6 77.3,275.1 83.6,274.3 83.6,239.7    46.2,239.7 46.2,274.3 52,275.1 52,279.6 23.3,279.6 23.3,275.1 29,274.3 29,198.2 23.3,197.4 23.3,193 52,193 52,197.4    46.2,198.2 46.2,230.7 83.6,230.7 83.6,198.2 77.3,197.4 77.3,193 106.6,193 106.6,197.4  "
         id="polyline155029"
         transform="matrix(0.40191706,0,0,0.40191706,20.293167,-50.117243)" /><path
         fill="#1e4a6e"
         d="m 77.164431,29.703485 c 0,2.331119 -1.567477,4.059362 -3.737829,4.059362 -2.210543,0 -3.737828,-1.567476 -3.737828,-3.898595 0,-2.210544 1.527285,-3.938787 3.737828,-3.938787 2.170352,-0.04019 3.737829,1.688051 3.737829,3.77802 m -0.803834,30.62608 2.210544,0.321534 v 1.567476 H 67.759572 v -1.567476 l 2.210544,-0.321534 V 39.389686 l -2.210544,-0.321533 v -1.567477 h 8.601025 z"
         id="path155031"
         style="stroke-width:0.401917" /><polyline
         fill="#1e4a6e"
         points="156.7,275.6 162.1,274.8 162.1,195.2 156.7,194.4 156.7,190.4 178.1,190.4 178.1,274.8    183.6,275.6 183.6,279.6 156.7,279.6  "
         id="polyline155033"
         transform="matrix(0.40191706,0,0,0.40191706,20.293167,-50.117243)" /><path
         fill="#1e4a6e"
         d="m 107.14744,37.500676 h 5.8278 v 2.331119 h -5.8278 v 14.710164 c 0,3.818212 0.80384,5.023964 4.22013,5.023964 1.28614,0 2.37131,0 3.4163,-0.241151 v 1.688052 c -3.13496,1.125368 -5.74742,1.567477 -7.95796,1.567477 -4.94358,0 -6.10914,-2.250736 -6.10914,-6.59144 V 39.831795 H 96.2153 v -2.331119 h 4.70243 v -5.18473 l 6.26991,-1.88901"
         id="path155035"
         style="stroke-width:0.401917" /><path
         fill="#1e4a6e"
         d="m 134.83953,49.960105 c 0,-7.837383 -2.33112,-11.253678 -6.06895,-11.253678 -3.65744,0 -5.94837,3.255528 -5.94837,11.253678 0,7.837383 2.33112,11.092911 5.94837,11.092911 3.8986,0.04019 6.06895,-3.094762 6.06895,-11.092911 m 7.07374,0.160767 c 0,7.716807 -5.18473,12.861346 -13.30346,12.861346 -7.87757,0 -12.86134,-3.376104 -12.86134,-12.861346 0,-7.957958 5.18473,-13.303455 13.30345,-13.303455 7.99815,0 12.86135,4.782813 12.86135,13.303455"
         id="path155037"
         style="stroke-width:0.401917" /><path
         fill="#1e4a6e"
         d="m 171.89628,60.651099 v 1.567476 h -10.81157 v -1.567476 l 2.17036,-0.321534 V 46.262468 c 0,-3.898595 -1.40671,-5.667031 -4.3809,-5.667031 -1.36652,0 -3.53687,0.964601 -5.10435,2.049777 v 17.644159 l 2.21055,0.321534 v 1.567477 h -10.85176 v -1.567477 l 2.21054,-0.321534 V 39.510261 l -2.21054,-0.321533 v -1.688052 h 8.64121 v 3.416295 c 2.69285,-2.170352 5.26512,-3.898595 8.92256,-3.898595 4.8632,0 7.03355,2.853611 7.03355,8.48045 v 14.870931"
         id="path155039"
         style="stroke-width:0.401917" /></g></g></svg>
