<?xml version="1.0" encoding="UTF-8" standalone="no"?>
<!-- Created with Inkscape (http://www.inkscape.org/) -->

<svg
   width="200"
   height="100"
   viewBox="0 0 200 100"
   version="1.1"
   id="svg152859"
   inkscape:version="1.2 (dc2aedaf03, 2022-05-15)"
   sodipodi:docname="brands template.svg"
   xml:space="preserve"
   inkscape:export-filename="brands\Ascend_logo.svg"
   inkscape:export-xdpi="96"
   inkscape:export-ydpi="96"
   xmlns:inkscape="http://www.inkscape.org/namespaces/inkscape"
   xmlns:sodipodi="http://sodipodi.sourceforge.net/DTD/sodipodi-0.dtd"
   xmlns="http://www.w3.org/2000/svg"
   xmlns:svg="http://www.w3.org/2000/svg"><sodipodi:namedview
     id="namedview152861"
     pagecolor="#ffffff"
     bordercolor="#eeeeee"
     borderopacity="1"
     inkscape:showpageshadow="0"
     inkscape:pageopacity="0"
     inkscape:pagecheckerboard="0"
     inkscape:deskcolor="#ffffff"
     inkscape:document-units="px"
     showgrid="false"
     inkscape:zoom="3.3638608"
     inkscape:cx="129.01842"
     inkscape:cy="54.699053"
     inkscape:window-width="1920"
     inkscape:window-height="1017"
     inkscape:window-x="-8"
     inkscape:window-y="-8"
     inkscape:window-maximized="1"
     inkscape:current-layer="layer1" /><defs
     id="defs152856"><style
       id="style154050">.cls-1{clip-path:url(#clip-path);}.cls-2{fill:none;}.cls-3{clip-path:url(#clip-path-2);}.cls-4{clip-path:url(#clip-path-3);}.cls-5{clip-path:url(#clip-path-5);}.cls-6{clip-path:url(#clip-path-6);}.cls-7{mask:url(#mask);}.cls-8{fill:url(#radial-gradient);}.cls-9{fill:url(#radial-gradient-2);}.cls-10{fill:url(#linear-gradient);}</style><clipPath
       clipPathUnits="userSpaceOnUse"
       id="clipPath18"><path
         d="m 345.023,688.457 c 19.45,4.949 39.782,7.637 60.758,7.637 37.317,0 72.676,-8.43 104.364,-23.211 52.25,24.43 94.449,66.656 118.918,118.812 -14.879,31.758 -23.219,67.157 -23.219,104.539 0,37.375 8.34,72.746 23.219,104.456 0,0.1 -0.024,0.1 -0.024,0.13 L 345.023,836.836 Z"
         id="path16" /></clipPath><linearGradient
       x1="0"
       y1="0"
       x2="1"
       y2="0"
       gradientUnits="userSpaceOnUse"
       gradientTransform="matrix(-265.098,-135.074,-135.074,265.098,620.884,862.91)"
       spreadMethod="pad"
       id="linearGradient26"><stop
         style="stop-opacity:1;stop-color:#a49ac8"
         offset="0"
         id="stop20" /><stop
         style="stop-opacity:1;stop-color:#7f74b0"
         offset="0.71"
         id="stop22" /><stop
         style="stop-opacity:1;stop-color:#6b61a2"
         offset="1"
         id="stop24" /></linearGradient><clipPath
       clipPathUnits="userSpaceOnUse"
       id="clipPath36"><path
         d="m 652.273,896.234 c 0,-37.382 -8.351,-72.781 -23.21,-104.539 24.492,-52.156 66.667,-94.382 118.902,-118.812 31.691,14.781 67.062,23.211 104.406,23.211 20.934,0 41.313,-2.688 60.719,-7.578 v 148.32 L 629.117,1000.82 c -0.039,-0.03 -0.054,-0.12 -0.054,-0.13 14.859,-31.71 23.21,-67.081 23.21,-104.456 z"
         id="path34" /></clipPath><linearGradient
       x1="0"
       y1="0"
       x2="1"
       y2="0"
       gradientUnits="userSpaceOnUse"
       gradientTransform="matrix(-259.636,132.291,132.291,259.636,892.764,732.715)"
       spreadMethod="pad"
       id="linearGradient44"><stop
         style="stop-opacity:1;stop-color:#a49ac8"
         offset="0"
         id="stop38" /><stop
         style="stop-opacity:1;stop-color:#7f74b0"
         offset="0.71"
         id="stop40" /><stop
         style="stop-opacity:1;stop-color:#6b61a2"
         offset="1"
         id="stop42" /></linearGradient><clipPath
       clipPathUnits="userSpaceOnUse"
       id="clipPath54"><path
         d="m 605.844,449.527 c 0,37.325 8.34,72.774 23.219,104.512 -24.469,52.227 -66.668,94.375 -118.918,118.844 -31.688,-14.84 -67.047,-23.199 -104.364,-23.199 -20.976,0 -41.308,2.656 -60.758,7.539 V 508.883 L 629,344.898 c 0.039,0.063 0.063,0.102 0.063,0.153 -14.879,31.703 -23.219,67.133 -23.219,104.476 z"
         id="path52" /></clipPath><linearGradient
       x1="0"
       y1="0"
       x2="1"
       y2="0"
       gradientUnits="userSpaceOnUse"
       gradientTransform="matrix(255.533,-141.644,-141.644,-255.533,367.617,621.167)"
       spreadMethod="pad"
       id="linearGradient62"><stop
         style="stop-opacity:1;stop-color:#a49ac8"
         offset="0"
         id="stop56" /><stop
         style="stop-opacity:1;stop-color:#7f74b0"
         offset="0.71"
         id="stop58" /><stop
         style="stop-opacity:1;stop-color:#6b61a2"
         offset="1"
         id="stop60" /></linearGradient><clipPath
       clipPathUnits="userSpaceOnUse"
       id="clipPath72"><path
         d="m 913.09,657.203 c -19.406,-4.863 -39.785,-7.558 -60.719,-7.558 -37.344,0 -72.715,8.339 -104.406,23.238 -52.235,-24.469 -94.41,-66.617 -118.902,-118.844 14.859,-31.738 23.21,-67.187 23.21,-104.512 0,-37.363 -8.351,-72.773 -23.21,-104.476 0,-0.051 0.054,-0.09 0.078,-0.153 L 913.09,508.883 Z"
         id="path70" /></clipPath><linearGradient
       x1="0"
       y1="0"
       x2="1"
       y2="0"
       gradientUnits="userSpaceOnUse"
       gradientTransform="matrix(255.187,141.452,141.452,-255.187,641.069,482.895)"
       spreadMethod="pad"
       id="linearGradient80"><stop
         style="stop-opacity:1;stop-color:#a49ac8"
         offset="0"
         id="stop74" /><stop
         style="stop-opacity:1;stop-color:#7f74b0"
         offset="0.71"
         id="stop76" /><stop
         style="stop-opacity:1;stop-color:#6b61a2"
         offset="1"
         id="stop78" /></linearGradient></defs><g
     inkscape:label="Layer 1"
     inkscape:groupmode="layer"
     id="layer1"><g
       id="g10"
       transform="matrix(0.08670855,0,0,-0.08670855,-26.269455,108.34262)"><g
         id="g12"><g
           id="g14"
           clip-path="url(#clipPath18)"><path
             d="m 345.023,688.457 c 19.45,4.949 39.782,7.637 60.758,7.637 37.317,0 72.676,-8.43 104.364,-23.211 52.25,24.43 94.449,66.656 118.918,118.812 -14.879,31.758 -23.219,67.157 -23.219,104.539 0,37.375 8.34,72.746 23.219,104.456 0,0.1 -0.024,0.1 -0.024,0.13 L 345.023,836.836 V 688.457"
             style="fill:url(#linearGradient26);fill-opacity:1;fill-rule:nonzero;stroke:none"
             id="path28" /></g></g><g
         id="g30"><g
           id="g32"
           clip-path="url(#clipPath36)"><path
             d="m 652.273,896.234 c 0,-37.382 -8.351,-72.781 -23.21,-104.539 24.492,-52.156 66.667,-94.382 118.902,-118.812 31.691,14.781 67.062,23.211 104.406,23.211 20.934,0 41.313,-2.688 60.719,-7.578 v 148.32 L 629.117,1000.82 c -0.039,-0.03 -0.054,-0.12 -0.054,-0.13 14.859,-31.71 23.21,-67.081 23.21,-104.456"
             style="fill:url(#linearGradient44);fill-opacity:1;fill-rule:nonzero;stroke:none"
             id="path46" /></g></g><g
         id="g48"><g
           id="g50"
           clip-path="url(#clipPath54)"><path
             d="m 605.844,449.527 c 0,37.325 8.34,72.774 23.219,104.512 -24.469,52.227 -66.668,94.375 -118.918,118.844 -31.688,-14.84 -67.047,-23.199 -104.364,-23.199 -20.976,0 -41.308,2.656 -60.758,7.539 V 508.883 L 629,344.898 c 0.039,0.063 0.063,0.102 0.063,0.153 -14.879,31.703 -23.219,67.133 -23.219,104.476"
             style="fill:url(#linearGradient62);fill-opacity:1;fill-rule:nonzero;stroke:none"
             id="path64" /></g></g><g
         id="g66"><g
           id="g68"
           clip-path="url(#clipPath72)"><path
             d="m 913.09,657.203 c -19.406,-4.863 -39.785,-7.558 -60.719,-7.558 -37.344,0 -72.715,8.339 -104.406,23.238 -52.235,-24.469 -94.41,-66.617 -118.902,-118.844 14.859,-31.738 23.21,-67.187 23.21,-104.512 0,-37.363 -8.351,-72.773 -23.21,-104.476 0,-0.051 0.054,-0.09 0.078,-0.153 L 913.09,508.883 v 148.32"
             style="fill:url(#linearGradient80);fill-opacity:1;fill-rule:nonzero;stroke:none"
             id="path82" /></g></g><path
         d="m 629.063,345.051 c 14.859,31.703 23.21,67.113 23.21,104.476 0,37.325 -8.351,72.774 -23.21,104.512 -14.879,-31.738 -23.219,-67.187 -23.219,-104.512 0,-37.343 8.34,-72.773 23.219,-104.476 z m 223.308,351.043 c -37.344,0 -72.715,-8.43 -104.406,-23.211 31.691,-14.899 67.062,-23.238 104.406,-23.238 20.934,0 41.313,2.695 60.719,7.558 v 31.313 c -19.406,4.89 -39.785,7.578 -60.719,7.578 z m -507.348,-7.637 v -31.234 c 19.45,-4.883 39.782,-7.539 60.758,-7.539 37.317,0 72.676,8.359 104.364,23.199 -31.688,14.781 -67.047,23.211 -104.364,23.211 -20.976,0 -41.308,-2.688 -60.758,-7.637 z m 307.25,207.777 c 0,-37.382 -8.351,-72.781 -23.21,-104.539 -14.879,31.758 -23.219,67.157 -23.219,104.539 0,37.375 8.34,72.746 23.219,104.456 14.859,-31.71 23.21,-67.081 23.21,-104.456"
         style="fill:#5f569a;fill-opacity:1;fill-rule:nonzero;stroke:none"
         id="path84" /><path
         d="m 1102.87,539.859 v 86.231 h 64.79 c 34.01,0 54.27,-15.293 54.27,-40.977 v -2.363 c 0,-26.074 -21.6,-42.891 -55.09,-42.891 z m 80.8,-13.027 c 34.84,5.547 55.57,26.504 55.57,56.484 v 2.422 c 0,33.828 -28.41,56.563 -70.7,56.563 h -82.93 V 445.406 h 17.26 v 78.535 h 61.34 l 61.4,-77.988 0.41,-0.547 H 1248 l -64.33,81.426"
         style="fill:#5f569a;fill-opacity:1;fill-rule:nonzero;stroke:none"
         id="path86" /><path
         d="m 1322.4,461.617 v 74.981 h 111.17 v 16.211 H 1322.4 v 73.281 h 123.69 v 16.211 H 1305.12 V 445.406 h 142.36 v 16.211 H 1322.4"
         style="fill:#5f569a;fill-opacity:1;fill-rule:nonzero;stroke:none"
         id="path88" /><path
         d="m 1593.63,553.043 v -16.23 h 64.88 v -57.715 c -12.62,-10.41 -34.98,-21.407 -60.29,-21.407 -48.89,0 -81.76,34.629 -81.76,86.133 v 0.606 c 0,47.832 34.55,85.273 78.65,85.273 30.98,0 48.42,-11.582 61.41,-22.91 l 1.13,-0.957 11.33,13.008 -1.19,0.937 c -22.15,18.36 -42.99,25.84 -71.86,25.84 -60.93,0 -97.34,-51.738 -97.34,-101.797 v -0.508 c 0,-59.609 40.76,-101.23 99.02,-101.23 39.75,0 67.17,20.605 77.15,29.492 l 0.47,0.41 v 81.055 h -81.6"
         style="fill:#5f569a;fill-opacity:1;fill-rule:nonzero;stroke:none"
         id="path90" /><path
         d="m 1763.1,461.617 v 74.981 h 111.13 v 16.211 H 1763.1 v 73.281 h 123.61 v 16.211 H 1745.8 V 445.406 h 142.28 v 16.211 H 1763.1"
         style="fill:#5f569a;fill-opacity:1;fill-rule:nonzero;stroke:none"
         id="path92" /><path
         d="M 2107.26,642.301 V 476.227 l -131.31,165.527 -0.39,0.547 h -15.74 V 445.406 h 16.74 v 169.649 l 134.06,-169.102 0.41,-0.547 h 13.01 v 196.895 h -16.78"
         style="fill:#5f569a;fill-opacity:1;fill-rule:nonzero;stroke:none"
         id="path94" /><path
         d="m 2345.15,488.766 -1.03,-0.977 c -21.51,-21.172 -40.57,-29.785 -65.8,-29.785 -45.2,0 -80.55,37.695 -80.55,85.82 v 0.606 c 0,48.633 34.49,85.273 80.29,85.273 31.08,0 50,-14.238 64.4,-28.144 l 1.03,-1.036 12.23,12.676 -1.04,1.016 c -20.56,18.828 -41.38,31.406 -76.36,31.406 -55.22,0 -98.42,-44.707 -98.42,-101.797 v -0.508 c 0,-57.714 42.07,-101.23 97.85,-101.23 38.26,0 60.92,17.285 78.08,34.219 l 1.04,1.015 -11.72,11.446"
         style="fill:#5f569a;fill-opacity:1;fill-rule:nonzero;stroke:none"
         id="path96" /><path
         d="m 2546.73,642.301 -70.8,-103.145 -71.38,102.539 -0.41,0.606 h -21.66 l 84.55,-119.18 v -77.715 h 17.32 v 78.047 l 83.13,118.848 h -20.75"
         style="fill:#5f569a;fill-opacity:1;fill-rule:nonzero;stroke:none"
         id="path98" /><path
         d="M 1121.65,823.012 V 728.43 h -36.04 v 205.109 h 36.04 v -77.133 h 97.87 v 77.133 h 36.04 V 728.43 h -36.04 v 94.582 h -97.87"
         style="fill:#5f569a;fill-opacity:1;fill-rule:nonzero;stroke:none"
         id="path100" /><path
         d="m 1894.58,728.43 h -36.34 v 171.722 h -70.02 v 33.387 h 175.64 v -33.387 h -69.28 V 728.43"
         style="fill:#5f569a;fill-opacity:1;fill-rule:nonzero;stroke:none"
         id="path102" /><path
         d="m 2121.48,728.43 h -36.31 v 171.722 h -70 v 33.387 h 175.61 v -33.387 h -69.3 V 728.43"
         style="fill:#5f569a;fill-opacity:1;fill-rule:nonzero;stroke:none"
         id="path104" /><path
         d="m 1423.9,838.355 c -0.06,0 0.35,2.434 1.54,5.223 3.42,7.953 55.51,89.961 55.51,89.961 h 42.48 l -81.4,-124.215 V 728.43 H 1405 v 80.894 l -81.47,124.215 h 42.48 c 0,0 52.38,-81.914 55.55,-89.961 1.42,-3.598 1.5,-5.223 1.5,-5.223 h 0.84"
         style="fill:#5f569a;fill-opacity:1;fill-rule:nonzero;stroke:none"
         id="path106" /><path
         d="m 1619.43,819.438 30.8,72.511 30.82,-72.511 z m 100.21,-90.981 h 38.15 l -90.24,206.57 h -33.43 l -90.24,-206.57 h 36.88 l 24.47,57.527 h 90 l 24.41,-57.527"
         style="fill:#5f569a;fill-opacity:1;fill-rule:nonzero;stroke:none"
         id="path108" /></g></g></svg>
