<?xml version="1.0" encoding="UTF-8" standalone="no"?>
<!-- Created with Inkscape (http://www.inkscape.org/) -->

<svg
   width="200"
   height="100"
   viewBox="0 0 200 100"
   version="1.1"
   id="svg152859"
   inkscape:version="1.2 (dc2aedaf03, 2022-05-15)"
   sodipodi:docname="brands template.svg"
   xml:space="preserve"
   inkscape:export-filename="brands\Ascend_logo.svg"
   inkscape:export-xdpi="96"
   inkscape:export-ydpi="96"
   xmlns:inkscape="http://www.inkscape.org/namespaces/inkscape"
   xmlns:sodipodi="http://sodipodi.sourceforge.net/DTD/sodipodi-0.dtd"
   xmlns="http://www.w3.org/2000/svg"
   xmlns:svg="http://www.w3.org/2000/svg"><sodipodi:namedview
     id="namedview152861"
     pagecolor="#ffffff"
     bordercolor="#eeeeee"
     borderopacity="1"
     inkscape:showpageshadow="0"
     inkscape:pageopacity="0"
     inkscape:pagecheckerboard="0"
     inkscape:deskcolor="#ffffff"
     inkscape:document-units="px"
     showgrid="false"
     inkscape:zoom="3.3638608"
     inkscape:cx="129.01842"
     inkscape:cy="54.699053"
     inkscape:window-width="1920"
     inkscape:window-height="1017"
     inkscape:window-x="-8"
     inkscape:window-y="-8"
     inkscape:window-maximized="1"
     inkscape:current-layer="layer1" /><defs
     id="defs152856"><style
       id="style154050">.cls-1{clip-path:url(#clip-path);}.cls-2{fill:none;}.cls-3{clip-path:url(#clip-path-2);}.cls-4{clip-path:url(#clip-path-3);}.cls-5{clip-path:url(#clip-path-5);}.cls-6{clip-path:url(#clip-path-6);}.cls-7{mask:url(#mask);}.cls-8{fill:url(#radial-gradient);}.cls-9{fill:url(#radial-gradient-2);}.cls-10{fill:url(#linear-gradient);}</style><clipPath
       id="clp1313"><path
         d="m 173.79,64.47 h 35.95 v 17.693 h -35.95 z"
         id="path13770" /></clipPath><clipPath
       id="clp1314"><path
         d="m 173.79,64.47 h 35.95 v 17.693 h -35.95 z"
         id="path13778" /></clipPath></defs><g
     inkscape:label="Layer 1"
     inkscape:groupmode="layer"
     id="layer1"><g
       id="g155957"
       transform="matrix(0.65338435,0,0,0.65338435,179.45618,105.007)"><path
         d="m 7.4032889,-39.952498 c -3.6989453,-1.931647 -4.2743177,-7.38963 -4.1921418,-20.664669 l 0.082213,-20.344114 -7.069079,-0.0082 1.643979,-3.764675 h 5.4251 v -9.633651 l 12.9873339,-4.816844 v 14.129898 l 6.000506,0.0082 -1.561807,4.1757 -4.438699,-0.0082 v 35.205549 c 0.246599,2.835864 1.232992,4.50447 2.548159,5.721024 H 7.4032889"
         style="fill:#c6003d;fill-rule:nonzero;stroke:none;stroke-width:0.0212664;stroke-linecap:butt;stroke-linejoin:miter;stroke-miterlimit:4;stroke-dasharray:none"
         id="path13762" /><path
         d="m -120.57962,-126.94307 c 0.98639,2.72077 3.28792,5.53197 1.64398,8.68839 -0.7398,3.20575 -3.78116,5.8032 -6.98687,6.32106 -3.37013,0.30411 -6.4937,-0.26304 -9.04182,-2.29334 -1.7262,-9.25554 2.05496,-17.82062 9.37059,-22.92512 l 5.01412,10.20901"
         style="fill:#c6003d;fill-rule:nonzero;stroke:none;stroke-width:0.0212664;stroke-linecap:butt;stroke-linejoin:miter;stroke-miterlimit:4;stroke-dasharray:none"
         id="path13766" /><g
         transform="matrix(8.2198404,0,0,-8.2198404,-1694.2682,534.57355)"
         style="fill:#c6003d;fill-rule:nonzero;stroke:none;stroke-width:0.051;stroke-linecap:butt;stroke-linejoin:miter;stroke-miterlimit:4;stroke-dasharray:none"
         clip-path="url(#clp1313)"
         id="g13772"><path
           d="m 193.02,77.047 c -0.2,-0.681 -2.21,-0.234 -2.84,0.884 0.83,-0.092 1.76,0.642 1.78,1.479 l 1.06,-2.363"
           style="fill:#c6003d;fill-rule:nonzero;stroke:none"
           id="path13774" /></g><g
         transform="matrix(8.2198404,0,0,-8.2198404,-1694.2682,534.57355)"
         style="fill:#c6003d;fill-rule:nonzero;stroke:none;stroke-width:0.051;stroke-linecap:butt;stroke-linejoin:miter;stroke-miterlimit:4;stroke-dasharray:none"
         clip-path="url(#clp1314)"
         id="g13780"><path
           d="m 193.85,77.135 c 0.09,0.041 0.27,0.133 0.32,0.33 l -2.16,4.698 c -0.15,0.018 -0.25,0.031 -0.44,-0.1 l 2.28,-4.928"
           style="fill:#c6003d;fill-rule:nonzero;stroke:none"
           id="path13782" /></g><path
         d="m -92.878763,-107.84835 c 7.562238,-11.46671 1.232954,-30.28191 -15.124507,-32.92047 l 15.124507,32.92047"
         style="fill:#c6003d;fill-rule:nonzero;stroke:none;stroke-width:0.0212664;stroke-linecap:butt;stroke-linejoin:miter;stroke-miterlimit:4;stroke-dasharray:none"
         id="path13784" /><path
         d="m -94.522741,-83.16419 c 2.383773,-2.005637 6.575878,-2.046744 9.288426,-0.76446 1.150782,0.57541 2.219351,1.339832 2.95915,2.342667 l -5.260711,8.15409 c -0.657586,-0.526084 -1.150782,-0.76446 -1.972753,-1.191889 -2.630339,-1.126118 -5.342887,-0.468532 -6.904652,0.953514 v 23.796419 c -0.08221,4.118151 0.657586,7.874607 2.794724,9.822733 h -11.918763 c -2.54817,-1.907023 -3.12354,-4.956564 -3.37014,-7.628047 l -0.0822,-31.646362 c 0.0822,-2.564605 -0.57537,-3.690722 -1.56176,-5.129172 l 12.329781,0.04929 c 0.98636,0.71513 1.068573,1.956349 1.56177,2.909859 l 2.137138,-1.668644"
         style="fill:#c6003d;fill-rule:nonzero;stroke:none;stroke-width:0.0212664;stroke-linecap:butt;stroke-linejoin:miter;stroke-miterlimit:4;stroke-dasharray:none"
         id="path13790" /><path
         d="m -79.480445,-75.338912 c -0.08217,-3.008438 0.575409,-6.608729 -1.397339,-9.206217 h 11.425564 c 0.82197,0.57541 1.232958,1.528882 1.479556,2.433066 0.657582,0.805566 0.57541,1.956349 0.822008,2.909821 l 0.164385,33.717807 c 0.410988,2.005637 1.232958,4.027715 2.712548,5.605927 l -12.247572,0.02464 c -4.027719,-3.879772 -2.712548,-10.258377 -3.041322,-16.842479 l 0.08217,-18.642586"
         style="fill:#c6003d;fill-rule:nonzero;stroke:none;stroke-width:0.0212664;stroke-linecap:butt;stroke-linejoin:miter;stroke-miterlimit:4;stroke-dasharray:none"
         id="path13792" /><path
         d="m -61.314572,-75.0101 c 1.232954,-3.427683 5.096284,-5.145614 7.891045,-7.011531 4.274318,-1.569989 9.041828,-5.482644 13.809305,-2.285119 4.027715,2.622112 7.562275,5.581262 10.110396,9.633642 0.57541,1.569989 0.904185,3.337246 1.315209,5.00589 0,2.244016 0.49316,3.91266 0.410984,6.156672 0.164389,2.433066 0.164389,4.627752 0,7.01153 -0.164385,4.05238 -2.054962,7.677294 -5.260711,10.488497 -4.767514,4.249653 -10.767983,9.066492 -17.261648,5.770312 -5.836083,-2.720767 -12.658559,-8.104761 -12.247576,-15.502609 -0.246598,-5.244269 -0.493197,-9.773367 0.246598,-14.877911 0.246599,-1.479557 0.164389,-3.098871 0.986398,-4.389373 z m 11.918765,23.845748 c 0.575368,2.104292 1.643978,4.677078 4.1921,4.964783 1.479594,0.04933 2.548163,-1.191889 3.452347,-2.244012 2.630334,-5.244269 2.219351,-10.965293 2.219351,-16.932877 -0.821971,-4.43048 0.246598,-10.488501 -4.520916,-13.209268 -1.726155,-0.616516 -2.959146,0.526043 -4.027715,1.578208 -1.890577,2.811165 -2.054967,6.033356 -2.219352,9.608981 -0.575409,5.721024 0.08217,10.463832 0.904185,16.234185"
         style="fill:#c6003d;fill-rule:nonzero;stroke:none;stroke-width:0.0212664;stroke-linecap:butt;stroke-linejoin:miter;stroke-miterlimit:4;stroke-dasharray:none"
         id="path13794" /><path
         d="m -19.311215,-39.952498 c -3.698904,-1.931647 -4.274314,-7.38963 -4.192101,-20.664669 l 0.08217,-20.344114 -6.986824,-0.0082 1.561766,-3.764675 h 5.425058 v -9.633651 l 13.069547,-4.816844 v 14.129898 l 5.9182969,0.0082 -1.5617698,4.1757 -4.3565271,-0.0082 v 35.205549 c 0.246599,2.835864 1.2329959,4.50447 2.5481632,5.721024 H -19.311215"
         style="fill:#c6003d;fill-rule:nonzero;stroke:none;stroke-width:0.0212664;stroke-linecap:butt;stroke-linejoin:miter;stroke-miterlimit:4;stroke-dasharray:none"
         id="path13796" /><path
         d="m -138.33447,-79.325525 c -0.0822,-2.564605 -0.57541,-3.690722 -1.56177,-5.129172 l 12.32976,0.04929 c 0.98635,0.71513 1.06857,1.956349 1.56176,2.909859 l 2.13714,-1.668644 c 2.38378,-2.005637 6.57588,-2.046744 9.28843,-0.76446 1.15078,0.57541 2.21935,1.339832 2.95915,2.342667 l -5.26071,8.15409 c -0.65759,-0.526084 -1.15075,-0.76446 -1.97276,-1.191889 -2.63033,-1.126118 -5.34288,-0.468532 -6.90465,0.953514 v 23.796419 c -0.0822,4.118151 0.65759,7.874607 2.79472,9.822733 h -11.91876 c -2.46595,-1.907023 -3.20571,-4.742849 -3.37013,-7.628047 l -0.0822,-31.646362"
         style="fill:#c6003d;fill-rule:nonzero;stroke:none;stroke-width:0.0212664;stroke-linecap:butt;stroke-linejoin:miter;stroke-miterlimit:4;stroke-dasharray:none"
         id="path13798" /><path
         d="m -231.79404,-66.806723 -4.43874,9.239097 c -3.12354,5.449765 -7.39785,12.132479 -13.97373,13.7929 -2.54812,0.887742 -4.84969,0.08221 -7.31564,-0.09043 l -7.97326,13.028478 c 0.65759,0.64114 1.4796,1.175405 2.30157,1.487775 13.97372,5.342887 19.64542,-0.402764 33.37255,-31.56419 l 13.06955,27.758408 h 17.34386 l -8.21986,-18.733018 4.68534,-9.682972 12.82295,27.988565 16.60406,0.106837 -29.09824,-63.851696 -13.39832,6.649835 10.52139,23.829307 -4.60313,9.362416 -19.2344,-41.493756 -14.05594,7.184134 11.58999,24.988312"
         style="fill:#c6003d;fill-rule:nonzero;stroke:none;stroke-width:0.0212664;stroke-linecap:butt;stroke-linejoin:miter;stroke-miterlimit:4;stroke-dasharray:none"
         id="path13800" /><path
         d="m -178.44729,-55.545544 c 0.32878,-4.627752 2.87694,-8.967837 7.15125,-11.302285 4.27432,-2.630339 9.20622,-3.674243 13.64492,-5.967585 0.7398,-0.616479 1.64398,-1.380939 1.72619,-2.38374 0.0822,-1.241215 -0.57541,-2.194724 -1.64398,-2.622154 -6.74026,-1.430226 -12.24757,2.761878 -17.09726,6.912913 0.57537,-3.049582 1.06857,-6.386828 2.54816,-9.247319 0.65759,-0.76446 1.15078,-1.816587 2.05497,-2.383778 4.76747,-2.34263 10.68577,-3.008435 15.94648,-2.630335 4.35649,0.287705 8.38424,3.386576 9.8638,7.348519 0.73979,1.857694 0.65758,3.961986 0.82197,5.868971 l 0.0822,25.851386 c 0,2.235793 1.06857,4.340085 2.38374,6.148453 h -12.32975 c -1.47956,-1.331614 -2.21935,-3.008476 -2.63034,-5.104512 -3.45234,3.057768 -10.68581,7.586903 -14.96012,4.578427 -4.4387,-1.997418 -8.54864,-8.729462 -7.56224,-15.066961 z m 21.86478,-8.992502 c -0.0822,-1.791922 -1.31517,-1.980972 -2.21935,-1.980972 -2.95915,0.427425 -5.50731,2.901598 -6.98687,5.441538 -1.23299,2.260458 -1.56176,4.167439 -1.64398,6.148453 0,2.137138 -0.16438,3.723568 0.7398,5.342883 0.49316,1.052127 1.47955,1.528881 2.54812,1.808368 1.89058,0.386318 3.61674,-0.139762 5.09633,-1.142564 3.53452,-1.956307 2.87693,-5.868967 2.95915,-9.345975 l -0.4932,-6.271731"
         style="fill:#c6003d;fill-rule:nonzero;stroke:none;stroke-width:0.0212664;stroke-linecap:butt;stroke-linejoin:miter;stroke-miterlimit:4;stroke-dasharray:none"
         id="path13802" /></g></g></svg>
