<?xml version="1.0" encoding="UTF-8" standalone="no"?>
<!-- Created with Inkscape (http://www.inkscape.org/) -->

<svg
   width="200"
   height="100"
   viewBox="0 0 200 100"
   version="1.1"
   id="svg152859"
   inkscape:version="1.2 (dc2aedaf03, 2022-05-15)"
   sodipodi:docname="brands template.svg"
   xml:space="preserve"
   inkscape:export-filename="brands\Ascend_logo.svg"
   inkscape:export-xdpi="96"
   inkscape:export-ydpi="96"
   xmlns:inkscape="http://www.inkscape.org/namespaces/inkscape"
   xmlns:sodipodi="http://sodipodi.sourceforge.net/DTD/sodipodi-0.dtd"
   xmlns="http://www.w3.org/2000/svg"
   xmlns:svg="http://www.w3.org/2000/svg"><sodipodi:namedview
     id="namedview152861"
     pagecolor="#ffffff"
     bordercolor="#eeeeee"
     borderopacity="1"
     inkscape:showpageshadow="0"
     inkscape:pageopacity="0"
     inkscape:pagecheckerboard="0"
     inkscape:deskcolor="#ffffff"
     inkscape:document-units="px"
     showgrid="false"
     inkscape:zoom="3.3638608"
     inkscape:cx="129.01842"
     inkscape:cy="54.699053"
     inkscape:window-width="1920"
     inkscape:window-height="1017"
     inkscape:window-x="-8"
     inkscape:window-y="-8"
     inkscape:window-maximized="1"
     inkscape:current-layer="layer1" /><defs
     id="defs152856"><style
       id="style154050">.cls-1{clip-path:url(#clip-path);}.cls-2{fill:none;}.cls-3{clip-path:url(#clip-path-2);}.cls-4{clip-path:url(#clip-path-3);}.cls-5{clip-path:url(#clip-path-5);}.cls-6{clip-path:url(#clip-path-6);}.cls-7{mask:url(#mask);}.cls-8{fill:url(#radial-gradient);}.cls-9{fill:url(#radial-gradient-2);}.cls-10{fill:url(#linear-gradient);}</style><linearGradient
       id="linearGradient142326"
       inkscape:swatch="gradient"><stop
         style="stop-color:#4170ac;stop-opacity:1;"
         offset="0"
         id="stop142322" /><stop
         style="stop-color:#4170ac;stop-opacity:0;"
         offset="1"
         id="stop142324" /></linearGradient></defs><g
     inkscape:label="Layer 1"
     inkscape:groupmode="layer"
     id="layer1"><g
       id="g148564"
       transform="matrix(0.40397559,0,0,0.40397559,54.980873,-9.6069763)"><path
         style="fill:#f8c933;fill-opacity:1;stroke:#4170ac;stroke-width:3;stroke-dasharray:none;stroke-opacity:1"
         d="m 150.50111,261.05003 c -2.94241,-0.62467 -3.58204,-0.68764 -3.94289,-0.38816 -0.30171,0.2504 -0.40651,0.21741 -0.51802,-0.16305 -0.2272,-0.77516 -0.69846,-3.57317 -0.69846,-4.14692 0,-0.4903 0.0546,-0.4779 0.7276,0.16529 1.11005,1.06086 2.91979,1.77249 4.52438,1.77908 1.26074,0.005 1.51388,-0.0926 2.3151,-0.89377 0.72056,-0.72056 0.89958,-1.10837 0.89958,-1.94869 0,-1.44425 -0.67228,-2.2018 -3.68379,-4.15109 -1.39365,-0.90208 -2.89552,-2.05279 -3.33749,-2.55712 l -0.80358,-0.91698 0.10107,2.39246 c 0.0835,1.97669 0.001,2.65694 -0.47241,3.91437 -1.12582,2.9877 -3.71622,5.38113 -6.67699,6.16928 -1.9827,0.52778 -14.59426,0.53712 -13.90024,0.0103 0.25466,-0.19331 0.46302,-0.46379 0.46302,-0.60106 0,-0.20559 -3.01573,-5.51112 -3.35013,-5.89384 -0.0559,-0.064 -0.69422,0.46732 -1.41847,1.18068 l -1.31682,1.29702 v 1.82065 c 0,1.59814 0.0647,1.83756 0.52917,1.95903 1.51028,0.39495 0.0453,0.60496 -4.16719,0.59742 -3.96216,-0.007 -4.62397,-0.0634 -4.23333,-0.3599 0.6317,-0.47953 0.58473,-1.06831 -0.24028,-3.01195 l -0.70481,-1.66048 -3.85821,0.073 -3.85821,0.073 -0.78858,1.9386 -0.78858,1.9386 0.65449,0.50291 0.65449,0.50292 -2.822633,0.006 c -1.552448,0.003 -2.988273,0.0694 -3.190722,0.14713 -0.271052,0.10401 -0.991695,-1.42673 -2.733619,-5.80659 -1.301041,-3.27132 -2.441176,-5.86496 -2.533632,-5.76365 -0.09246,0.10131 -1.153903,2.77901 -2.358773,5.95044 -1.643356,4.32561 -2.284323,5.7303 -2.565517,5.62239 -0.206163,-0.0791 -1.704559,-0.15008 -3.329768,-0.15771 -2.763271,-0.013 -2.916311,-0.0408 -2.35961,-0.42915 0.766342,-0.53457 0.752888,-0.72376 -0.201072,-2.82767 l -0.796383,-1.75638 h -3.799239 -3.79924 l -0.696044,1.60494 c -0.815187,1.87966 -0.868001,2.57181 -0.233022,3.05383 0.393835,0.29896 0.01593,0.35274 -2.529157,0.3599 -1.92944,0.005 -2.9341,-0.0856 -2.828655,-0.25617 0.08994,-0.14552 0.321394,-0.26458 0.514352,-0.26458 0.542854,0 0.820055,-0.55712 5.298795,-10.64948 2.308685,-5.20237 4.271124,-9.45886 4.360979,-9.45886 0.08985,0 2.181289,4.41384 4.647634,9.80853 4.199168,9.18494 4.937662,10.60462 5.318323,10.22396 0.281774,-0.28177 -6.478206,-18.28948 -7.039372,-18.75198 -0.293153,-0.24161 -0.533003,-0.5095 -0.533003,-0.59531 0,-0.0858 1.250157,-0.15603 2.778125,-0.15603 2.534923,0 3.410707,0.22981 2.38125,0.62485 -0.218281,0.0838 -0.397211,0.36439 -0.397621,0.62362 -0.0011,0.60324 3.458033,10.12861 3.678047,10.12861 0.09083,0 1.104908,-2.53008 2.253501,-5.62239 1.148594,-3.09232 2.170372,-5.71684 2.27062,-5.83227 0.100246,-0.11542 1.242735,2.47377 2.53886,5.75377 1.296128,3.28 2.416125,5.96216 2.488885,5.96036 0.19971,-0.005 3.712231,-9.8456 3.707911,-10.38808 -0.002,-0.25923 -0.182338,-0.53986 -0.400619,-0.62362 -1.016066,-0.38991 -0.170447,-0.62485 2.248959,-0.62485 1.5875,0 2.64583,0.10583 2.64583,0.26458 0,0.14552 -0.18467,0.26458 -0.41037,0.26458 -0.22571,0 -0.57178,0.38696 -0.76905,0.8599 -1.13569,2.72275 -6.50499,18.00222 -6.372611,18.1346 0.409051,0.40905 1.393518,-1.44989 4.594531,-8.67575 4.97376,-11.22755 5.08886,-11.46978 5.32842,-11.21324 0.11968,0.12817 2.09536,4.34069 4.39039,9.36116 2.29504,5.02047 4.2741,9.24287 4.39792,9.38312 0.1242,0.14067 0.19385,-3.71106 0.15535,-8.59124 l -0.0698,-8.84622 -0.65204,-0.32499 c -1.12367,-0.56006 -0.0676,-0.68426 4.82343,-0.56729 4.93132,0.11793 5.47808,0.2545 6.85814,1.7131 1.29599,1.36975 1.6259,3.23233 0.88615,5.00283 -0.2131,0.51002 -1.03517,1.60752 -1.82682,2.43889 l -1.43936,1.51159 2.42213,4.16347 c 1.33217,2.28991 2.51299,4.16514 2.62404,4.16719 0.11105,0.002 0.17058,-4.07417 0.13229,-9.05826 l -0.0696,-9.06198 -0.59531,-0.26118 c -0.32743,-0.14365 -0.59532,-0.35201 -0.59532,-0.46302 0,-0.29094 6.94872,-0.23869 9.07124,0.0682 3.13346,0.45308 5.85224,2.25561 7.35572,4.87679 l 0.76599,1.33544 0.002,-1.39756 c 0.003,-1.78683 0.47384,-2.89476 1.67939,-3.95325 1.1267,-0.98926 2.65548,-1.46316 4.37195,-1.35524 l 1.22719,0.0772 0.23753,-1.22151 c 0.40686,-2.09177 0.44668,-2.07148 -4.06558,-2.07148 -3.67635,0 -4.83289,-0.22187 -3.44789,-0.66145 0.29817,-0.0946 0.52917,-0.40033 0.52917,-0.70028 0,-0.42373 -2.87376,-5.60409 -4.93636,-8.89848 -0.37592,-0.60043 -0.38673,-0.59445 -2.61535,1.44521 l -2.23788,2.04812 0.0264,2.25896 c 0.0353,3.02704 0.19624,3.5252 1.23861,3.83504 0.46843,0.13923 0.85168,0.34759 0.85168,0.46302 0,0.11542 -2.08359,0.20986 -4.6302,0.20986 -2.91042,0 -4.63021,-0.0983 -4.63021,-0.26458 0,-0.14552 0.23812,-0.26458 0.52916,-0.26458 0.29105,0 0.7673,-0.23813 1.05834,-0.52917 0.51563,-0.51563 0.52907,-0.87944 0.52555,-14.22135 -0.002,-7.53071 -0.0741,-13.95499 -0.16019,-14.27619 -0.31311,-1.16784 -2.9667,-1.41395 -3.54734,-0.329 -0.15322,0.28629 -0.25842,4.32136 -0.25961,9.95758 -10e-4,5.21194 -0.11394,10.44956 -0.25073,11.63916 -0.43901,3.8177 -2.26671,6.45469 -5.53635,7.98779 -1.34764,0.63189 -1.78444,0.69722 -4.66196,0.69722 -2.94024,0 -3.28632,-0.0547 -4.68051,-0.73931 -1.92514,-0.94538 -3.95317,-3.14364 -4.74987,-5.14855 -0.58757,-1.47865 -0.6081,-1.83618 -0.74628,-12.9979 l -0.14209,-11.47742 -0.59531,-0.39495 c -0.32743,-0.21723 -0.59532,-0.4995 -0.59532,-0.62727 0,-0.12777 1.905,-0.23231 4.23334,-0.23231 4.14551,0 5.03975,0.19628 3.43806,0.75463 -0.48278,0.1683 -0.90499,0.56583 -1.07451,1.01171 -0.18413,0.4843 -0.25121,4.29655 -0.19692,11.19188 0.0804,10.2089 0.0964,10.4857 0.67371,11.64803 0.83655,1.68421 2.10386,2.46634 4.21399,2.6007 3.02137,0.19239 4.92949,-1.0054 5.61821,-3.52674 0.37597,-1.37638 0.40287,-21.65582 0.0297,-22.35318 -0.14431,-0.26965 -0.62056,-0.56894 -1.05834,-0.66509 -0.43777,-0.0961 -0.79595,-0.29001 -0.79595,-0.4308 0,-0.16234 4.42827,-0.22724 12.10469,-0.17742 11.96671,0.0777 12.11856,0.0854 13.32173,0.67826 2.80995,1.38457 4.33068,3.77959 4.32317,6.80865 -0.006,2.50102 -0.68542,3.82435 -3.45866,6.73856 l -2.21484,2.32741 3.60917,6.18264 c 3.9551,6.77521 4.50665,7.63784 4.88349,7.63784 0.15993,0 0.22654,-6.76916 0.18042,-18.33423 -0.0679,-17.03387 -0.1064,-18.385 -0.54224,-19.05 -0.2586,-0.39456 -0.71375,-0.71577 -1.01424,-0.71577 -0.3185,0 -0.49929,-0.13749 -0.43487,-0.33072 0.0799,-0.2398 0.97295,-0.33073 3.24788,-0.33073 h 3.13765 l 5.96843,12.3652 5.96843,12.36521 0.069,-11.21608 c 0.0428,-6.96858 -0.0307,-11.47808 -0.19407,-11.90793 -0.17789,-0.46789 -0.52474,-0.74419 -1.07149,-0.85353 -0.44465,-0.0889 -0.76399,-0.29471 -0.70964,-0.45728 0.0672,-0.20113 1.43761,-0.29559 4.28797,-0.29559 2.85065,0 4.22057,0.0944 4.28748,0.29559 0.0541,0.16257 -0.25672,0.36659 -0.69066,0.45338 -0.63686,0.12737 -0.84263,0.35097 -1.0672,1.15962 -0.18288,0.65857 -0.28608,8.20882 -0.30119,22.0362 l -0.023,21.03437 -8.11442,-16.27187 -8.11443,-16.27188 -0.0684,14.37401 c -0.0376,7.90571 0.0276,14.7518 0.145,15.21354 0.16123,0.63419 0.42065,0.90145 1.06062,1.09269 0.46595,0.13923 0.84719,0.40712 0.84719,0.59531 0,0.24941 -0.53791,0.34216 -1.98438,0.34216 -1.0914,0 -1.98437,0.10281 -1.98437,0.22847 0,0.12566 0.11963,0.85931 0.26586,1.63033 0.14622,0.77102 0.20975,1.45795 0.14117,1.52653 -0.0686,0.0686 -0.54383,-0.24335 -1.05613,-0.69315 -1.85534,-1.62901 -4.46709,-1.75815 -5.79339,-0.28646 -0.60815,0.67482 -0.72317,0.99637 -0.59482,1.66283 0.18543,0.96282 0.83148,1.53489 3.74854,3.3193 4.00048,2.44716 5.14963,4.52896 4.31959,7.82534 -0.34527,1.37119 -1.72154,3.07629 -2.94031,3.64285 -0.97482,0.45315 -2.71398,0.73059 -3.51447,0.56066 z m -11.59756,-3.94856 c 3.45981,-1.69273 4.8841,-5.95529 3.16438,-9.47026 -1.37046,-2.80112 -3.75686,-4.1458 -7.35755,-4.1458 h -1.80406 v 7.09966 c 0,3.90481 0.0893,7.19256 0.19844,7.30612 0.42526,0.44247 4.38153,-0.0963 5.79879,-0.78972 z m -60.545496,-4.31736 c -0.04851,-0.12447 -0.618847,-1.39066 -1.267425,-2.81377 l -1.179233,-2.58746 -1.135872,2.45133 c -0.624729,1.34823 -1.135872,2.61443 -1.135872,2.81377 0,0.28026 0.544915,0.36243 2.403298,0.36243 1.321816,0 2.363613,-0.10183 2.315104,-0.2263 z m 30.735766,-0.005 c 0,-0.21666 -2.08731,-5.07809 -2.27159,-5.29061 -0.0903,-0.10419 -2.07155,4.08815 -2.35701,4.98754 -0.16159,0.50913 -0.0568,0.53424 2.22952,0.53424 1.31949,0 2.39908,-0.10402 2.39908,-0.23117 z m 13.16992,-3.58695 c 2.25431,-2.30485 2.4405,-2.57589 2.4405,-3.55267 0,-1.60868 -0.84658,-2.15421 -3.34298,-2.15421 h -1.94869 v 4.10105 c 0,2.25557 0.0924,4.10104 0.20534,4.10104 0.11293,0 1.30356,-1.12285 2.64583,-2.49521 z m 22.43461,-34.0703 c 0.80159,-1.51188 0.22845,-3.56944 -1.20004,-4.30814 -0.56776,-0.2936 -1.63204,-0.40135 -3.96427,-0.40135 h -3.18814 v 6.67742 6.67742 l 3.98683,-3.96544 c 2.19275,-2.181 4.15728,-4.28695 4.36562,-4.67991 z m -89.050365,26.10797 c -0.945885,-0.19451 -2.315104,-0.53922 -3.042708,-0.76603 -1.765755,-0.55041 -2.408018,-0.52362 -3.059245,0.1276 -0.300135,0.30014 -0.68195,0.50029 -0.848474,0.44479 -0.277333,-0.0924 -2.010312,-8.54106 -2.034825,-9.92018 -0.0064,-0.35748 0.147973,-0.59531 0.386294,-0.59531 0.218281,0 0.396875,0.0995 0.396875,0.22099 0,0.60592 2.692109,2.86028 4.365625,3.65577 6.389899,3.03734 12.303125,0.77962 12.303125,-4.69746 0,-1.87899 -0.454694,-3.23038 -1.496367,-4.44734 -0.851265,-0.99451 -2.239931,-1.98647 -7.896341,-5.64054 -3.482788,-2.2499 -5.144707,-3.93071 -6.4021,-6.47487 -0.968811,-1.96026 -1.005668,-2.13489 -0.991026,-4.69554 0.0209,-3.65685 0.641226,-5.22006 3.003304,-7.56839 2.667389,-2.65187 5.280885,-3.62225 9.010005,-3.34538 1.09692,0.0814 3.00427,0.45589 4.238556,0.83211 l 2.244154,0.68404 0.721693,-0.53357 c 1.340178,-0.99083 1.21448,-1.25605 2.189218,4.61919 0.413584,2.49289 0.564452,4.05503 0.406845,4.21263 -0.15761,0.15761 -0.792634,-0.26222 -1.712479,-1.13218 -1.627365,-1.53909 -3.55613,-2.53397 -5.716069,-2.94842 -3.079242,-0.59083 -6.135881,0.74378 -7.414726,3.23748 -1.516308,2.95675 0.210733,5.247 7.075234,9.38258 6.326674,3.81156 8.653621,6.57651 9.392269,11.16019 0.403072,2.50127 -0.0039,5.32715 -1.106932,7.68541 -0.435552,0.93123 -0.741381,1.74369 -0.679622,1.80544 0.06176,0.0618 0.461629,-0.0684 0.888595,-0.28915 0.664755,-0.34375 1.222389,-1.40159 3.880679,-7.36169 9.104431,-20.41287 10.866241,-24.26542 11.015649,-24.08791 0.08996,0.10687 3.174643,6.74276 6.854857,14.7464 3.680214,8.00365 6.792015,14.73068 6.915116,14.94896 0.124079,0.22002 0.227398,-6.47509 0.231859,-15.02449 l 0.008,-15.42136 -13.252252,0.0755 -13.252254,0.0755 -0.656018,0.76287 c -0.390338,0.45392 -0.752774,0.66612 -0.894924,0.52397 -0.316738,-0.31674 -1.19134,-6.1272 -0.957477,-6.36107 0.100187,-0.10019 0.323051,-0.0413 0.495252,0.13093 0.410313,0.41031 80.376,0.45857 80.376,0.0485 0,-0.14552 0.15932,-0.26459 0.35403,-0.26459 0.38427,0 1.84895,6.26088 1.5702,6.71191 -0.084,0.13598 -0.48327,-0.15772 -0.88719,-0.65265 l -0.7344,-0.89988 -23.403,-0.0704 -23.40301,-0.0703 -0.14374,0.73181 c -0.2117,1.07779 -0.18424,28.57335 0.0299,29.96826 0.15414,1.00391 0.31676,1.25287 1.03698,1.5875 0.46979,0.21829 0.85674,0.48618 0.85989,0.59532 0.003,0.10914 -3.26849,0.19843 -7.270308,0.19843 -4.001823,0 -7.276042,-0.093 -7.276042,-0.20657 0,-0.11362 0.37343,-0.34753 0.829842,-0.51981 0.772175,-0.29146 0.819856,-0.38283 0.686117,-1.31478 -0.07905,-0.55085 -0.630073,-2.04334 -1.2245,-3.31665 l -1.080775,-2.3151 h -6.024846 -6.024843 l -1.020881,2.3002 c -0.561483,1.26511 -1.081085,2.74906 -1.154671,3.29768 -0.118224,0.88142 -0.05293,1.03432 0.561216,1.31414 0.382254,0.17417 0.695007,0.41662 0.695007,0.53878 0,0.12216 -2.075659,0.22211 -4.612574,0.22211 h -4.612571 l -1.336487,1.30178 c -2.844284,2.77042 -6.797445,3.73897 -11.398785,2.79277 z m 32.73606,-16.46382 c -0.05693,-0.10914 -0.915368,-2.01414 -1.907648,-4.23333 -0.99228,-2.21919 -1.875465,-4.03358 -1.962632,-4.03196 -0.08717,0.002 -0.477287,0.74575 -0.866933,1.65364 -0.389644,0.9079 -1.248947,2.81158 -1.909564,4.2304 l -1.201116,2.57969 h 3.975698 c 2.186636,0 3.929123,-0.0893 3.872195,-0.19844 z M 69.658308,196.05885 c -0.0069,-0.1819 -0.02241,-5.86713 -0.0344,-12.63385 l -0.0218,-12.30313 1.68805,-0.16609 c 1.359331,-0.13374 25.953834,-7.34275 26.328283,-7.7172 0.05112,-0.0511 0.203443,-1.15579 0.338492,-2.45483 0.135051,-1.29903 0.389766,-2.95719 0.566034,-3.68479 0.434242,-1.79247 2.109753,-5.32909 3.111923,-6.56856 0.89011,-1.10086 1.19083,-1.98842 2.71337,-8.00837 2.15202,-8.50886 3.11005,-14.96288 3.33462,-22.46474 0.28193,-9.41768 -0.96012,-17.29529 -3.79029,-24.039612 -0.35774,-0.852517 -0.60225,-1.598219 -0.54335,-1.65712 0.0589,-0.0589 0.57185,0.08859 1.1399,0.32775 1.36668,0.575408 5.30543,1.157417 7.77969,1.149564 4.55955,-0.01447 9.48151,-1.087567 12.95086,-2.823572 1.22938,-0.615162 2.2625,-1.091224 2.2958,-1.057913 0.0333,0.03331 -0.11371,1.071359 -0.32672,2.306772 -1.50369,8.721291 -4.72299,19.290111 -8.77355,28.803181 -1.87365,4.4004 -7.09864,15.02517 -9.96239,20.25803 -0.95077,1.73731 -1.69481,3.1926 -1.65344,3.23397 0.0414,0.0414 0.50952,-0.0447 1.04033,-0.19124 0.874,-0.24133 1.14284,-0.57154 2.84833,-3.49856 4.2121,-7.22897 8.89208,-17.24661 12.0783,-25.85396 2.57951,-6.96838 5.93627,-18.807928 7.23894,-25.532292 0.27619,-1.425697 0.42783,-1.677212 1.48779,-2.467689 l 1.18026,-0.880187 -0.1454,0.880187 c -2.4227,14.665961 -4.19945,22.868781 -7.32568,33.820811 -2.32256,8.1366 -4.12,13.17585 -8.51735,23.87913 -0.26663,0.64896 -0.22812,0.77573 0.35437,1.16659 1.40466,0.94253 3.34985,3.22068 4.30108,5.03728 1.20968,2.3102 1.9641,5.13398 2.19744,8.22509 l 0.17439,2.31013 13.26217,3.77651 c 7.94178,2.26148 13.71327,3.77309 14.38665,3.76797 l 1.12448,-0.009 v 12.7 12.7 h -41.4073 c -32.942722,0 -41.409859,-0.0676 -41.419879,-0.33073 z M 108.16778,93.702539 c -5.92135,-0.853284 -11.809756,-3.793061 -16.373515,-8.174453 -1.839298,-1.7658 -4.386969,-4.95762 -5.591953,-7.005815 -0.252936,-0.429929 -0.580625,-0.407572 -5.291666,0.361043 -15.811508,2.579674 -26.439493,3.093614 -29.279671,1.415878 -0.550918,-0.325435 -0.74549,-0.645089 -0.74549,-1.22473 0,-2.684717 9.722541,-7.484952 26.906041,-13.284113 l 4.548745,-1.535131 0.151628,-1.732299 c 0.712078,-8.135331 3.56675,-14.494327 8.901758,-19.829335 6.068962,-6.068963 13.617973,-9.003592 22.330373,-8.68078 4.69929,0.174118 7.86239,0.955563 11.90625,2.941449 4.86717,2.3902 9.04302,5.993825 11.74272,10.133586 0.73927,1.133613 1.49869,2.283053 1.68758,2.554312 0.33356,0.478999 0.46128,0.473577 4.43678,-0.188318 10.87094,-1.80994 16.52456,-2.406713 22.87875,-2.414995 5.30152,-0.0069 6.85175,0.230614 7.81917,1.198031 0.65056,0.65056 0.64524,0.773348 -0.0801,1.848697 -1.80384,2.674279 -10.8873,6.963759 -24.93698,11.775998 l -6.35,2.174976 -0.18914,1.55204 c -0.80679,6.61996 -2.0767,10.402536 -5.00688,14.913499 -1.50323,2.314202 -6.25006,7.009829 -8.68737,8.593654 -6.09798,3.962633 -13.64103,5.635122 -20.77702,4.606806 z"
         id="path134634-9"
         sodipodi:nodetypes="csssscsssscscssssscsscsscccccccccssssssscccsscsssssssssscssssccssssssssssscssssscssscssssccssccsssssccssssssscscsssssscsssssssssssssscscssssssscccccssssssscccssssssssssssssccssscssssscsssssssssssscsssssscccsscssssssssssssssscsssssssssscssssscccssscsssscccssscssssscccssssscsccsscsscsscscssssssssssssscssscsssscsssssscsccccsccssssssscssssssssssscsssss" /><path
         style="fill:#f8c933;fill-opacity:1;stroke:#dc7532;stroke-width:0.9;stroke-dasharray:none;stroke-opacity:1"
         d="m 150.50111,261.05003 c -2.94241,-0.62467 -3.58204,-0.68764 -3.94289,-0.38816 -0.30171,0.2504 -0.40651,0.21741 -0.51802,-0.16305 -0.2272,-0.77516 -0.69846,-3.57317 -0.69846,-4.14692 0,-0.4903 0.0546,-0.4779 0.7276,0.16529 1.11005,1.06086 2.91979,1.77249 4.52438,1.77908 1.26074,0.005 1.51388,-0.0926 2.3151,-0.89377 0.72056,-0.72056 0.89958,-1.10837 0.89958,-1.94869 0,-1.44425 -0.67228,-2.2018 -3.68379,-4.15109 -1.39365,-0.90208 -2.89552,-2.05279 -3.33749,-2.55712 l -0.80358,-0.91698 0.10107,2.39246 c 0.0835,1.97669 0.001,2.65694 -0.47241,3.91437 -1.12582,2.9877 -3.71622,5.38113 -6.67699,6.16928 -1.9827,0.52778 -14.59426,0.53712 -13.90024,0.0103 0.25466,-0.19331 0.46302,-0.46379 0.46302,-0.60106 0,-0.20559 -3.01573,-5.51112 -3.35013,-5.89384 -0.0559,-0.064 -0.69422,0.46732 -1.41847,1.18068 l -1.31682,1.29702 v 1.82065 c 0,1.59814 0.0647,1.83756 0.52917,1.95903 1.51028,0.39495 0.0453,0.60496 -4.16719,0.59742 -3.96216,-0.007 -4.62397,-0.0634 -4.23333,-0.3599 0.6317,-0.47953 0.58473,-1.06831 -0.24028,-3.01195 l -0.70481,-1.66048 -3.85821,0.073 -3.85821,0.073 -0.78858,1.9386 -0.78858,1.9386 0.65449,0.50291 0.65449,0.50292 -2.822633,0.006 c -1.552448,0.003 -2.988273,0.0694 -3.190722,0.14713 -0.271052,0.10401 -0.991695,-1.42673 -2.733619,-5.80659 -1.301041,-3.27132 -2.441176,-5.86496 -2.533632,-5.76365 -0.09246,0.10131 -1.153903,2.77901 -2.358773,5.95044 -1.643356,4.32561 -2.284323,5.7303 -2.565517,5.62239 -0.206163,-0.0791 -1.704559,-0.15008 -3.329768,-0.15771 -2.763271,-0.013 -2.916311,-0.0408 -2.35961,-0.42915 0.766342,-0.53457 0.752888,-0.72376 -0.201072,-2.82767 l -0.796383,-1.75638 h -3.799239 -3.79924 l -0.696044,1.60494 c -0.815187,1.87966 -0.868001,2.57181 -0.233022,3.05383 0.393835,0.29896 0.01593,0.35274 -2.529157,0.3599 -1.92944,0.005 -2.9341,-0.0856 -2.828655,-0.25617 0.08994,-0.14552 0.321394,-0.26458 0.514352,-0.26458 0.542854,0 0.820055,-0.55712 5.298795,-10.64948 2.308685,-5.20237 4.271124,-9.45886 4.360979,-9.45886 0.08985,0 2.181289,4.41384 4.647634,9.80853 4.199168,9.18494 4.937662,10.60462 5.318323,10.22396 0.281774,-0.28177 -6.478206,-18.28948 -7.039372,-18.75198 -0.293153,-0.24161 -0.533003,-0.5095 -0.533003,-0.59531 0,-0.0858 1.250157,-0.15603 2.778125,-0.15603 2.534923,0 3.410707,0.22981 2.38125,0.62485 -0.218281,0.0838 -0.397211,0.36439 -0.397621,0.62362 -0.0011,0.60324 3.458033,10.12861 3.678047,10.12861 0.09083,0 1.104908,-2.53008 2.253501,-5.62239 1.148594,-3.09232 2.170372,-5.71684 2.27062,-5.83227 0.100246,-0.11542 1.242735,2.47377 2.53886,5.75377 1.296128,3.28 2.416125,5.96216 2.488885,5.96036 0.19971,-0.005 3.712231,-9.8456 3.707911,-10.38808 -0.002,-0.25923 -0.182338,-0.53986 -0.400619,-0.62362 -1.016066,-0.38991 -0.170447,-0.62485 2.248959,-0.62485 1.5875,0 2.64583,0.10583 2.64583,0.26458 0,0.14552 -0.18467,0.26458 -0.41037,0.26458 -0.22571,0 -0.57178,0.38696 -0.76905,0.8599 -1.13569,2.72275 -6.50499,18.00222 -6.372611,18.1346 0.409051,0.40905 1.393518,-1.44989 4.594531,-8.67575 4.97376,-11.22755 5.08886,-11.46978 5.32842,-11.21324 0.11968,0.12817 2.09536,4.34069 4.39039,9.36116 2.29504,5.02047 4.2741,9.24287 4.39792,9.38312 0.1242,0.14067 0.19385,-3.71106 0.15535,-8.59124 l -0.0698,-8.84622 -0.65204,-0.32499 c -1.12367,-0.56006 -0.0676,-0.68426 4.82343,-0.56729 4.93132,0.11793 5.47808,0.2545 6.85814,1.7131 1.29599,1.36975 1.6259,3.23233 0.88615,5.00283 -0.2131,0.51002 -1.03517,1.60752 -1.82682,2.43889 l -1.43936,1.51159 2.42213,4.16347 c 1.33217,2.28991 2.51299,4.16514 2.62404,4.16719 0.11105,0.002 0.17058,-4.07417 0.13229,-9.05826 l -0.0696,-9.06198 -0.59531,-0.26118 c -0.32743,-0.14365 -0.59532,-0.35201 -0.59532,-0.46302 0,-0.29094 6.94872,-0.23869 9.07124,0.0682 3.13346,0.45308 5.85224,2.25561 7.35572,4.87679 l 0.76599,1.33544 0.002,-1.39756 c 0.003,-1.78683 0.47384,-2.89476 1.67939,-3.95325 1.1267,-0.98926 2.65548,-1.46316 4.37195,-1.35524 l 1.22719,0.0772 0.23753,-1.22151 c 0.40686,-2.09177 0.44668,-2.07148 -4.06558,-2.07148 -3.67635,0 -4.83289,-0.22187 -3.44789,-0.66145 0.29817,-0.0946 0.52917,-0.40033 0.52917,-0.70028 0,-0.42373 -2.87376,-5.60409 -4.93636,-8.89848 -0.37592,-0.60043 -0.38673,-0.59445 -2.61535,1.44521 l -2.23788,2.04812 0.0264,2.25896 c 0.0353,3.02704 0.19624,3.5252 1.23861,3.83504 0.46843,0.13923 0.85168,0.34759 0.85168,0.46302 0,0.11542 -2.08359,0.20986 -4.6302,0.20986 -2.91042,0 -4.63021,-0.0983 -4.63021,-0.26458 0,-0.14552 0.23812,-0.26458 0.52916,-0.26458 0.29105,0 0.7673,-0.23813 1.05834,-0.52917 0.51563,-0.51563 0.52907,-0.87944 0.52555,-14.22135 -0.002,-7.53071 -0.0741,-13.95499 -0.16019,-14.27619 -0.31311,-1.16784 -2.9667,-1.41395 -3.54734,-0.329 -0.15322,0.28629 -0.25842,4.32136 -0.25961,9.95758 -10e-4,5.21194 -0.11394,10.44956 -0.25073,11.63916 -0.43901,3.8177 -2.26671,6.45469 -5.53635,7.98779 -1.34764,0.63189 -1.78444,0.69722 -4.66196,0.69722 -2.94024,0 -3.28632,-0.0547 -4.68051,-0.73931 -1.92514,-0.94538 -3.95317,-3.14364 -4.74987,-5.14855 -0.58757,-1.47865 -0.6081,-1.83618 -0.74628,-12.9979 l -0.14209,-11.47742 -0.59531,-0.39495 c -0.32743,-0.21723 -0.59532,-0.4995 -0.59532,-0.62727 0,-0.12777 1.905,-0.23231 4.23334,-0.23231 4.14551,0 5.03975,0.19628 3.43806,0.75463 -0.48278,0.1683 -0.90499,0.56583 -1.07451,1.01171 -0.18413,0.4843 -0.25121,4.29655 -0.19692,11.19188 0.0804,10.2089 0.0964,10.4857 0.67371,11.64803 0.83655,1.68421 2.10386,2.46634 4.21399,2.6007 3.02137,0.19239 4.92949,-1.0054 5.61821,-3.52674 0.37597,-1.37638 0.40287,-21.65582 0.0297,-22.35318 -0.14431,-0.26965 -0.62056,-0.56894 -1.05834,-0.66509 -0.43777,-0.0961 -0.79595,-0.29001 -0.79595,-0.4308 0,-0.16234 4.42827,-0.22724 12.10469,-0.17742 11.96671,0.0777 12.11856,0.0854 13.32173,0.67826 2.80995,1.38457 4.33068,3.77959 4.32317,6.80865 -0.006,2.50102 -0.68542,3.82435 -3.45866,6.73856 l -2.21484,2.32741 3.60917,6.18264 c 3.9551,6.77521 4.50665,7.63784 4.88349,7.63784 0.15993,0 0.22654,-6.76916 0.18042,-18.33423 -0.0679,-17.03387 -0.1064,-18.385 -0.54224,-19.05 -0.2586,-0.39456 -0.71375,-0.71577 -1.01424,-0.71577 -0.3185,0 -0.49929,-0.13749 -0.43487,-0.33072 0.0799,-0.2398 0.97295,-0.33073 3.24788,-0.33073 h 3.13765 l 5.96843,12.3652 5.96843,12.36521 0.069,-11.21608 c 0.0428,-6.96858 -0.0307,-11.47808 -0.19407,-11.90793 -0.17789,-0.46789 -0.52474,-0.74419 -1.07149,-0.85353 -0.44465,-0.0889 -0.76399,-0.29471 -0.70964,-0.45728 0.0672,-0.20113 1.43761,-0.29559 4.28797,-0.29559 2.85065,0 4.22057,0.0944 4.28748,0.29559 0.0541,0.16257 -0.25672,0.36659 -0.69066,0.45338 -0.63686,0.12737 -0.84263,0.35097 -1.0672,1.15962 -0.18288,0.65857 -0.28608,8.20882 -0.30119,22.0362 l -0.023,21.03437 -8.11442,-16.27187 -8.11443,-16.27188 -0.0684,14.37401 c -0.0376,7.90571 0.0276,14.7518 0.145,15.21354 0.16123,0.63419 0.42065,0.90145 1.06062,1.09269 0.46595,0.13923 0.84719,0.40712 0.84719,0.59531 0,0.24941 -0.53791,0.34216 -1.98438,0.34216 -1.0914,0 -1.98437,0.10281 -1.98437,0.22847 0,0.12566 0.11963,0.85931 0.26586,1.63033 0.14622,0.77102 0.20975,1.45795 0.14117,1.52653 -0.0686,0.0686 -0.54383,-0.24335 -1.05613,-0.69315 -1.85534,-1.62901 -4.46709,-1.75815 -5.79339,-0.28646 -0.60815,0.67482 -0.72317,0.99637 -0.59482,1.66283 0.18543,0.96282 0.83148,1.53489 3.74854,3.3193 4.00048,2.44716 5.14963,4.52896 4.31959,7.82534 -0.34527,1.37119 -1.72154,3.07629 -2.94031,3.64285 -0.97482,0.45315 -2.71398,0.73059 -3.51447,0.56066 z m -11.59756,-3.94856 c 3.45981,-1.69273 4.8841,-5.95529 3.16438,-9.47026 -1.37046,-2.80112 -3.75686,-4.1458 -7.35755,-4.1458 h -1.80406 v 7.09966 c 0,3.90481 0.0893,7.19256 0.19844,7.30612 0.42526,0.44247 4.38153,-0.0963 5.79879,-0.78972 z m -60.545496,-4.31736 c -0.04851,-0.12447 -0.618847,-1.39066 -1.267425,-2.81377 l -1.179233,-2.58746 -1.135872,2.45133 c -0.624729,1.34823 -1.135872,2.61443 -1.135872,2.81377 0,0.28026 0.544915,0.36243 2.403298,0.36243 1.321816,0 2.363613,-0.10183 2.315104,-0.2263 z m 30.735766,-0.005 c 0,-0.21666 -2.08731,-5.07809 -2.27159,-5.29061 -0.0903,-0.10419 -2.07155,4.08815 -2.35701,4.98754 -0.16159,0.50913 -0.0568,0.53424 2.22952,0.53424 1.31949,0 2.39908,-0.10402 2.39908,-0.23117 z m 13.16992,-3.58695 c 2.25431,-2.30485 2.4405,-2.57589 2.4405,-3.55267 0,-1.60868 -0.84658,-2.15421 -3.34298,-2.15421 h -1.94869 v 4.10105 c 0,2.25557 0.0924,4.10104 0.20534,4.10104 0.11293,0 1.30356,-1.12285 2.64583,-2.49521 z m 22.43461,-34.0703 c 0.80159,-1.51188 0.22845,-3.56944 -1.20004,-4.30814 -0.56776,-0.2936 -1.63204,-0.40135 -3.96427,-0.40135 h -3.18814 v 6.67742 6.67742 l 3.98683,-3.96544 c 2.19275,-2.181 4.15728,-4.28695 4.36562,-4.67991 z m -89.050365,26.10797 c -0.945885,-0.19451 -2.315104,-0.53922 -3.042708,-0.76603 -1.765755,-0.55041 -2.408018,-0.52362 -3.059245,0.1276 -0.300135,0.30014 -0.68195,0.50029 -0.848474,0.44479 -0.277333,-0.0924 -2.010312,-8.54106 -2.034825,-9.92018 -0.0064,-0.35748 0.147973,-0.59531 0.386294,-0.59531 0.218281,0 0.396875,0.0995 0.396875,0.22099 0,0.60592 2.692109,2.86028 4.365625,3.65577 6.389899,3.03734 12.303125,0.77962 12.303125,-4.69746 0,-1.87899 -0.454694,-3.23038 -1.496367,-4.44734 -0.851265,-0.99451 -2.239931,-1.98647 -7.896341,-5.64054 -3.482788,-2.2499 -5.144707,-3.93071 -6.4021,-6.47487 -0.968811,-1.96026 -1.005668,-2.13489 -0.991026,-4.69554 0.0209,-3.65685 0.641226,-5.22006 3.003304,-7.56839 2.667389,-2.65187 5.280885,-3.62225 9.010005,-3.34538 1.09692,0.0814 3.00427,0.45589 4.238556,0.83211 l 2.244154,0.68404 0.721693,-0.53357 c 1.340178,-0.99083 1.21448,-1.25605 2.189218,4.61919 0.413584,2.49289 0.564452,4.05503 0.406845,4.21263 -0.15761,0.15761 -0.792634,-0.26222 -1.712479,-1.13218 -1.627365,-1.53909 -3.55613,-2.53397 -5.716069,-2.94842 -3.079242,-0.59083 -6.135881,0.74378 -7.414726,3.23748 -1.516308,2.95675 0.210733,5.247 7.075234,9.38258 6.326674,3.81156 8.653621,6.57651 9.392269,11.16019 0.403072,2.50127 -0.0039,5.32715 -1.106932,7.68541 -0.435552,0.93123 -0.741381,1.74369 -0.679622,1.80544 0.06176,0.0618 0.461629,-0.0684 0.888595,-0.28915 0.664755,-0.34375 1.222389,-1.40159 3.880679,-7.36169 9.104431,-20.41287 10.866241,-24.26542 11.015649,-24.08791 0.08996,0.10687 3.174643,6.74276 6.854857,14.7464 3.680214,8.00365 6.792015,14.73068 6.915116,14.94896 0.124079,0.22002 0.227398,-6.47509 0.231859,-15.02449 l 0.008,-15.42136 -13.252252,0.0755 -13.252254,0.0755 -0.656018,0.76287 c -0.390338,0.45392 -0.752774,0.66612 -0.894924,0.52397 -0.316738,-0.31674 -1.19134,-6.1272 -0.957477,-6.36107 0.100187,-0.10019 0.323051,-0.0413 0.495252,0.13093 0.410313,0.41031 80.376,0.45857 80.376,0.0485 0,-0.14552 0.15932,-0.26459 0.35403,-0.26459 0.38427,0 1.84895,6.26088 1.5702,6.71191 -0.084,0.13598 -0.48327,-0.15772 -0.88719,-0.65265 l -0.7344,-0.89988 -23.403,-0.0704 -23.40301,-0.0703 -0.14374,0.73181 c -0.2117,1.07779 -0.18424,28.57335 0.0299,29.96826 0.15414,1.00391 0.31676,1.25287 1.03698,1.5875 0.46979,0.21829 0.85674,0.48618 0.85989,0.59532 0.003,0.10914 -3.26849,0.19843 -7.270308,0.19843 -4.001823,0 -7.276042,-0.093 -7.276042,-0.20657 0,-0.11362 0.37343,-0.34753 0.829842,-0.51981 0.772175,-0.29146 0.819856,-0.38283 0.686117,-1.31478 -0.07905,-0.55085 -0.630073,-2.04334 -1.2245,-3.31665 l -1.080775,-2.3151 h -6.024846 -6.024843 l -1.020881,2.3002 c -0.561483,1.26511 -1.081085,2.74906 -1.154671,3.29768 -0.118224,0.88142 -0.05293,1.03432 0.561216,1.31414 0.382254,0.17417 0.695007,0.41662 0.695007,0.53878 0,0.12216 -2.075659,0.22211 -4.612574,0.22211 h -4.612571 l -1.336487,1.30178 c -2.844284,2.77042 -6.797445,3.73897 -11.398785,2.79277 z m 32.73606,-16.46382 c -0.05693,-0.10914 -0.915368,-2.01414 -1.907648,-4.23333 -0.99228,-2.21919 -1.875465,-4.03358 -1.962632,-4.03196 -0.08717,0.002 -0.477287,0.74575 -0.866933,1.65364 -0.389644,0.9079 -1.248947,2.81158 -1.909564,4.2304 l -1.201116,2.57969 h 3.975698 c 2.186636,0 3.929123,-0.0893 3.872195,-0.19844 z M 69.658308,196.05885 c -0.0069,-0.1819 -0.02241,-5.86713 -0.0344,-12.63385 l -0.0218,-12.30313 1.68805,-0.16609 c 1.359331,-0.13374 25.953834,-7.34275 26.328283,-7.7172 0.05112,-0.0511 0.203443,-1.15579 0.338492,-2.45483 0.135051,-1.29903 0.389766,-2.95719 0.566034,-3.68479 0.434242,-1.79247 2.109753,-5.32909 3.111923,-6.56856 0.89011,-1.10086 1.19083,-1.98842 2.71337,-8.00837 2.15202,-8.50886 3.11005,-14.96288 3.33462,-22.46474 0.28193,-9.41768 -0.96012,-17.29529 -3.79029,-24.039612 -0.35774,-0.852517 -0.60225,-1.598219 -0.54335,-1.65712 0.0589,-0.0589 0.57185,0.08859 1.1399,0.32775 1.36668,0.575408 5.30543,1.157417 7.77969,1.149564 4.55955,-0.01447 9.48151,-1.087567 12.95086,-2.823572 1.22938,-0.615162 2.2625,-1.091224 2.2958,-1.057913 0.0333,0.03331 -0.11371,1.071359 -0.32672,2.306772 -1.50369,8.721291 -4.72299,19.290111 -8.77355,28.803181 -1.87365,4.4004 -7.09864,15.02517 -9.96239,20.25803 -0.95077,1.73731 -1.69481,3.1926 -1.65344,3.23397 0.0414,0.0414 0.50952,-0.0447 1.04033,-0.19124 0.874,-0.24133 1.14284,-0.57154 2.84833,-3.49856 4.2121,-7.22897 8.89208,-17.24661 12.0783,-25.85396 2.57951,-6.96838 5.93627,-18.807928 7.23894,-25.532292 0.27619,-1.425697 0.42783,-1.677212 1.48779,-2.467689 l 1.18026,-0.880187 -0.1454,0.880187 c -2.4227,14.665961 -4.19945,22.868781 -7.32568,33.820811 -2.32256,8.1366 -4.12,13.17585 -8.51735,23.87913 -0.26663,0.64896 -0.22812,0.77573 0.35437,1.16659 1.40466,0.94253 3.34985,3.22068 4.30108,5.03728 1.20968,2.3102 1.9641,5.13398 2.19744,8.22509 l 0.17439,2.31013 13.26217,3.77651 c 7.94178,2.26148 13.71327,3.77309 14.38665,3.76797 l 1.12448,-0.009 v 12.7 12.7 h -41.4073 c -32.942722,0 -41.409859,-0.0676 -41.419879,-0.33073 z M 108.16778,93.702539 c -5.92135,-0.853284 -11.809756,-3.793061 -16.373515,-8.174453 -1.839298,-1.7658 -4.386969,-4.95762 -5.591953,-7.005815 -0.252936,-0.429929 -0.580625,-0.407572 -5.291666,0.361043 -15.811508,2.579674 -26.439493,3.093614 -29.279671,1.415878 -0.550918,-0.325435 -0.74549,-0.645089 -0.74549,-1.22473 0,-2.684717 9.722541,-7.484952 26.906041,-13.284113 l 4.548745,-1.535131 0.151628,-1.732299 c 0.712078,-8.135331 3.56675,-14.494327 8.901758,-19.829335 6.068962,-6.068963 13.617973,-9.003592 22.330373,-8.68078 4.69929,0.174118 7.86239,0.955563 11.90625,2.941449 4.86717,2.3902 9.04302,5.993825 11.74272,10.133586 0.73927,1.133613 1.49869,2.283053 1.68758,2.554312 0.33356,0.478999 0.46128,0.473577 4.43678,-0.188318 10.87094,-1.80994 16.52456,-2.406713 22.87875,-2.414995 5.30152,-0.0069 6.85175,0.230614 7.81917,1.198031 0.65056,0.65056 0.64524,0.773348 -0.0801,1.848697 -1.80384,2.674279 -10.8873,6.963759 -24.93698,11.775998 l -6.35,2.174976 -0.18914,1.55204 c -0.80679,6.61996 -2.0767,10.402536 -5.00688,14.913499 -1.50323,2.314202 -6.25006,7.009829 -8.68737,8.593654 -6.09798,3.962633 -13.64103,5.635122 -20.77702,4.606806 z"
         id="path134634"
         sodipodi:nodetypes="csssscsssscscssssscsscsscccccccccssssssscccsscsssssssssscssssccssssssssssscssssscssscssssccssccsssssccssssssscscsssssscsssssssssssssscscssssssscccccssssssscccssssssssssssssccssscssssscsssssssssssscsssssscccsscssssssssssssssscsssssssssscssssscccssscsssscccssscssssscccssssscsccsscsscsscscssssssssssssscssscsssscsssssscsccccsccssssssscssssssssssscsssss" /></g></g></svg>
