<?xml version="1.0" encoding="UTF-8" standalone="no"?>
<!-- Created with Inkscape (http://www.inkscape.org/) -->

<svg
   width="200"
   height="100"
   viewBox="0 0 200 100"
   version="1.1"
   id="svg152859"
   inkscape:version="1.2 (dc2aedaf03, 2022-05-15)"
   sodipodi:docname="brands template.svg"
   xml:space="preserve"
   inkscape:export-filename="brands\Ascend_logo.svg"
   inkscape:export-xdpi="96"
   inkscape:export-ydpi="96"
   xmlns:inkscape="http://www.inkscape.org/namespaces/inkscape"
   xmlns:sodipodi="http://sodipodi.sourceforge.net/DTD/sodipodi-0.dtd"
   xmlns="http://www.w3.org/2000/svg"
   xmlns:svg="http://www.w3.org/2000/svg"><sodipodi:namedview
     id="namedview152861"
     pagecolor="#ffffff"
     bordercolor="#eeeeee"
     borderopacity="1"
     inkscape:showpageshadow="0"
     inkscape:pageopacity="0"
     inkscape:pagecheckerboard="0"
     inkscape:deskcolor="#ffffff"
     inkscape:document-units="px"
     showgrid="false"
     inkscape:zoom="3.3638608"
     inkscape:cx="129.01842"
     inkscape:cy="54.699053"
     inkscape:window-width="1920"
     inkscape:window-height="1017"
     inkscape:window-x="-8"
     inkscape:window-y="-8"
     inkscape:window-maximized="1"
     inkscape:current-layer="layer1" /><defs
     id="defs152856"><style
       id="style154050">.cls-1{clip-path:url(#clip-path);}.cls-2{fill:none;}.cls-3{clip-path:url(#clip-path-2);}.cls-4{clip-path:url(#clip-path-3);}.cls-5{clip-path:url(#clip-path-5);}.cls-6{clip-path:url(#clip-path-6);}.cls-7{mask:url(#mask);}.cls-8{fill:url(#radial-gradient);}.cls-9{fill:url(#radial-gradient-2);}.cls-10{fill:url(#linear-gradient);}</style><linearGradient
       id="linearGradient142326"
       inkscape:swatch="gradient"><stop
         style="stop-color:#4170ac;stop-opacity:1;"
         offset="0"
         id="stop142322" /><stop
         style="stop-color:#4170ac;stop-opacity:0;"
         offset="1"
         id="stop142324" /></linearGradient></defs><g
     inkscape:label="Layer 1"
     inkscape:groupmode="layer"
     id="layer1"><path
       d="m 90.487838,26.339115 q 0,-2.566071 2.123641,-3.53941 2.212134,-0.973339 4.778204,-1.061821 4.601227,-0.176918 7.255807,2.03516 2.74303,2.212134 2.74303,2.212134 h 0.0886 v -2.477589 q 0,0 -3.18547,-1.061821 -3.09699,-1.150313 -6.901868,-1.150313 -2.300604,0 -5.486077,1.238784 -3.096992,1.238805 -3.096992,5.132163 0,3.893357 2.743055,4.955178 2.743022,0.97335 6.016999,1.238783 3.362433,0.176918 6.193963,0.530933 2.74305,0.353936 2.74305,3.008488 0,2.920018 -2.92001,3.716383 -2.83153,0.707884 -3.981854,0.796377 -5.309126,0 -7.698211,-2.300626 -2.300627,-2.300616 -2.300627,-2.300616 -0.08858,0 -0.176918,0 0,0 -0.08858,0 l 0.176907,3.185474 q 0,0 3.450928,0.973339 3.450918,0.884858 6.370947,0.884858 5.751538,0 7.609728,-2.743055 1.85819,-2.743033 1.85819,-3.804865 -0.0886,-4.070331 -2.92001,-5.132152 -2.83154,-1.061832 -6.282464,-1.238783 -3.450917,-0.176918 -6.282443,-0.442429 -2.831537,-0.265456 -2.831537,-2.654574 z m -6.105514,-8.229133 -5.043659,-1.769705 q -0.796354,-0.353936 -1.681223,-0.08858 -0.796366,0.265444 -1.238784,1.061832 v 0 l 6.724883,2.300604 q 0.265466,-0.442418 0.530899,-0.796365 0.353948,-0.353937 0.707884,-0.707885 z m -6.370935,13.803725 -2.831536,-0.973351 -3.185474,-1.150302 q 0,0.530899 0.796388,1.327287 0.884836,0.796366 0.884836,0.796366 0,0 -0.884836,0.796354 -0.796388,0.796365 -0.796388,1.327287 l 3.185474,-1.150302 z M 89.426006,14.482091 83.320504,12.35845 q -0.884847,-0.265467 -1.858186,-0.08858 -0.884847,0.176918 -1.59272,0.796388 v 0 l 7.432767,2.56607 q 0.530899,-0.265466 1.06182,-0.530933 0.5309,-0.353936 1.061821,-0.61938 z m -8.140651,7.875196 -4.778215,-1.681235 q -0.796366,-0.265455 -1.50425,0.08858 -0.707884,0.265467 -1.061821,0.973351 v 0 l 6.459428,2.300626 q 0.176907,-0.44244 0.353936,-0.884858 0.265467,-0.442429 0.530922,-0.796365 z m -1.94669,4.689712 -4.689712,-1.59272 q -0.796365,-0.265466 -1.415768,0.176907 -0.619403,0.353947 -0.796354,1.061831 v 0 l 6.459416,2.212123 q 0.176918,-0.442418 0.176918,-0.884847 0.08858,-0.530921 0.265455,-0.973339 z M 98.363023,12.269946 q 1.06182,0 2.035167,0.176918 1.06182,0.08858 2.03515,0.265455 l 9.7334,-3.4509281 q 0,0 0,0 0,0 0,0 -0.97334,-0.6194029 -2.12366,-0.7078842 -1.1503,-0.088582 -2.21212,0.3539365 L 98.363023,12.181398 88.983566,8.9959245 Q 87.921745,8.5535067 86.771443,8.7304582 85.62113,8.8190401 84.647791,9.4383423 v 0 l 9.644901,3.3624587 q 0.973339,-0.265467 1.946689,-0.353937 1.061821,-0.176918 2.123642,-0.176918 z m 17.962527,11.680061 6.54791,-2.300604 q 0,0 0,0 0,0 0,0 -0.35394,-0.707884 -1.1503,-0.973351 -0.70789,-0.353936 -1.41577,-0.08858 l -4.77822,1.681235 q 0.17691,0.442418 0.35394,0.884836 0.26546,0.353947 0.44244,0.796365 z m -2.74305,-4.424257 6.72489,-2.300626 q 0,0 0,0 0,0 0,0 -0.44242,-0.707884 -1.32729,-0.973317 -0.79637,-0.265466 -1.59272,0 l -5.13216,1.769705 q 0.35393,0.353936 0.70788,0.796354 0.35394,0.353948 0.6194,0.707884 z m -4.15882,-3.893357 7.52125,-2.566059 q 0,0 0,0 0,0 0,0 -0.70787,-0.619403 -1.6812,-0.796388 -0.88486,-0.176918 -1.76971,0.08858 l -6.19398,2.123641 q 0.53092,0.176918 1.06182,0.530911 0.53092,0.265455 1.06182,0.619391 z M 105.17639,6.34144 q -0.17691,0 -0.44242,-0.088582 -0.26547,-0.088582 -0.44242,-0.088582 -1.2388,-0.3539477 -2.56609,-0.2654664 -1.32727,0.088582 -2.47759,0.5309216 L 98.363023,6.7836676 97.478154,6.5182125 Q 96.1509,6.0757947 94.735132,5.9873133 q -1.327287,-0.088582 -2.743056,0.2654328 -0.08858,0.088582 -0.265455,0.176918 -0.08858,0 -0.265466,0 l 6.813386,2.3891076 6.901849,-2.477589 z m 12.65341,22.475264 6.45943,-2.300604 q 0,0 0,0 0,0 0,0 -0.17692,-0.707885 -0.79637,-1.061821 -0.6194,-0.44244 -1.41577,-0.176907 l -4.68971,1.681224 q 0.17691,0.442418 0.26543,0.973339 0.0886,0.442429 0.17692,0.884847 z M 83.05506,44.30164 76.330177,46.690748 q 0,0 0,0 0,0 0,0 0.442418,0.707884 1.238783,0.973339 0.884869,0.176985 1.681235,0 L 84.293854,45.80589 Q 83.939907,45.451954 83.58597,45.098017 83.320504,44.744069 83.05506,44.30164 Z m 32.47411,-2.654551 4.77822,1.681212 q 0.70788,0.265455 1.41577,0 0.79636,-0.353936 1.1503,-1.061821 v 0 l -6.45943,-2.212133 q -0.17691,0.353947 -0.44242,0.796365 -0.1769,0.442429 -0.44244,0.796377 z m -8.14065,7.963677 6.1055,2.03516 q 0.88485,0.353936 1.76971,0.176985 0.97333,-0.176985 1.6812,-0.884847 v 0 l -7.43277,-2.566081 q -0.5309,0.265455 -1.06182,0.619391 -0.5309,0.265456 -1.06182,0.619403 z m 5.04368,-3.716383 5.04366,1.769704 q 0.79636,0.353937 1.59272,0.08847 0.88487,-0.265455 1.32729,-0.973339 v 0 l -6.72488,-2.389096 q -0.26547,0.442429 -0.61941,0.796365 -0.35394,0.353948 -0.61938,0.707884 z m 10.44126,-13.980676 q 0,0 0.97334,-0.796366 0.97335,-0.884869 0.97335,-1.327287 l -3.53942,1.150302 -2.83153,0.973351 2.83153,0.973339 3.53942,1.238783 q 0,-0.530899 -0.97335,-1.327287 -0.97334,-0.884835 -0.97334,-0.884835 z m -5.3976,5.043648 4.68971,1.592753 q 0.79637,0.265444 1.41577,-0.08858 0.6194,-0.353936 0.79636,-1.150302 v 0 l -6.45942,-2.212123 q -0.17692,0.442429 -0.26547,0.973351 0,0.442418 -0.1769,0.884836 z m -38.579613,-1.946657 -6.459416,2.300604 q 0,0 0,0 0,0 0,0 0.08858,0.707885 0.707873,1.061821 0.707884,0.353948 1.504249,0.08858 l 4.689712,-1.592731 Q 79.161758,36.426554 79.07321,35.984114 78.98463,35.453215 78.896292,35.010786 Z m 8.229133,13.1843 -7.432767,2.654562 q 0,0 0,0 0,0 0,0 0.707884,0.707885 1.592742,0.884859 0.973328,0.176985 1.946667,-0.176997 l 6.01701,-2.03516 Q 88.718122,49.168326 88.1872,48.902871 87.744783,48.548923 87.12538,48.194986 Z m -6.724883,-8.317614 -6.459428,2.212123 q 0,0 0,0 0,0 0,0 0.353937,0.796376 1.061821,1.150313 0.707884,0.265455 1.50425,0 l 4.778215,-1.592731 Q 80.931418,41.20466 80.754433,40.762231 80.577527,40.319802 80.400497,39.877384 Z m 17.962526,11.857035 q -1.150302,0 -2.212123,-0.08847 -1.061832,-0.176985 -2.123652,-0.353936 l -9.55642,3.273954 q 0.973328,0.619392 2.035149,0.796366 1.150324,0.08847 2.300626,-0.265455 l 9.467938,-3.362436 9.556419,3.362436 q 1.06182,0.353947 2.21212,0.265455 1.15032,-0.08847 2.12366,-0.707884 v 0 l -9.55642,-3.362436 q -1.06182,0.176985 -2.12364,0.353936 -0.973355,0.08847 -2.123657,0.08847 z m -7.078831,5.751543 v 0 q 1.592731,0.442418 3.096992,0.442418 1.592731,-0.08847 3.09697,-0.619392 l 0.796387,-0.176985 0.707885,0.176985 q 1.504254,0.53091 3.096974,0.619392 1.68122,0.08847 3.27397,-0.353937 v 0 L 98.274541,55.096854 Z M 195.43143,71.643612 V 94.118887 L 178.26528,76.421816 v 17.16616 h -2.3891 V 71.201183 l 17.16615,17.69707 V 71.643612 Z M 157.0288,71.289675 q -5.04368,0 -8.4061,3.273955 -3.27396,3.273954 -3.27396,8.05217 0,4.866685 3.27396,8.14064 3.36242,3.273965 8.4061,3.273965 5.04366,0 8.4061,-3.273965 3.36245,-3.273955 3.36245,-8.14064 0,-4.778216 -3.36245,-8.05217 -3.36244,-3.273955 -8.4061,-3.273955 z m 0,20.794052 q -4.07033,0 -6.81338,-2.743045 -2.74302,-2.654562 -2.74302,-6.724882 0,-3.981839 2.74302,-6.724894 2.74305,-2.743045 6.81338,-2.743045 4.07032,0 6.81337,2.743045 2.74305,2.743055 2.74305,6.724894 0,4.07032 -2.74305,6.724882 -2.74305,2.743045 -6.81337,2.743045 z M 124.82015,71.643612 h 15.75038 v 1.946678 h -6.63641 v 20.086179 h -2.38909 V 73.59029 h -6.6364 V 71.643612 Z M 20.141984,88.190369 q 0,2.654563 -2.035171,4.247294 -1.946667,1.592742 -5.397595,1.592742 -2.9200073,0 -5.0436598,-1.327287 -2.1236525,-1.327276 -3.0969918,-3.716383 l 2.0351711,-0.796366 q 0.7963544,1.858198 2.3890853,2.831537 1.6812232,1.061821 3.8048762,1.061821 2.389108,0 3.716395,-1.061821 1.415768,-1.061832 1.415768,-2.831537 0,-2.123641 -1.504272,-3.09698 -1.415769,-0.97334 -3.981839,-2.035172 -2.8315253,-1.150302 -4.6012301,-2.389096 -1.7697161,-1.327287 -1.7697161,-3.893357 0,-2.477589 1.8581974,-3.981839 1.9466786,-1.50425 4.8666968,-1.50425 2.123641,0 3.716395,0.884847 1.592719,0.796377 2.654551,2.477589 l -1.946667,0.973339 q -0.707884,-1.238794 -1.858209,-1.858186 -1.061832,-0.619403 -2.654551,-0.619403 -1.769705,0 -3.0969923,1.061821 -1.2387833,0.973339 -1.2387833,2.4776 0,1.769705 1.5042384,2.743044 1.5042502,0.884847 3.5394212,1.681224 3.450928,1.50425 5.043659,2.920007 1.681223,1.415768 1.681223,4.158812 z M 44.740901,71.643612 h 2.389107 V 93.676469 H 44.740901 V 84.827933 H 30.760225 v 8.848536 H 28.459598 V 71.643612 h 2.300627 v 11.14915 H 44.652419 Z M 59.164017,91.72979 h 11.326124 v 1.946679 H 56.863402 V 71.643612 H 70.313178 V 73.59029 H 59.164017 v 9.202472 h 9.910356 v 1.946679 h -9.910356 z m 30.438952,-7.255804 5.840047,9.202483 h -2.743055 l -5.397596,-8.760054 -0.08858,-0.08847 h -3.893358 l 0.707885,-1.946679 h 3.00851 q 2.123653,0 3.539421,-1.327287 1.504238,-1.327276 1.504238,-3.362436 0,-1.946679 -1.415768,-3.185473 -1.327276,-1.327276 -3.450928,-1.327276 H 81.550732 V 93.764961 H 79.250117 V 71.643623 h 8.140651 q 3.008499,0 5.04367,1.858197 2.123642,1.858198 2.123642,4.601242 0,2.123641 -1.238784,3.804865 -1.238805,1.681223 -3.362458,2.389107 l -0.353936,0.176985 z M 111.37037,71.201183 100.57515,93.676469 h 2.4776 l 3.09699,-6.636413 h 10.26429 l 3.00849,6.282465 0.17692,0.265455 h 2.56613 z m -4.24729,13.892206 4.24729,-9.02551 4.1588,9.02551 z"
       style="font-style:normal;font-variant:normal;font-weight:normal;font-stretch:normal;font-size:40px;line-height:1.25;font-family:brand-logo-icons;-inkscape-font-specification:brand-logo-icons;letter-spacing:0px;word-spacing:0px;fill:#6e6260;fill-opacity:1;stroke:none;stroke-width:2.26522"
       id="path3718"
       inkscape:connector-curvature="0" /></g></svg>
