<?xml version="1.0" encoding="UTF-8" standalone="no"?>
<!-- Created with Inkscape (http://www.inkscape.org/) -->

<svg
   width="200"
   height="100"
   viewBox="0 0 200 100"
   version="1.1"
   id="svg152859"
   inkscape:version="1.2 (dc2aedaf03, 2022-05-15)"
   sodipodi:docname="brands template.svg"
   xml:space="preserve"
   inkscape:export-filename="brands\Ascend_logo.svg"
   inkscape:export-xdpi="96"
   inkscape:export-ydpi="96"
   xmlns:inkscape="http://www.inkscape.org/namespaces/inkscape"
   xmlns:sodipodi="http://sodipodi.sourceforge.net/DTD/sodipodi-0.dtd"
   xmlns="http://www.w3.org/2000/svg"
   xmlns:svg="http://www.w3.org/2000/svg"><sodipodi:namedview
     id="namedview152861"
     pagecolor="#ffffff"
     bordercolor="#eeeeee"
     borderopacity="1"
     inkscape:showpageshadow="0"
     inkscape:pageopacity="0"
     inkscape:pagecheckerboard="0"
     inkscape:deskcolor="#ffffff"
     inkscape:document-units="px"
     showgrid="false"
     inkscape:zoom="3.3638608"
     inkscape:cx="129.01842"
     inkscape:cy="54.699053"
     inkscape:window-width="1920"
     inkscape:window-height="1017"
     inkscape:window-x="-8"
     inkscape:window-y="-8"
     inkscape:window-maximized="1"
     inkscape:current-layer="layer1" /><defs
     id="defs152856"><style
       id="style154050">.cls-1{clip-path:url(#clip-path);}.cls-2{fill:none;}.cls-3{clip-path:url(#clip-path-2);}.cls-4{clip-path:url(#clip-path-3);}.cls-5{clip-path:url(#clip-path-5);}.cls-6{clip-path:url(#clip-path-6);}.cls-7{mask:url(#mask);}.cls-8{fill:url(#radial-gradient);}.cls-9{fill:url(#radial-gradient-2);}.cls-10{fill:url(#linear-gradient);}</style><linearGradient
       id="linearGradient142326"
       inkscape:swatch="gradient"><stop
         style="stop-color:#4170ac;stop-opacity:1;"
         offset="0"
         id="stop142322" /><stop
         style="stop-color:#4170ac;stop-opacity:0;"
         offset="1"
         id="stop142324" /></linearGradient></defs><g
     inkscape:label="Layer 1"
     inkscape:groupmode="layer"
     id="layer1"><path
       d="m 90.792213,8.4308275 c 0.828447,-0.8284469 1.461967,-1.9980196 1.900556,-1.1695723 0.438589,0.8284467 1.315769,3.6061818 1.413233,4.1909688 0.09746,0.682251 0.389858,1.608162 0.389858,1.608162 1.169573,-0.68225 4.337165,-1.023376 5.8966,5.214345 0.29239,0.730982 0.87717,0.243661 1.31576,0.389858 0.43859,0.09746 2.63154,-0.243662 3.94731,5.652934 1.26704,5.896595 3.07013,10.331225 3.75238,12.426709 -1.12084,0.146197 -2.8752,0.292393 -3.0214,1.413234 -2.14421,-2.192949 -3.9473,-4.093504 -7.358556,-2.192949 -0.877179,0.68225 -1.413233,1.461965 -1.413233,1.461965 C 95.762897,34.794945 94.983182,33.820301 91.815589,32.894389 90.646017,27.874973 90.792213,8.4308275 90.792213,8.4308275"
       fill="#ffffff"
       id="path157170"
       style="stroke-width:0.487322" /><path
       clip-path="url(#a-1)"
       d="M 115.20704,32.894389 113.74507,50.048121 84.310831,47.514047 85.772798,30.311582 Z"
       fill="url(#b)"
       id="path157172"
       style="fill:url(#b-6);stroke-width:0.487322" /><path
       clip-path="url(#c-6)"
       d="M 91.864322,4.6784489 H 113.30649 V 41.471254 H 91.864322 Z"
       fill="url(#d)"
       id="path157174"
       style="fill:url(#d-2);stroke-width:0.487322" /><path
       d="M 115.74309,44.882508 V 18.518392 c 0,-7.99208 -6.18899,-14.6683904 -15.69176,-14.6683904 -7.992079,0 -14.66839,6.6763104 -14.66839,14.6683904 v 26.364116 c 0,1.413234 -0.682251,2.631539 -1.705627,3.459986 h 33.771417 c -1.07212,-0.828447 -1.70564,-2.095485 -1.70564,-3.459986 M 99.564008,5.2632353 c 7.261092,0 13.206432,5.9453277 13.206432,13.2064247 v 21.78329 c -0.2924,-0.584786 -0.5848,-1.169573 -0.82845,-1.705627 -0.58479,-1.413233 -1.55943,-2.144216 -2.63154,-2.339145 -1.41324,-3.801111 -3.36253,-11.452066 -3.89858,-13.888675 -0.53606,-2.485342 -1.60816,-4.190969 -4.82449,-4.532094 -0.14619,-0.682251 -0.24365,-1.169573 -0.29239,-1.55943 -0.730982,-3.167593 -2.923931,-4.337166 -5.652933,-4.532095 -0.292393,-2.1929478 -0.730984,-3.4599852 -1.99802,-4.6295576 1.99802,-1.1208405 4.43463,-1.8030911 6.919971,-1.8030911 m 3.703642,17.1049997 c -0.29238,-1.413233 -0.58478,-2.290413 -1.75435,-3.070128 1.60816,0.243661 2.48534,1.315769 2.92392,2.777735 0,0 0.82845,3.021396 1.26705,4.483362 0.73097,2.631538 2.14421,6.919971 3.36251,9.746439 -0.0974,0 -0.14619,0 -0.14619,0 -0.68225,0 -1.26703,0.243661 -1.70563,0.584786 -1.85182,-4.824488 -3.02139,-10.087564 -3.94731,-14.522194 m 0.34113,12.962763 c -0.58478,-0.389858 -1.26704,-0.584786 -1.99802,-0.68225 -0.14619,0 -0.24367,0 -0.38986,0 -1.413231,-5.945328 -2.339143,-12.42671 -3.070125,-17.202465 -0.292393,-1.998019 -0.828448,-3.167592 -2.192949,-4.044772 1.267037,0.146197 2.923931,0.682252 3.508718,3.801112 0.243661,0.925911 2.339146,11.11094 4.142236,18.128375 M 93.618681,12.621796 c 0.243661,1.267038 1.413233,14.327265 3.070128,22.904132 C 95.714165,34.25889 94.690789,33.332979 93.472484,32.796924 93.326287,30.945102 93.180091,29.288207 93.082627,27.874973 92.93643,25.389631 92.49784,18.128534 92.351643,12.91419 92.254182,10.331383 92.205448,9.4054713 91.328268,8.1384349 c 1.413233,0.5360543 1.998019,2.2904131 2.290413,4.4833611 m -7.407294,34.453661 c 0.292394,-0.682251 0.438591,-1.413234 0.438591,-2.192949 v -2.582806 c 1.023375,0.584787 2.290413,0.877179 3.36252,0.828447 2.144217,-0.146197 4.190969,-2.046752 3.75238,-4.629558 -0.292394,-1.754359 -1.413235,-2.875199 -3.021397,-2.729003 -1.55943,0.146197 -2.290413,1.461966 -2.046752,2.436609 0.389857,1.998021 2.485342,1.900556 2.923931,1.023377 -1.023375,0.292393 -1.705625,-0.389857 -1.851822,-0.974644 -0.146197,-0.584786 0.146197,-1.413234 1.169572,-1.55943 1.120841,-0.146196 1.99802,0.43859 2.144217,1.754359 0.146196,1.169573 -0.682251,2.729003 -2.43661,2.923932 -2.144217,0.24366 -3.606182,-0.87718 -3.898576,-2.8752 -0.389857,-2.631539 1.120841,-4.67829 3.75238,-5.068148 2.923931,-0.43859 4.532093,1.413234 6.23772,4.093504 0.438589,0.730983 0.974644,1.705627 1.608163,2.729003 1.55943,2.43661 3.752376,5.068149 7.504756,4.921952 -1.85182,-0.292394 -3.45999,-1.608163 -4.92195,-3.459986 h 0.24366 c 1.55943,-0.146197 2.8752,-1.461966 2.33915,-3.362522 -0.24367,-0.974644 -1.26704,-1.461965 -2.14423,-1.267036 -1.16957,0.389857 -1.16957,1.754359 -0.58478,2.046751 -0.29239,-0.730983 0.24367,-1.267036 0.58478,-1.315769 0.2924,-0.09746 1.12085,-0.09746 1.26705,0.682251 0.24365,0.730983 -0.24367,1.851824 -1.55943,1.900556 -0.68225,0 -1.267041,-0.243661 -1.70563,-0.730983 -0.09746,-0.09746 -0.146197,-0.243661 -0.243661,-0.292393 -0.146197,-0.243662 -0.243662,-0.43859 -0.243662,-0.730983 -0.146195,-1.413234 0.682251,-2.729003 2.192953,-2.923931 1.75435,-0.243662 2.87519,0.974643 3.8011,2.631537 1.41324,2.43661 3.50872,6.919972 6.82251,6.919972 -1.55943,-0.43859 -2.729,-2.192949 -3.75238,-3.752379 h 0.38986 c 0.87719,-0.146196 1.46197,-0.584786 1.70563,-1.267037 0.24366,-0.730983 0,-1.55943 -0.58479,-1.851824 -0.73098,-0.292392 -1.31576,0.09746 -1.46197,0.536055 0.2924,-0.389858 0.82846,-0.292393 1.02338,-0.243661 0.38986,0.146197 0.53605,0.536054 0.43859,1.023376 -0.0974,0.43859 -0.53605,0.730983 -1.02337,0.828448 -0.68225,0 -1.31577,-0.389858 -1.46197,-1.169573 -0.0974,-0.536054 0,-1.023377 0.2924,-1.461966 0.29238,-0.389858 0.73097,-0.682251 1.31576,-0.828447 1.12085,-0.146197 2.14423,0.438589 2.77774,1.705627 0.53606,0.974644 1.02338,1.900554 1.55943,2.631537 v 3.362522 c 0,0.730983 0.1462,1.461965 0.43859,2.192949 H 86.211387 Z"
       id="path157176"
       style="fill:#562700;stroke-width:0.487322" /><path
       d="m 35.383709,61.890044 c 0,0.389857 0,1.120841 0.09746,1.413233 0,0.09746 -0.389857,0 -0.389857,0 -0.146197,-1.023376 -0.974644,-1.754359 -3.313789,-1.754359 h -1.998021 v 9.405314 c 0,2.729002 0.243661,3.313789 2.290413,3.459985 0.09746,0 0.09746,0.389858 0,0.389858 -0.68225,-0.09746 -2.144216,-0.146197 -3.070128,-0.146197 -1.267037,0 -2.631539,0 -3.508717,0.146197 -0.146197,0 -0.09746,-0.389858 0,-0.389858 1.998019,-0.24366 2.290413,-0.584786 2.290413,-3.459985 v -9.405314 h -2.144217 c -2.290413,0 -3.167593,0.682252 -3.362521,1.754359 0,0 -0.389858,0.09746 -0.389858,0 0.09746,-0.438589 0.146197,-1.608162 0.146197,-2.192948 0,-0.243661 0,-0.682251 -0.146197,-1.169573 0,-0.09746 0.389858,-0.09746 0.389858,0 0.146196,0.730984 0.146196,0.828447 3.362521,0.828447 h 6.188989 c 3.167592,0 3.313789,-0.09746 3.459985,-0.828447 0,-0.09746 0.389858,-0.09746 0.389858,0 -0.194929,0.487322 -0.292394,1.218305 -0.292394,1.949288"
       id="path157178"
       style="fill:#562700;stroke-width:0.487322" /><path
       d="m 53.755746,74.316754 c -0.09746,0.389857 -0.24366,0.438589 -0.536054,0.438589 -0.828447,0 -2.144216,-0.146197 -3.752378,-0.146197 -2.192949,0 -4.775755,0 -6.383918,0.146197 -0.146196,0 -0.09746,-0.389858 0,-0.389858 2.192949,-0.292393 2.43661,-0.584786 2.43661,-3.459985 v -6.676311 c 0,-2.875199 -0.243661,-3.216325 -2.43661,-3.459986 -0.09746,0 -0.146196,-0.389857 0,-0.389857 1.608163,0.146197 4.093505,0.146197 6.237721,0.146197 1.55943,0 3.021396,-0.09746 4.190969,-0.146197 -0.09746,0.292394 -0.146197,0.974644 -0.146197,1.413233 v 1.023377 h -0.389858 c -0.146196,-1.023377 -0.536054,-1.55943 -3.36252,-1.55943 h -1.851824 c -0.09746,0.536053 -0.146197,1.315768 -0.146197,2.777734 v 2.777736 h 1.55943 c 2.485342,0 2.631539,-0.146197 2.8752,-1.120841 0,0 0.389857,-0.09746 0.389857,0 -0.09746,0.292393 -0.146197,1.267037 -0.146197,1.754359 v 1.315769 h -0.389857 c -0.243661,-1.169572 -0.389858,-1.315769 -2.777735,-1.315769 h -1.413233 v 3.021396 c 0,2.923932 0.243661,3.216324 1.267036,3.216324 h 1.120841 c 3.362522,0 3.459986,-0.536053 3.752379,-1.998019 h 0.389858 c -0.194929,0.779715 -0.341126,2.192948 -0.487323,2.631539"
       id="path157180"
       style="fill:#562700;stroke-width:0.487322" /><path
       d="m 69.203852,68.225229 c -0.536054,0.146197 -1.169572,0.243661 -1.608163,0.243661 -0.438589,0 -0.584786,0 -0.974644,0 v 2.582807 c 0,2.729002 0.243661,3.313788 2.290414,3.459985 0.09746,0 0.146196,0.389858 0,0.389858 -0.68225,-0.09746 -2.144217,-0.146197 -3.070129,-0.146197 -1.267036,0 -2.631538,0 -3.508717,0.146197 -0.146197,0 -0.09746,-0.389858 0,-0.389858 1.900555,-0.243661 2.290413,-0.584786 2.290413,-3.459985 v -6.676311 c 0,-2.631539 -0.536054,-3.216325 -1.55943,-3.216325 -0.243662,0 -0.536054,0 -0.828448,0.09746 -0.09746,0 -0.146196,-0.292394 0,-0.389858 0.87718,-0.292394 3.362522,-0.389857 5.750399,-0.389857 3.752379,0 5.799132,1.169572 5.799132,3.508717 0,1.461965 -1.023377,2.8752 -2.729004,3.606183 1.120841,3.070128 3.898576,7.212364 6.481382,7.212364 0.09746,0 0.146197,0.389857 0,0.389857 -4.775755,-0.09746 -7.407294,-3.459985 -8.333205,-6.968703 m -1.55943,-7.163632 c -0.389858,0 -0.43859,0 -0.828448,0.09746 -0.146197,0.438589 -0.24366,1.267037 -0.24366,2.923931 v 3.654914 h 0.877178 c 2.923933,0 4.044773,-1.169572 4.044773,-3.216324 0.04873,-2.485341 -1.364502,-3.459985 -3.849843,-3.459985"
       id="path157182"
       style="fill:#562700;stroke-width:0.487322" /><path
       d="m 89.720106,68.225229 c -0.536055,0.146197 -1.169574,0.243661 -1.608163,0.243661 -0.43859,0 -0.584787,0 -0.974644,0 v 2.582807 c 0,2.729002 0.243661,3.313788 2.290413,3.459985 0.09746,0 0.146197,0.389858 0,0.389858 -0.682251,-0.09746 -2.144216,-0.146197 -3.070128,-0.146197 -1.267038,0 -2.631539,0 -3.508718,0.146197 -0.146197,0 -0.09746,-0.389858 0,-0.389858 1.900556,-0.243661 2.290413,-0.584786 2.290413,-3.459985 v -6.676311 c 0,-2.631539 -0.536054,-3.216325 -1.55943,-3.216325 -0.243661,0 -0.536054,0 -0.828448,0.09746 -0.09746,0 -0.146196,-0.292394 0,-0.389858 0.87718,-0.292394 3.362522,-0.389857 5.799131,-0.389857 3.75238,0 5.799132,1.169572 5.799132,3.508717 0,1.461965 -1.023377,2.8752 -2.729004,3.606183 1.120841,3.070128 3.898577,7.212364 6.481382,7.212364 0.09746,0 0.146197,0.389857 0,0.389857 -4.775755,-0.09746 -7.456025,-3.459985 -8.381936,-6.968703 m -1.608163,-7.163632 c -0.389858,0 -0.43859,0 -0.828447,0.09746 -0.146197,0.438589 -0.243661,1.267037 -0.243661,2.923931 v 3.654914 h 0.877179 c 2.923931,0 4.044772,-1.169572 4.044772,-3.216324 0.146197,-2.485341 -1.315769,-3.459985 -3.849843,-3.459985"
       id="path157184"
       style="fill:#562700;stroke-width:0.487322" /><path
       d="m 113.59888,74.657878 c -1.26703,0 -2.77773,0 -3.65492,0.146197 -0.14619,0 -0.0974,-0.389858 0,-0.389858 1.02338,-0.146196 1.60817,-0.09746 1.60817,-0.68225 0,-0.682251 -0.29239,-1.705627 -0.73098,-2.777735 l -0.58479,-1.608162 h -4.67829 l -0.68226,1.608162 c -0.58478,1.315769 -0.87717,2.192949 -0.87717,2.777735 0,0.536054 0.58479,0.584787 1.55943,0.730982 0.0974,0 0.1462,0.389858 0,0.389858 -0.68226,-0.09746 -1.55943,-0.146196 -2.48534,-0.146196 -1.26704,0 -1.46197,0 -2.33915,0.146196 -0.1462,0 -0.0974,-0.389858 0,-0.389858 1.46197,-0.146195 2.19295,-0.974643 3.36252,-3.459985 l 4.77576,-10.623618 c 0,-0.09746 0.24365,-0.09746 0.24365,0 l 4.09351,10.623618 c 0.82845,2.192949 1.26704,3.31379 3.36253,3.459985 0.0974,0 0.14619,0.389858 0,0.389858 -0.77972,-0.09746 -1.99803,-0.194929 -2.97267,-0.194929 M 108.09214,63.35201 105.753,68.615087 h 4.2397 z"
       id="path157186"
       style="fill:#562700;stroke-width:0.487322" /><path
       d="m 136.30808,64.326654 v 6.67631 c 0,1.12084 0.0975,3.070128 0.1462,4.044772 0,0.09746 -0.29239,0.09746 -0.38986,0 L 125.29461,63.741868 v 7.358561 c 0,2.436609 0.24366,3.313788 2.29041,3.459985 0,0 0.0974,0.389858 0,0.389858 -0.68225,-0.09746 -1.46197,-0.146197 -2.33914,-0.146197 -1.26704,0 -2.19296,0 -3.07013,0.146197 -0.0974,0 -0.0974,-0.389858 0,-0.389858 1.99801,-0.24366 2.29041,-0.87718 2.29041,-3.459985 v -7.55349 c 0,-1.023377 -1.85183,-2.43661 -2.87521,-2.582807 -0.0974,0 -0.14619,-0.389857 0,-0.389857 0.87719,0.146196 2.48535,0.146196 3.75239,0.146196 l 10.03883,10.769815 v -7.1149 c 0,-2.631539 -0.29239,-3.216325 -2.19295,-3.459986 -0.0974,0 -0.14619,-0.389857 0,-0.389857 0.87719,0.146197 1.60816,0.146197 2.8752,0.146197 0.87718,0 1.90056,-0.09746 2.5828,-0.146197 0.14621,0 0.0974,0.389857 0,0.389857 -2.14421,0.09746 -2.33914,0.974644 -2.33914,3.411254"
       id="path157188"
       style="fill:#562700;stroke-width:0.487322" /><path
       d="m 156.87306,74.316754 c -0.0974,0.389857 -0.24365,0.438589 -0.53605,0.438589 -0.82844,0 -2.14422,-0.146197 -3.75238,-0.146197 -2.19294,0 -4.77575,0 -6.38391,0.146197 -0.0974,0 -0.0974,-0.389858 0,-0.389858 2.19294,-0.292393 2.43661,-0.584786 2.43661,-3.459985 v -6.676311 c 0,-2.875199 -0.24367,-3.216325 -2.43661,-3.459986 -0.0974,0 -0.0974,-0.389857 0,-0.389857 1.60816,0.146197 4.0935,0.146197 6.23772,0.146197 1.55943,0 3.0214,-0.09746 4.19097,-0.146197 -0.0974,0.292394 -0.1462,0.974644 -0.1462,1.413233 v 1.023377 h -0.38986 c -0.14619,-1.023377 -0.53605,-1.55943 -3.36251,-1.55943 h -1.90056 c -0.0974,0.536053 -0.1462,1.315768 -0.1462,2.777734 v 2.777736 h 1.55943 c 2.48534,0 2.63154,-0.146197 2.8752,-1.120841 0,0 0.38986,-0.09746 0.38986,0 -0.0975,0.292393 -0.1462,1.267037 -0.1462,1.754359 v 1.315769 h -0.38986 c -0.24366,-1.169572 -0.38986,-1.315769 -2.77774,-1.315769 h -1.55943 v 3.021396 c 0,2.923932 0.24367,3.216324 1.26704,3.216324 h 1.12084 c 3.36253,0 3.45999,-0.536053 3.75238,-1.998019 h 0.38986 c 0,0.779715 -0.14619,2.192948 -0.2924,2.631539"
       id="path157190"
       style="fill:#562700;stroke-width:0.487322" /><path
       d="m 175.05018,74.657878 c -1.26704,0 -2.77774,0 -3.65491,0.146197 -0.14621,0 -0.0974,-0.389858 0,-0.389858 1.02336,-0.146196 1.70562,-0.09746 1.70562,-0.68225 0,-0.682251 -0.2924,-1.705627 -0.73099,-2.777735 l -0.58478,-1.608162 h -4.67829 l -0.68225,1.608162 c -0.58479,1.315769 -0.87718,2.192949 -0.87718,2.777735 0,0.536054 0.58478,0.584787 1.55943,0.730982 0.0974,0 0.1462,0.389858 0,0.389858 -0.68225,-0.09746 -1.55943,-0.146196 -2.48535,-0.146196 -1.26703,0 -1.46196,0 -2.33914,0.146196 -0.14619,0 -0.0974,-0.389858 0,-0.389858 1.46197,-0.146195 2.19295,-0.974643 3.36252,-3.459985 l 4.67829,-10.623618 c 0,-0.09746 0.24366,-0.09746 0.24366,0 l 4.09351,10.623618 c 0.82844,2.192949 1.26703,3.31379 3.36252,3.459985 0.0974,0 0.1462,0.389858 0,0.389858 -0.77971,-0.09746 -1.99802,-0.194929 -2.97266,-0.194929 m -5.40928,-11.305868 -2.33914,5.263077 h 4.2397 z"
       id="path157192"
       style="fill:#562700;stroke-width:0.487322" /><path
       d="M 40.159464,81.285457 H 160.86911 V 81.57785 H 40.159464 Z"
       id="path157194"
       style="fill:#562700;stroke-width:0.487322" /><path
       d="m 53.17096,92.834986 c 0,-1.900555 1.461966,-3.313788 3.362522,-3.313788 1.169573,0 1.99802,0.438589 2.582806,1.315769 l -1.023376,0.730983 c -0.292394,-0.487322 -0.828448,-0.828448 -1.55943,-0.828448 -1.169574,0 -1.949289,0.925912 -1.949289,2.095484 0,1.218306 0.779715,2.144217 1.949289,2.144217 0.828447,0 1.315768,-0.389858 1.656894,-0.974644 l 1.023377,0.730983 c -0.584787,0.87718 -1.461966,1.413233 -2.729004,1.413233 -1.851823,0.04873 -3.313789,-1.364501 -3.313789,-3.313789 z"
       id="path157196"
       style="fill:#562700;stroke-width:0.487322" /><path
       d="m 67.059635,89.569929 h 0.09746 l 2.972663,6.530114 H 68.716527 L 68.424134,95.36906 h -2.631539 l -0.292393,0.730983 h -1.267037 z m 0.87718,4.678292 -0.487323,-1.120841 c -0.194928,-0.43859 -0.389857,-1.169572 -0.389857,-1.169572 0,0 -0.194929,0.68225 -0.389858,1.169572 l -0.487321,1.120841 z"
       id="path157198"
       style="fill:#562700;stroke-width:0.487322" /><path
       d="m 75.782698,89.618661 h 1.315769 v 5.31181 h 2.923932 v 1.169572 h -4.288433 v -6.481382 z"
       id="path157200"
       style="fill:#562700;stroke-width:0.487322" /><path
       d="m 85.967726,89.618661 h 1.31577 v 6.481382 h -1.31577 z"
       id="path157202"
       style="fill:#562700;stroke-width:0.487322" /><path
       d="m 93.423752,89.618661 h 4.190969 v 1.169574 h -2.826468 v 2.144216 h 2.582806 v 1.169573 h -2.582806 v 1.998019 h -1.315769 v -6.481382 z"
       id="path157204"
       style="fill:#562700;stroke-width:0.487322" /><path
       d="m 103.21892,92.834986 c 0,-1.900555 1.5107,-3.313788 3.36253,-3.313788 1.85182,0 3.36251,1.413233 3.36251,3.313788 0,1.900556 -1.51069,3.313789 -3.36251,3.313789 -1.90056,0.04873 -3.36253,-1.364501 -3.36253,-3.313789 z m 5.31181,0 c 0,-1.218304 -0.77971,-2.144216 -1.99802,-2.144216 -1.2183,0 -1.99801,0.925912 -1.99801,2.144216 0,1.218306 0.77971,2.144217 1.99801,2.144217 1.21831,0 1.99802,-0.925911 1.99802,-2.144217 z"
       id="path157206"
       style="fill:#562700;stroke-width:0.487322" /><path
       d="m 120.61632,96.100043 h -1.55943 l -1.07211,-1.656894 c -0.1462,0 -0.24366,0.04873 -0.38986,0.04873 h -0.43859 v 1.608162 h -1.31577 V 89.61866 h 1.80309 c 1.80309,0 2.92394,0.87718 2.92394,2.43661 0,1.023376 -0.43859,1.656895 -1.26704,1.998021 z m -3.0214,-2.777734 c 1.07211,0 1.55943,-0.341126 1.55943,-1.267038 0,-0.925911 -0.48732,-1.267036 -1.55943,-1.267036 h -0.43859 v 2.534074 z"
       id="path157208"
       style="fill:#562700;stroke-width:0.487322" /><path
       d="m 128.36474,93.078647 c -0.34113,-0.292392 -0.77972,-0.877179 -0.77972,-0.877179 0,0 0.0974,0.730983 0.0974,1.169573 v 2.729002 h -1.26703 v -6.530114 h 0.14619 l 3.26506,3.070129 c 0.29239,0.292393 0.77972,0.87718 0.77972,0.87718 0,0 -0.0974,-0.730983 -0.0974,-1.169573 v -2.729004 h 1.26704 v 6.530114 h -0.1462 z"
       id="path157210"
       style="fill:#562700;stroke-width:0.487322" /><path
       d="m 137.96498,89.618661 h 1.31577 v 6.481382 h -1.31577 z"
       id="path157212"
       style="fill:#562700;stroke-width:0.487322" /><path
       d="m 147.80888,89.569929 h 0.0974 l 2.97267,6.530114 h -1.41324 l -0.2924,-0.730983 h -2.63153 l -0.29239,0.730983 h -1.26704 z m 0.87718,4.678292 -0.48732,-1.120841 c -0.19494,-0.43859 -0.38986,-1.169572 -0.38986,-1.169572 0,0 -0.19493,0.68225 -0.38986,1.169572 l -0.48732,1.120841 z"
       id="path157214"
       style="fill:#562700;stroke-width:0.487322" /></g></svg>
