<?xml version="1.0" encoding="UTF-8" standalone="no"?>
<svg
   width="100"
   height="100"
   version="1.1"
   id="svg28"
   sodipodi:docname="Instagram_logo.svg"
   inkscape:version="1.2.2 (732a01da63, 2022-12-09)"
   xmlns:inkscape="http://www.inkscape.org/namespaces/inkscape"
   xmlns:sodipodi="http://sodipodi.sourceforge.net/DTD/sodipodi-0.dtd"
   xmlns:xlink="http://www.w3.org/1999/xlink"
   xmlns="http://www.w3.org/2000/svg"
   xmlns:svg="http://www.w3.org/2000/svg">
  <sodipodi:namedview
     id="namedview30"
     pagecolor="#505050"
     bordercolor="#eeeeee"
     borderopacity="1"
     inkscape:showpageshadow="0"
     inkscape:pageopacity="0"
     inkscape:pagecheckerboard="0"
     inkscape:deskcolor="#505050"
     showgrid="false"
     inkscape:zoom="5.6568543"
     inkscape:cx="29.875261"
     inkscape:cy="38.890873"
     inkscape:window-width="3840"
     inkscape:window-height="2054"
     inkscape:window-x="-11"
     inkscape:window-y="-11"
     inkscape:window-maximized="1"
     inkscape:current-layer="svg28" />
  <defs
     id="defs20">
    <linearGradient
       id="b">
      <stop
         offset="0"
         stop-color="#3771c8"
         id="stop2" />
      <stop
         stop-color="#3771c8"
         offset=".128"
         id="stop4" />
      <stop
         offset="1"
         stop-color="#60f"
         stop-opacity="0"
         id="stop6" />
    </linearGradient>
    <linearGradient
       id="a">
      <stop
         offset="0"
         stop-color="#fd5"
         id="stop9" />
      <stop
         offset=".1"
         stop-color="#fd5"
         id="stop11" />
      <stop
         offset=".5"
         stop-color="#ff543e"
         id="stop13" />
      <stop
         offset="1"
         stop-color="#c837ab"
         id="stop15" />
    </linearGradient>
    <radialGradient
       id="c"
       cx="158.429"
       cy="578.08801"
       r="65"
       xlink:href="#a"
       gradientUnits="userSpaceOnUse"
       gradientTransform="matrix(0,-1.9821477,1.8435533,0,-1031.2047,454.04241)"
       fx="158.429"
       fy="578.08801" />
    <radialGradient
       id="d"
       cx="147.694"
       cy="473.45499"
       r="65"
       xlink:href="#b"
       gradientUnits="userSpaceOnUse"
       gradientTransform="matrix(0.1739073,0.86879349,-3.5811266,0.71724067,1648.0416,-458.53179)"
       fx="147.694"
       fy="473.45499" />
  </defs>
  <g
     id="g637"
     transform="matrix(0.76908525,0,0,0.76923077,0.01160372,0)">
    <path
       fill="url(#d)"
       d="M 65.021218,0 9.7042507e-4,0.00580172 c 0,0 0.0201467449,35.55763828 0.003473135,43.84190728 -0.00999812,5.176438 0,11.989014 0,21.126787 0,27.122295 0.02999436,35.052964 0.15996992,36.593094 0.4499154,5.42046 1.29975562,8.83075 3.09941722,12.56106 3.4393533,7.14061 10.0081183,12.50106 17.7466633,14.50123 2.679496,0.69006 5.638939,1.07009 9.438225,1.25011 1.609697,0.07 18.016612,0.12001 34.433525,0.12001 16.416913,0 32.833826,-0.02 34.403531,-0.10001 4.399175,-0.20702 6.953695,-0.55005 9.778165,-1.28011 7.78853,-2.01017 14.23732,-7.29062 17.74666,-14.53123 1.76467,-3.64031 2.6595,-7.18061 3.06442,-12.31804 C 129.96302,100.65051 130,64.957495 130,64.957495 L 130.00197,0.00321717 86.17724,0 Z"
       id="path24"
       style="fill:url(#d);stroke-width:0.999948"
       sodipodi:nodetypes="cccsccccscccccccc" />
    <path
       fill="url(#c)"
       d="M 65.021218,0 -0.00198993,9.9821807e-4 -0.01508769,43.812553 V 64.93934 l 0.02943182,65.05273 64.84836887,-0.0272 65.146797,0.033 L 130,64.957495 130.00093,28.174383 129.99181,0.01054379 86.17724,0 Z"
       id="path22"
       style="fill:url(#c);stroke-width:0.999948"
       sodipodi:nodetypes="cccccccccccc" />
    <path
       fill="#ffffff"
       d="m 64.991224,17.001439 c -13.033549,0 -14.669242,0.057 -19.788279,0.290024 -5.10904,0.23402 -8.596384,1.043088 -11.64781,2.230189 -3.156406,1.226104 -5.833903,2.866242 -8.501401,5.535468 -2.669498,2.668226 -4.30919,5.346453 -5.538959,8.50272 -1.189776,3.053258 -1.999624,6.542553 -2.229581,11.650986 -0.228957,5.120433 -0.288946,6.757571 -0.288946,19.794674 0,13.037104 0.05799,14.668242 0.289946,19.788675 0.234956,5.110432 1.043804,8.598727 2.229581,11.650986 1.22677,3.157269 2.866461,5.835489 5.534959,8.503719 2.666499,2.67023 5.343996,4.31437 8.498402,5.54047 3.053426,1.1871 6.54177,1.99617 11.64981,2.23019 5.119037,0.23302 6.75373,0.29002 19.786279,0.29002 13.034549,0 14.665242,-0.057 19.78428,-0.29002 5.109039,-0.23402 8.600383,-1.04309 11.653809,-2.23019 3.155406,-1.2261 5.828896,-2.87024 8.495406,-5.54047 2.6695,-2.66823 4.30919,-5.34645 5.53896,-8.502719 1.17977,-3.053259 1.98962,-6.542554 2.22958,-11.650986 0.22995,-5.120433 0.28994,-6.752571 0.28994,-19.789675 0,-13.037103 -0.06,-14.673241 -0.28994,-19.793674 -0.23996,-5.110433 -1.04981,-8.598728 -2.22958,-11.650986 -1.22977,-3.157267 -2.86946,-5.835494 -5.53896,-8.50372 -2.66951,-2.670226 -5.339,-4.310365 -8.498405,-5.535468 -3.059426,-1.187101 -6.54877,-1.996169 -11.657808,-2.230189 -5.119038,-0.23302 -6.748731,-0.290024 -19.78628,-0.290024 z m -4.30519,8.650732 c 1.27776,-0.002 2.703491,0 4.30519,0 12.81359,0 14.332305,0.046 19.392354,0.276023 4.67912,0.214018 7.218642,0.996084 8.910324,1.65314 2.239579,0.870073 3.836278,1.910161 5.514964,3.590304 1.679684,1.680142 2.719494,3.280277 3.591324,5.520467 0.65687,1.690143 1.43973,4.230358 1.65269,8.910754 0.22996,5.060428 0.27995,6.580557 0.27995,19.391641 0,12.811084 -0.05,14.331212 -0.27995,19.39164 -0.21396,4.680396 -0.99582,7.220611 -1.65269,8.910754 -0.86983,2.24019 -1.91164,3.835325 -3.591324,5.514467 -1.679685,1.680139 -3.274385,2.720229 -5.514964,3.590299 -1.689682,0.66006 -4.231204,1.44013 -8.910324,1.65414 -5.059049,0.23002 -6.578764,0.28003 -19.392354,0.28003 -12.814591,0 -14.333305,-0.05 -19.392353,-0.28003 -4.67912,-0.21601 -7.218644,-0.99808 -8.911325,-1.65514 -2.239579,-0.87007 -3.839278,-1.91016 -5.518962,-3.590299 C 29.4889,97.130219 28.449095,95.534084 27.577259,93.292894 26.920382,91.602751 26.13753,89.062536 25.92457,84.38214 25.694613,79.321712 25.648622,77.801583 25.648622,64.982499 c 0,-12.819085 0.04599,-14.331213 0.275948,-19.391641 0.213959,-4.680396 0.995812,-7.220611 1.652689,-8.912754 0.869836,-2.24019 1.911641,-3.840325 3.591325,-5.520468 1.679684,-1.680142 3.279383,-2.72023 5.518962,-3.592304 1.691682,-0.660055 4.232205,-1.440121 8.911325,-1.65514 4.427167,-0.200017 6.142845,-0.260022 15.087163,-0.270022 z m 29.922373,7.970674 c -3.179402,0 -5.758917,2.577218 -5.758917,5.758487 0,3.180269 2.579515,5.760488 5.758917,5.760488 3.179403,0 5.758917,-2.580219 5.758917,-5.760488 0,-3.180269 -2.579514,-5.760487 -5.758917,-5.760487 z m -25.617183,6.73057 c -13.610441,0 -24.645365,11.037933 -24.645365,24.652085 0,13.614152 11.034924,24.647086 24.645365,24.647086 13.610441,0 24.641367,-11.032934 24.641367,-24.647086 0,-13.614152 -11.031926,-24.652085 -24.642367,-24.652085 z m 0,8.650732 c 8.834339,0 15.996992,7.163606 15.996992,16.001353 0,8.836748 -7.162653,16.001354 -15.996992,16.001354 -8.835339,0 -15.996992,-7.164606 -15.996992,-16.001354 0,-8.837747 7.161653,-16.001353 15.996992,-16.001353 z"
       id="path26"
       style="stroke-width:0.999948" />
  </g>
</svg>
